<svg id="Group_69712" data-name="Group 69712" xmlns="http://www.w3.org/2000/svg" width="119.867" height="119.867" viewBox="0 0 119.867 119.867">
  <path id="Path_32869" data-name="Path 32869" d="M123.855,65.677A58.177,58.177,0,1,1,65.677,7.5,58.178,58.178,0,0,1,123.855,65.677Zm0,0" transform="translate(-5.744 -5.744)" fill="#d6c9b4"/>
  <path id="Path_32870" data-name="Path 32870" d="M61.483,115.914a30.16,30.16,0,0,0,6.928-10.835L60.674,98.51s-9.507-18.265-9.449-18.219C30,55.607,46.023,22.138,46.2,21.762A58.191,58.191,0,0,0,59.213,134.423,14.543,14.543,0,0,1,61.483,115.914Zm0,0" transform="translate(-5.744 -16.667)" fill="#b09e80"/>
  <path id="Path_32871" data-name="Path 32871" d="M123.383,209.118a8.44,8.44,0,0,1-5.171-1.765L90.787,186.2a8.473,8.473,0,0,1,10.35-13.418l21.218,16.368,29.275-32.4A8.473,8.473,0,0,1,164.2,168.11l-34.531,38.216A8.456,8.456,0,0,1,123.383,209.118Zm0,0" transform="translate(-67.006 -117.913)" fill="#fff"/>
  <path id="Path_32872" data-name="Path 32872" d="M59.933,119.867A59.933,59.933,0,0,1,0,59.933,59.313,59.313,0,0,1,12.908,22.772a1.756,1.756,0,0,1,2.754,2.179,56.423,56.423,0,0,0,44.271,91.4,56.422,56.422,0,0,0,39.9-96.318,56.422,56.422,0,0,0-79.366-.422,1.756,1.756,0,0,1-2.457-2.509,59.933,59.933,0,0,1,84.306,85.207A59.542,59.542,0,0,1,59.933,119.867Zm0,0"/>
  <path id="Path_32873" data-name="Path 32873" d="M117.636,205.131a10.14,10.14,0,0,1-6.244-2.13L83.967,181.846a10.229,10.229,0,1,1,12.495-16.2l19.932,15.376,28.187-31.194a10.228,10.228,0,1,1,15.178,13.715l-4.679,5.178a1.756,1.756,0,0,1-2.605-2.354l4.679-5.178a6.707,6.707,0,0,0-.481-9.487c-3.917-3.49-8.284-.851-9.486.48l-29.275,32.4a1.756,1.756,0,0,1-2.375.213L94.316,168.428c-1.419-1.1-6.437-2.735-9.42,1.215s-.2,8.326,1.215,9.421l27.425,21.155a6.652,6.652,0,0,0,4.1,1.4,6.733,6.733,0,0,0,4.987-2.213l25.013-27.682a1.756,1.756,0,0,1,2.605,2.354L125.229,201.76A10.252,10.252,0,0,1,117.636,205.131Zm0,0" transform="translate(-61.259 -112.17)"/>
</svg>
