<svg xmlns="http://www.w3.org/2000/svg" width="67.083" height="49.195" viewBox="0 0 67.083 49.195">
  <g id="_35-idea" data-name="35-idea" transform="translate(0 0)">
    <path id="Path_35701" data-name="Path 35701" d="M65.847,5H54.667a2.236,2.236,0,0,0-1.588.648l-6.038,6.06H3.236A2.236,2.236,0,0,0,1,13.944V27.361A2.236,2.236,0,0,0,3.236,29.6H9.944V51.958a2.236,2.236,0,1,0,4.472,0V40.778h40.25V51.958a2.236,2.236,0,1,0,4.472,0V29.6h6.708a2.236,2.236,0,0,0,2.236-2.236V7.236A2.236,2.236,0,0,0,65.847,5ZM54.667,36.306H14.417V29.6h40.25Zm8.944-11.181H5.472V16.181H47.958a2.236,2.236,0,0,0,1.588-.648l6.038-6.06h8.028Z" transform="translate(-1 -5)" fill="#fff"/>
  </g>
</svg>
