<svg xmlns="http://www.w3.org/2000/svg" width="40" height="40" viewBox="0 0 40 40">
  <g id="Group_69434" data-name="Group 69434" transform="translate(0.234 0.234)">
    <rect id="Rectangle_18092" data-name="Rectangle 18092" width="40" height="40" transform="translate(-0.234 -0.234)" fill="none"/>
    <path id="Path_28966" data-name="Path 28966" d="M18.041,21.224l3.63-3.63a3.3,3.3,0,0,0,.617-3.8l-.206-.411a3.294,3.294,0,0,1,.617-3.8l4.5-4.5a.824.824,0,0,1,1.319.214l1.818,3.637a7.227,7.227,0,0,1-1.354,8.342L19.1,27.149a8.94,8.94,0,0,1-9.148,2.16L5.978,27.983a.824.824,0,0,1-.322-1.364l4.367-4.367a3.294,3.294,0,0,1,3.8-.617l.411.206A3.3,3.3,0,0,0,18.041,21.224Z" transform="translate(3.505 3.128)" fill-rule="evenodd"/>
    <path id="Path_28967" data-name="Path 28967" d="M21.7,8.617,21.388,11.9a8.237,8.237,0,0,0-8.994,8.968l-3.28.306A11.531,11.531,0,0,1,21.7,8.617Zm.577-6.564-.3,3.28A14.826,14.826,0,0,0,5.832,21.457l-3.281.3A18.12,18.12,0,0,1,22.28,2.053Z" transform="translate(1.602 1.278)" opacity="0.3"/>
  </g>
</svg>
