<svg xmlns="http://www.w3.org/2000/svg" width="62.887" height="62.888" viewBox="0 0 62.887 62.888">
  <g id="Group_69843" data-name="Group 69843" transform="translate(0)">
    <g id="Group_69842" data-name="Group 69842" transform="translate(0)">
      <path id="Path_35524" data-name="Path 35524" d="M62.834,26.006a1.869,1.869,0,0,0,.06-.459C62.894,11.218,52.006,0,39.311,0H36.363a1.842,1.842,0,0,0-1.749,1.263L27.172,23.705H11.194L8.819,15.989a7.3,7.3,0,0,0-6.97-5.057,1.842,1.842,0,0,0,0,3.685A3.639,3.639,0,0,1,5.3,17.072c3.051,9.915,3.162,10.107,6.258,18.777,1.131,3.168,4.691,5.3,8.857,5.3h6.35l-1.72,4.3a8.727,8.727,0,0,0-10.175,8.6,8.709,8.709,0,0,0,17.247,1.842h6.53a8.873,8.873,0,0,0,2.344,4.37,8.573,8.573,0,0,0,12.364,0,8.851,8.851,0,0,0,2.538-6.212,8.727,8.727,0,0,0-10.175-8.6L44,41.146h6.35c4.162,0,7.718-2.124,8.854-5.287,3.807-10.295,3.594-9.7,3.632-9.854ZM37.693,3.685h1.618c10.407,0,18.974,8.824,19.828,20.021H31.055ZM23.589,59.2a5.167,5.167,0,0,1-5.036-5.159,5.036,5.036,0,1,1,10.072,0A5.167,5.167,0,0,1,23.589,59.2Zm28.618-5.159a5.037,5.037,0,1,1-10.072,0,5.036,5.036,0,1,1,10.072,0ZM42.3,46.816A8.742,8.742,0,0,0,38.649,52.2H32.113a8.743,8.743,0,0,0-3.648-5.385l2.268-5.669h9.3ZM55.743,34.591c-.723,1.952-3.281,2.871-5.394,2.871H20.414c-2.532,0-4.8-1.2-5.387-2.852l-2.579-7.22H58.406Z" transform="translate(-0.007)" fill="#fff"/>
    </g>
  </g>
</svg>
