<svg id="Group_69913" data-name="Group 69913" xmlns="http://www.w3.org/2000/svg" width="61.003" height="61.003" viewBox="0 0 61.003 61.003">
  <path id="Path_35704" data-name="Path 35704" d="M61.787,80A1.787,1.787,0,0,0,60,81.787v4.766a1.787,1.787,0,1,0,3.574,0V81.787A1.787,1.787,0,0,0,61.787,80Z" transform="translate(-52.851 -70.468)" fill="#003451"/>
  <path id="Path_35705" data-name="Path 35705" d="M61.787,240A1.787,1.787,0,0,0,60,241.787v9.532a1.787,1.787,0,1,0,3.574,0v-9.532A1.787,1.787,0,0,0,61.787,240Z" transform="translate(-52.851 -211.405)" fill="#003451"/>
  <path id="Path_35708" data-name="Path 35708" d="M4193.053,323.542l1.969-2.575,31.805.352.939,2.223V333.2l-35.21-.3Z" transform="translate(-4168.984 -307.379)" fill="#00a99d"/>
  <path id="Path_35706" data-name="Path 35706" d="M55.642,12.153H36.935V5.362A5.368,5.368,0,0,0,31.574,0H5.362A5.368,5.368,0,0,0,0,5.362v50.28A5.368,5.368,0,0,0,5.362,61h50.28A5.368,5.368,0,0,0,61,55.642V17.515A5.368,5.368,0,0,0,55.642,12.153Zm1.787,5.362v6.553H25.259V17.515a1.789,1.789,0,0,1,1.787-1.787h28.6A1.789,1.789,0,0,1,57.429,17.515ZM3.574,5.362A1.789,1.789,0,0,1,5.362,3.574H31.574a1.789,1.789,0,0,1,1.787,1.787v6.791H27.046a5.368,5.368,0,0,0-5.362,5.362v3.932H3.574Zm0,50.28V25.021h18.11V55.642a5.336,5.336,0,0,0,.307,1.787H5.362A1.789,1.789,0,0,1,3.574,55.642Zm53.854,0a1.789,1.789,0,0,1-1.787,1.787h-28.6a1.789,1.789,0,0,1-1.787-1.787v-28h32.17Z" fill="#003451"/>
  <circle id="Ellipse_800" data-name="Ellipse 800" cx="1.515" cy="1.515" r="1.515" transform="translate(50.201 18.379)" fill="#003451"/>
  <circle id="Ellipse_801" data-name="Ellipse 801" cx="1.515" cy="1.515" r="1.515" transform="translate(42.624 18.379)" fill="#003451"/>
  <circle id="Ellipse_802" data-name="Ellipse 802" cx="9" cy="9" r="9" transform="translate(31.578 33.753)" fill="#00a99d"/>
  <path id="Path_35707" data-name="Path 35707" d="M263.319,284.638A11.319,11.319,0,1,0,252,273.319,11.332,11.332,0,0,0,263.319,284.638Zm0-19.063a7.745,7.745,0,1,1-7.745,7.745A7.753,7.753,0,0,1,263.319,265.574Z" transform="translate(-221.975 -230.784)" fill="#003451"/>
</svg>
