<svg id="Group_70226" data-name="Group 70226" xmlns="http://www.w3.org/2000/svg" width="76.598" height="76.6" viewBox="0 0 76.598 76.6">
  <g id="Group_69842" data-name="Group 69842" transform="translate(0)">
    <path id="Path_35526" data-name="Path 35526" d="M3171.511,455.055l62.922-.816-3.093,8.526-3.631,6.944-4.425,2.079H3178.65l-4.124-7.611Z" transform="translate(-3159.279 -424.303)" fill="#00a99d"/>
    <path id="Path_35524" data-name="Path 35524" d="M76.532,31.677a2.275,2.275,0,0,0,.073-.559C76.605,13.664,63.344,0,47.881,0H44.29a2.244,2.244,0,0,0-2.13,1.538L33.1,28.874H13.633l-2.892-9.4a8.9,8.9,0,0,0-8.49-6.16,2.244,2.244,0,0,0,0,4.488,4.432,4.432,0,0,1,4.2,2.992C10.167,32.871,10.3,33.1,14.074,43.666c1.378,3.859,5.714,6.452,10.789,6.452H32.6l-2.1,5.237A10.629,10.629,0,0,0,18.109,65.827a10.607,10.607,0,0,0,21.008,2.244H47.07a10.807,10.807,0,0,0,2.855,5.322,10.443,10.443,0,0,0,15.06,0,10.781,10.781,0,0,0,3.092-7.566A10.63,10.63,0,0,0,55.685,55.355l-2.1-5.237h7.735c5.069,0,9.4-2.587,10.784-6.439,4.637-12.54,4.377-11.821,4.424-12ZM45.911,4.488h1.97c12.676,0,23.111,10.748,24.151,24.386H37.824ZM28.731,72.11A6.293,6.293,0,0,1,22.6,65.827a6.134,6.134,0,1,1,12.268,0A6.293,6.293,0,0,1,28.731,72.11Zm34.858-6.283a6.136,6.136,0,1,1-12.268,0,6.134,6.134,0,1,1,12.268,0Zm-12.072-8.8a10.648,10.648,0,0,0-4.443,6.559H39.113a10.65,10.65,0,0,0-4.443-6.559l2.762-6.905H48.755Zm16.377-14.89c-.881,2.378-4,3.5-6.571,3.5H24.863c-3.084,0-5.843-1.461-6.562-3.473L15.16,33.362H71.139Z" transform="translate(-0.007)" fill="#003451"/>
  </g>
</svg>
