<svg id="Group_70218" data-name="Group 70218" xmlns="http://www.w3.org/2000/svg" width="60.94" height="79.379" viewBox="0 0 60.94 79.379">
  <g id="Group_69828" data-name="Group 69828" transform="translate(0 24.495)">
    <g id="Group_69827" data-name="Group 69827">
      <path id="Path_35700" data-name="Path 35700" d="M2952.452,450.559h55.137v5.817l-2.614,8.231-5.71,6.081-8.336,5.939-11.307,2.611-12.046-1.981-9.179-7.83-4.272-5.875-2.582-9.02-.565-3.973Z" transform="translate(-2948.221 -447.881)" fill="#00a99d"/>
      <path id="Path_35516" data-name="Path 35516" d="M120.407,160.344A2.348,2.348,0,0,0,118.059,158H61.815a2.348,2.348,0,0,0-2.348,2.348,30.5,30.5,0,0,0,17,27.326l-4.292,22.42a2.348,2.348,0,1,0,4.612.883L78.8,200.445h22.265l2.017,10.528a2.348,2.348,0,1,0,4.612-.883L103.4,187.672A30.5,30.5,0,0,0,120.407,160.344ZM79.7,195.749l1.206-6.3a30.53,30.53,0,0,0,18.053,0l1.207,6.3Zm10.234-9.631a25.809,25.809,0,0,1-25.668-23.427h51.337A25.809,25.809,0,0,1,89.937,186.118Z" transform="translate(-59.467 -157.996)" fill="#003451"/>
    </g>
  </g>
  <g id="Group_69830" data-name="Group 69830" transform="translate(15.572 0)">
    <g id="Group_69829" data-name="Group 69829" transform="translate(0 0)">
      <path id="Path_35517" data-name="Path 35517" d="M165.792,12.123a9.215,9.215,0,0,0,2.352-4.3A7.465,7.465,0,0,0,165.757.675a2.348,2.348,0,0,0-3.3,3.344,2.866,2.866,0,0,1,1.092,2.814,4.551,4.551,0,0,1-1.127,2.016,9.216,9.216,0,0,0-2.352,4.3A7.465,7.465,0,0,0,162.46,20.3a2.348,2.348,0,0,0,3.3-3.344,2.866,2.866,0,0,1-1.092-2.814A4.553,4.553,0,0,1,165.792,12.123Z" transform="translate(-159.907 0.001)" fill="#003451"/>
    </g>
  </g>
  <g id="Group_69832" data-name="Group 69832" transform="translate(26.268 0)">
    <g id="Group_69831" data-name="Group 69831" transform="translate(0 0)">
      <path id="Path_35518" data-name="Path 35518" d="M234.783,12.123a9.215,9.215,0,0,0,2.352-4.3A7.465,7.465,0,0,0,234.748.675a2.348,2.348,0,0,0-3.3,3.344,2.866,2.866,0,0,1,1.092,2.814,4.549,4.549,0,0,1-1.127,2.016,9.216,9.216,0,0,0-2.352,4.3,7.465,7.465,0,0,0,2.387,7.145,2.348,2.348,0,0,0,3.3-3.344,2.866,2.866,0,0,1-1.092-2.814A4.553,4.553,0,0,1,234.783,12.123Z" transform="translate(-228.898 0.001)" fill="#003451"/>
    </g>
  </g>
  <g id="Group_69834" data-name="Group 69834" transform="translate(36.964 0)">
    <g id="Group_69833" data-name="Group 69833" transform="translate(0 0)">
      <path id="Path_35519" data-name="Path 35519" d="M303.773,12.123a9.215,9.215,0,0,0,2.352-4.3A7.464,7.464,0,0,0,303.738.675a2.348,2.348,0,0,0-3.3,3.344,2.866,2.866,0,0,1,1.092,2.814,4.55,4.55,0,0,1-1.127,2.016,9.217,9.217,0,0,0-2.352,4.3,7.465,7.465,0,0,0,2.387,7.145,2.348,2.348,0,0,0,3.3-3.344,2.866,2.866,0,0,1-1.092-2.814A4.555,4.555,0,0,1,303.773,12.123Z" transform="translate(-297.888 0.001)" fill="#003451"/>
    </g>
  </g>
</svg>
