<svg xmlns="http://www.w3.org/2000/svg" width="51.657" height="67.285" viewBox="0 0 51.657 67.285">
  <g id="Group_70094" data-name="Group 70094" transform="translate(0 0)">
    <g id="Group_69828" data-name="Group 69828" transform="translate(0 20.762)">
      <g id="Group_69827" data-name="Group 69827" transform="translate(0 0)">
        <path id="Path_35516" data-name="Path 35516" d="M111.124,159.986a1.99,1.99,0,0,0-1.99-1.99H61.457a1.99,1.99,0,0,0-1.99,1.99A25.858,25.858,0,0,0,73.879,183.15l-3.638,19a1.99,1.99,0,1,0,3.909.748l1.708-8.924H94.731l1.709,8.924a1.99,1.99,0,1,0,3.909-.749l-3.64-19A25.858,25.858,0,0,0,111.124,159.986ZM76.62,190l1.023-5.341a25.879,25.879,0,0,0,15.3,0L93.969,190Zm8.675-8.164a21.878,21.878,0,0,1-21.758-19.858h43.516A21.878,21.878,0,0,1,85.3,181.834Z" transform="translate(-59.467 -157.996)" fill="#fff"/>
      </g>
    </g>
    <g id="Group_69830" data-name="Group 69830" transform="translate(13.2 0)">
      <g id="Group_69829" data-name="Group 69829" transform="translate(0 0)">
        <path id="Path_35517" data-name="Path 35517" d="M164.9,10.276a7.812,7.812,0,0,0,1.993-3.648A6.327,6.327,0,0,0,164.865.572a1.99,1.99,0,0,0-2.794,2.835A2.43,2.43,0,0,1,163,5.792a3.857,3.857,0,0,1-.955,1.709,7.812,7.812,0,0,0-1.993,3.648,6.327,6.327,0,0,0,2.023,6.056,1.99,1.99,0,0,0,2.794-2.835,2.43,2.43,0,0,1-.926-2.385A3.859,3.859,0,0,1,164.9,10.276Z" transform="translate(-159.907 0.001)" fill="#fff"/>
      </g>
    </g>
    <g id="Group_69832" data-name="Group 69832" transform="translate(22.267 0)">
      <g id="Group_69831" data-name="Group 69831" transform="translate(0 0)">
        <path id="Path_35518" data-name="Path 35518" d="M233.886,10.276a7.812,7.812,0,0,0,1.993-3.648A6.328,6.328,0,0,0,233.856.572a1.99,1.99,0,1,0-2.794,2.835,2.43,2.43,0,0,1,.926,2.385,3.856,3.856,0,0,1-.955,1.709,7.812,7.812,0,0,0-1.993,3.648,6.328,6.328,0,0,0,2.023,6.056,1.99,1.99,0,0,0,2.794-2.835,2.43,2.43,0,0,1-.926-2.385A3.858,3.858,0,0,1,233.886,10.276Z" transform="translate(-228.898 0.001)" fill="#fff"/>
      </g>
    </g>
    <g id="Group_69834" data-name="Group 69834" transform="translate(31.333 0)">
      <g id="Group_69833" data-name="Group 69833" transform="translate(0 0)">
        <path id="Path_35519" data-name="Path 35519" d="M302.876,10.276a7.81,7.81,0,0,0,1.993-3.648A6.327,6.327,0,0,0,302.846.572a1.99,1.99,0,0,0-2.794,2.835,2.429,2.429,0,0,1,.926,2.385,3.857,3.857,0,0,1-.955,1.709,7.812,7.812,0,0,0-1.993,3.648,6.327,6.327,0,0,0,2.023,6.056,1.99,1.99,0,0,0,2.794-2.835,2.43,2.43,0,0,1-.926-2.385A3.86,3.86,0,0,1,302.876,10.276Z" transform="translate(-297.888 0.001)" fill="#fff"/>
      </g>
    </g>
  </g>
</svg>
