<svg xmlns="http://www.w3.org/2000/svg" width="42.535" height="51.762" viewBox="0 0 42.535 51.762">
  <g id="Group_69912" data-name="Group 69912" transform="translate(-2.501 -0.5)">
    <g id="layer1" transform="translate(3.001 1)">
      <path id="Path_35703" data-name="Path 35703" d="M4080.074,321.785h18.616v6.823l-1.853,4.637-7.248,2.843-6.434-1.918-2.5-3.612-.58-5.409Z" transform="translate(-4059.412 -309.944)" fill="#00a99d"/>
      <path id="rect359" d="M28.354,291.65A2.309,2.309,0,0,0,26.074,294v6.88h-2.3a2.309,2.309,0,0,0-2.321,2.317v6.91a9.266,9.266,0,0,0,9.232,9.232v6.91a11.534,11.534,0,1,1-23.069,0v-9.227a2.309,2.309,0,1,0-4.617,0v9.227a16.151,16.151,0,1,0,32.3,0v-6.91a9.266,9.266,0,0,0,9.232-9.232V303.2a2.308,2.308,0,0,0-2.317-2.317h-2.3V294a2.309,2.309,0,1,0-4.617,0v6.88H30.687V294a2.308,2.308,0,0,0-2.333-2.351Zm11.564,13.844v4.612a4.556,4.556,0,0,1-4.617,4.612c-1.553,0-3.064,0-4.612,0a4.552,4.552,0,0,1-4.612-4.612v-4.612Z" transform="translate(-3.001 -291.65)" fill="#fff" stroke="#00a99d" stroke-width="1"/>
    </g>
  </g>
</svg>
