<svg xmlns="http://www.w3.org/2000/svg" width="52.953" height="56.347" viewBox="0 0 52.953 56.347">
  <g id="Group_69841" data-name="Group 69841" transform="translate(-1.744 0.327)">
    <g id="Line" transform="translate(2 -0.071)">
      <path id="Path_35521" data-name="Path 35521" d="M48.711,22.091a1.192,1.192,0,0,0-1.3.259l-1.76,1.76A38.45,38.45,0,0,1,30.7,33.348a3.97,3.97,0,0,0,1.253,7.72h2.453l-3.9,7.81a1.192,1.192,0,0,0,2.132,1.065l4.438-8.875h3.294l4.438,8.875a1.192,1.192,0,0,0,2.132-1.067l-3.907-7.809a6,6,0,0,0,6.414-5.959V23.192a1.192,1.192,0,0,0-.735-1.1ZM47.063,35.11a3.58,3.58,0,0,1-3.575,3.575H31.956a1.583,1.583,0,0,1-.5-3.076,40.851,40.851,0,0,0,15.605-9.543Z" transform="translate(2.992 5.193)" fill="#fff" stroke="#fff" stroke-width="0.5"/>
      <path id="Path_35522" data-name="Path 35522" d="M2,23.192V35.11a6,6,0,0,0,6.414,5.959l-3.9,7.81a1.192,1.192,0,0,0,2.132,1.067l4.437-8.876h3.294l4.438,8.875a1.192,1.192,0,0,0,2.132-1.065l-3.906-7.81h2.453a3.97,3.97,0,0,0,1.253-7.72A38.45,38.45,0,0,1,5.795,24.109l-1.76-1.76A1.191,1.191,0,0,0,2,23.192Zm2.384,2.875a40.865,40.865,0,0,0,15.605,9.543,1.583,1.583,0,0,1-.5,3.076H7.959A3.58,3.58,0,0,1,4.384,35.11Z" transform="translate(-2 5.193)" fill="#fff" stroke="#fff" stroke-width="0.5"/>
      <path id="Path_35523" data-name="Path 35523" d="M36.562,16.362a31.526,31.526,0,0,0,17.012-.092,1.2,1.2,0,0,0,.65-1.829C47.559,4.978,37.371,1.31,26.082,2.014A29.152,29.152,0,0,0,2.215,14.44a1.2,1.2,0,0,0,.65,1.829,31.538,31.538,0,0,0,17.012.092,31.538,31.538,0,0,0,7.151,1.083v9.6H16.3a3.576,3.576,0,0,0,0,7.151H27.027V56.533a1.192,1.192,0,1,0,2.384,0V34.192H40.137a3.575,3.575,0,1,0,0-7.151H29.411v-9.6A31.6,31.6,0,0,0,36.562,16.362Zm4.767,14.255a1.193,1.193,0,0,1-1.192,1.192H16.3a1.192,1.192,0,0,1,0-2.384H40.137A1.193,1.193,0,0,1,41.329,30.617ZM26.272,4.562l.215-.164h3.465l.213.164a13.392,13.392,0,0,1,5.151,9.644,29.131,29.131,0,0,1-14.194,0,13.4,13.4,0,0,1,5.151-9.644Zm24.95,9.847A29.156,29.156,0,0,1,37.7,14.182a15.787,15.787,0,0,0-4.022-9.57A26.767,26.767,0,0,1,51.222,14.408Zm-46.006,0a26.767,26.767,0,0,1,17.546-9.8,15.8,15.8,0,0,0-4.022,9.571A29.14,29.14,0,0,1,5.216,14.408Z" transform="translate(-2 -1.929)" fill="#fff" stroke="#fff" stroke-width="0.5"/>
    </g>
  </g>
</svg>
