<svg xmlns="http://www.w3.org/2000/svg" width="53.01" height="64.564" viewBox="0 0 53.01 64.564">
  <g id="Group_70237" data-name="Group 70237" transform="translate(0.5 0.5)">
    <g id="layer1" transform="translate(0 0)">
      <path id="Path_35703" data-name="Path 35703" d="M4080.074,321.785h23.311v8.544l-2.32,5.806-9.076,3.56-8.056-2.4-3.132-4.523-.727-6.773Z" transform="translate(-4054.202 -306.958)" fill="#00a99d"/>
      <path id="rect359" d="M34.748,291.65a2.891,2.891,0,0,0-2.855,2.944v8.616H29.016a2.891,2.891,0,0,0-2.907,2.9v8.653a11.6,11.6,0,0,0,11.56,11.56v8.653a14.443,14.443,0,1,1-28.887,0V323.423a2.891,2.891,0,1,0-5.781,0v11.554a20.225,20.225,0,1,0,40.449,0v-8.653a11.6,11.6,0,0,0,11.56-11.56v-8.653a2.89,2.89,0,0,0-2.9-2.9H49.232v-8.616a2.891,2.891,0,1,0-5.781,0v8.616H37.669v-8.616a2.89,2.89,0,0,0-2.921-2.944Zm14.481,17.335v5.776a5.7,5.7,0,0,1-5.781,5.776c-1.944,0-3.837,0-5.776,0a5.7,5.7,0,0,1-5.776-5.776v-5.776Z" transform="translate(-3.001 -291.65)" fill="#003451" stroke="#e0fcfa" stroke-width="1"/>
    </g>
  </g>
</svg>
