<svg xmlns="http://www.w3.org/2000/svg" width="20.926" height="18.433" viewBox="0 0 20.926 18.433">
  <path id="Path_32703" data-name="Path 32703" d="M41.545,77.591a.459.459,0,0,1-.337-.147l-9.086-9.828a.459.459,0,0,1,.337-.77h4.373a.459.459,0,0,1,.346.158L40.215,70.5A17.4,17.4,0,0,1,42.293,67.2a30.914,30.914,0,0,1,9.958-7.992.459.459,0,0,1,.5.767A30.014,30.014,0,0,0,48.38,64.5a33.742,33.742,0,0,0-6.39,12.739.459.459,0,0,1-.445.349Z" transform="translate(-32 -59.158)" fill="#00a99d"/>
</svg>
