<svg id="Group_69763" data-name="Group 69763" xmlns="http://www.w3.org/2000/svg" width="124.811" height="91.563" viewBox="0 0 124.811 91.563">
  <ellipse id="Ellipse_783" data-name="Ellipse 783" cx="58.451" cy="18.266" rx="58.451" ry="18.266" transform="translate(0 55.031)" fill="#f2f2f2"/>
  <g id="Man_reading-pana" data-name="Man reading-pana" transform="translate(20.203)">
    <g id="freepik--background-complete--inject-336" transform="translate(0 0)">
      <g id="Group_69761" data-name="Group 69761" transform="translate(0)">
        <rect id="Rectangle_18061" data-name="Rectangle 18061" width="17.595" height="29.125" fill="#ebebeb"/>
        <rect id="Rectangle_18062" data-name="Rectangle 18062" width="16.097" height="27.944" transform="translate(0.748 0.59)" fill="#fff"/>
        <rect id="Rectangle_18063" data-name="Rectangle 18063" width="9.899" height="20.681" transform="translate(3.883 4.222)" fill="#ebebeb"/>
        <path id="Path_34574" data-name="Path 34574" d="M381.2,102.88a4.379,4.379,0,0,0-3.627-4.088,11.226,11.226,0,0,1-2.735-.3c-1.52-.623-2-2.645-3.537-3.244l-.07,14.947H381.2Z" transform="translate(-367.416 -85.294)" fill="#e0e0e0"/>
      </g>
      <path id="Path_34625" data-name="Path 34625" d="M69.73,427.251c0,.047,2.7.083,6.02.083s6.023-.037,6.023-.083-2.7-.081-6.023-.081S69.73,427.206,69.73,427.251Z" transform="translate(22.835 -341.739)" fill="#fafafa"/>
    </g>
    <g id="freepik--Character--inject-336" transform="translate(7.713 0)">
      <path id="Path_34658" data-name="Path 34658" d="M297.924,356.267l-6.214,21.155h1.746l8.568-21.3Z" transform="translate(-289.554 -296.959)" fill="#6f4439"/>
      <path id="Path_34659" data-name="Path 34659" d="M233.664,356.267l-6.214,20.953H229.2l8.568-21.1Z" transform="translate(-210.047 -296.959)" fill="#6f4439"/>
      <path id="Path_34660" data-name="Path 34660" d="M145.312,356.267l5.633,20.953H149.2l-7.989-21.1Z" transform="translate(-102.766 -296.959)" fill="#ae7461"/>
      <path id="Path_34661" data-name="Path 34661" d="M223.442,356.267l5.339,20.953h-1.746l-7.695-21.1Z" transform="translate(-199.14 -296.959)" fill="#ae7461"/>
      <path id="Path_34662" data-name="Path 34662" d="M196.179,230.2s.475-6.378-.486-8.2-10.309-5.514-10.309-5.514-6.406-10.117-10.694-12.257-21.015-1.846-23.447,1.459.292,11.963,1.557,17.216l4.572,12.839,1.262,3.63h34.822Z" transform="translate(-150.266 -180.066)" fill="#00a99d"/>
      <path id="Path_34663" data-name="Path 34663" d="M259.529,214.34a.635.635,0,0,0-.026.066c-.014.043-.038.109-.062.2-.052.178-.121.441-.19.785a12.188,12.188,0,0,0-.216,2.971,20.339,20.339,0,0,0,.237,2.064c.114.74.249,1.53.4,2.373.3,1.661.66,3.5,1.063,5.445v.031l.026.012c.522.263,1.072.541,1.637.814a100.529,100.529,0,0,0,10.374,4.359c1.357.475,2.465.842,3.234,1.082l.887.27.237.066.081.019-.076-.031-.237-.078-.88-.292c-.764-.256-1.867-.626-3.22-1.12a107.6,107.6,0,0,1-10.338-4.4c-.565-.273-1.115-.553-1.637-.814l.033.043c-.406-1.943-.769-3.78-1.077-5.443-.154-.83-.294-1.618-.411-2.356s-.218-1.424-.254-2.052a12.746,12.746,0,0,1,.178-2.961c.062-.344.123-.607.168-.785.021-.083.038-.149.052-.2A.256.256,0,0,0,259.529,214.34Z" transform="translate(-256.986 -188.819)" fill="#263238"/>
      <path id="Path_34664" data-name="Path 34664" d="M170.362,340.05a32.832,32.832,0,0,0-.662,3.96,16.375,16.375,0,0,0,.391-1.969A16.585,16.585,0,0,0,170.362,340.05Z" transform="translate(-128.943 -284.702)" fill="#263238"/>
      <path id="Path_34665" data-name="Path 34665" d="M247.522,321.195c.033,0-.356-2.444-.868-5.443s-.949-5.426-.989-5.422.353,2.442.866,5.443S247.487,321.2,247.522,321.195Z" transform="translate(-224.128 -262.033)" fill="#263238"/>
      <path id="Path_34666" data-name="Path 34666" d="M17.546,363.47l4.786,6.058s7.768-2.831,8.758-1.8l-11.41,9.7L11.83,368.3Z" transform="translate(47.788 -302.565)" fill="#263238"/>
      <path id="Path_34667" data-name="Path 34667" d="M61.131,398.785a.612.612,0,0,0,.128.807.591.591,0,0,0,.8-.123.645.645,0,0,0-.142-.852.611.611,0,0,0-.819.218" transform="translate(5.04 -329.316)" fill="#e0e0e0"/>
      <path id="Path_34668" data-name="Path 34668" d="M12.555,390.323l-.755-.949,11.223-8.95s.7-.211.949.2Z" transform="translate(54.913 -315.455)" fill="#455a64"/>
      <path id="Path_34669" data-name="Path 34669" d="M48.785,388.06c.045.059-.211.32-.332.733s-.069.771-.14.792-.261-.372-.1-.868S48.754,388,48.785,388.06Z" transform="translate(21.47 -321.313)" fill="#fff"/>
      <path id="Path_34670" data-name="Path 34670" d="M41.56,385.871c.059.043-.1.344-.09.74s.168.693.109.738-.361-.237-.365-.736S41.513,385.819,41.56,385.871Z" transform="translate(30.313 -319.646)" fill="#fff"/>
      <path id="Path_34671" data-name="Path 34671" d="M33.831,385.222c-.04.055-.356-.157-.475-.584s.04-.769.1-.743.04.325.142.674S33.88,385.17,33.831,385.222Z" transform="translate(39.941 -318.143)" fill="#fff"/>
      <path id="Path_34672" data-name="Path 34672" d="M54.555,382.7c.019.069-.3.211-.6.5s-.458.6-.527.574,0-.422.351-.757S54.546,382.635,54.555,382.7Z" transform="translate(14.457 -317.215)" fill="#fff"/>
      <path id="Path_34673" data-name="Path 34673" d="M129.689,291.739c0,.55,2.453,25.775,2.453,25.775l-8.288.949s-2.062-12.723-2.373-15.067-1.393-6.546-1.393-6.546L102.41,295.1s8.672-12.129,9.515-12.182S129.689,291.739,129.689,291.739Z" transform="translate(-74.757 -241.126)" fill="#263238"/>
      <path id="Path_34674" data-name="Path 34674" d="M105.138,299.242S90.3,279.126,89.445,278.072,87.6,275.9,84.507,275.9s-11.465.593-11.465.593L68.62,274.48l-16.063,2.475s-.593,7.638.46,9.417,7.308,2.237,8.625,2.3,21.713-2.7,21.713-2.7h0s4,5.547,5.915,7.678c1.367,1.521,8.668,10.891,8.668,10.891Z" transform="translate(-35.884 -234.69)" fill="#263238"/>
      <path id="Path_34675" data-name="Path 34675" d="M97.33,304.309l7.379-5.441-.069-.095c-.149-.2-14.851-20.128-15.7-21.172-.8-.987-1.8-2.216-5.03-2.216-2.971,0-10.888.553-11.444.591l-4.427-2.017h-.036l-16.146,2.489v.092c-.024.316-.584,7.7.475,9.491,1.144,1.929,7.949,2.323,8.722,2.373,1.284.074,20.137-2.489,21.663-2.7.432.6,4.086,5.638,5.882,7.633,1.348,1.5,8.589,10.789,8.663,10.881Zm7.049-5.49-7,5.163c-.759-.975-7.32-9.379-8.6-10.805-1.9-2.1-5.868-7.614-5.908-7.671l-.04-.057h-.071c-.2.028-20.405,2.767-21.689,2.7-.3-.017-7.431-.391-8.53-2.247-.961-1.621-.515-8.373-.451-9.254l15.926-2.444,4.418,2.012h.031c.083,0,8.4-.593,11.456-.593,3.115,0,4.074,1.186,4.845,2.135C89.571,278.753,103.266,297.312,104.379,298.819Z" transform="translate(-35.289 -234.293)" fill="#455a64"/>
      <path id="Path_34676" data-name="Path 34676" d="M139.053,311.68a11.418,11.418,0,0,0-.949,1.369,11.226,11.226,0,0,0-.854,1.436,24.043,24.043,0,0,0,1.8-2.8Z" transform="translate(-89.934 -263.063)" fill="#455a64"/>
      <path id="Path_34677" data-name="Path 34677" d="M81.985,407.219l-.42,7.709s7.69,3.018,7.749,4.463l-14.974-.282.166-12.039Z" transform="translate(-25.269 -335.82)" fill="#263238"/>
      <path id="Path_34678" data-name="Path 34678" d="M123.923,437.015a.612.612,0,0,0-.437.69.588.588,0,0,0,.681.437.645.645,0,0,0,.458-.733.613.613,0,0,0-.759-.377" transform="translate(-72.249 -358.641)" fill="#e0e0e0"/>
      <path id="Path_34679" data-name="Path 34679" d="M74.311,453.862l.064-1.212,14.334.724s.657.309.577.783Z" transform="translate(-25.24 -370.585)" fill="#455a64"/>
      <path id="Path_34680" data-name="Path 34680" d="M107.376,439.684c0,.074-.37.1-.733.327s-.562.531-.629.5.05-.451.5-.712S107.4,439.618,107.376,439.684Z" transform="translate(-50.843 -360.647)" fill="#fff"/>
      <path id="Path_34681" data-name="Path 34681" d="M100.428,442.651c.017.071-.3.19-.558.493s-.332.631-.4.626-.112-.418.211-.793S100.428,442.582,100.428,442.651Z" transform="translate(-42.333 -362.935)" fill="#fff"/>
      <path id="Path_34682" data-name="Path 34682" d="M93.33,446.726c-.066.014-.161-.354.036-.75s.539-.551.569-.489-.187.271-.342.6S93.4,446.719,93.33,446.726Z" transform="translate(-34.378 -365.112)" fill="#fff"/>
      <path id="Path_34683" data-name="Path 34683" d="M107.946,431.553c-.033.066-.365-.04-.781-.021s-.738.145-.774.081.278-.318.764-.335S107.982,431.5,107.946,431.553Z" transform="translate(-51.507 -354.283)" fill="#fff"/>
      <path id="Path_34684" data-name="Path 34684" d="M208.949,187.56l-.527,4.81,6.039,12.113s3.571,1.186,4.836,2.489l-2.892.126a20.052,20.052,0,0,0-11.479,4.209c-1.424,1.115-2.579,2.321-2.793,3.417-.629,3.227-1.592,2.729-1.592,2.729l-3.661-4.71-2.563-5.1-5.146-19.964,4.966-2.729,1.115-1.623,7.355,1.025,1.464,1.445Z" transform="translate(-182.497 -165.167)" fill="#455a64"/>
      <path id="Path_34685" data-name="Path 34685" d="M190.03,214.018l-3.085-1.291-4.847-6.8s-2.249-4.5-4.271-4.812-.522,4.81-.522,4.81l3.108,8.827,5.014,3.509,3.457-.3,2.237-1.9Z" transform="translate(-151.38 -178.721)" fill="#455a64"/>
      <path id="Path_34686" data-name="Path 34686" d="M209.52,208.21a.9.9,0,0,0,.055.159c.043.114.1.261.173.444.157.4.377.949.645,1.632.543,1.381,1.272,3.3,2.069,5.412s1.54,4.034,2.1,5.4c.28.686.515,1.239.683,1.618l.195.434a.71.71,0,0,0,.076.149.757.757,0,0,0-.052-.159c-.045-.112-.1-.261-.176-.444-.157-.4-.377-.949-.645-1.632-.543-1.379-1.272-3.293-2.069-5.412s-1.538-4.034-2.1-5.4c-.282-.686-.517-1.241-.686-1.618l-.195-.437A.789.789,0,0,0,209.52,208.21Z" transform="translate(-183.549 -184.144)" fill="#263238"/>
      <path id="Path_34687" data-name="Path 34687" d="M250.62,197.226a2.04,2.04,0,0,0,.185-.327c.121-.237.275-.541.475-.911H251.2c.161.356.349.778.6,1.227a5.311,5.311,0,0,0,1.006,1.329l.116.107-.012-.157v-.026c-.09-1.224-.237-2.328-.363-3.12-.066-.4-.126-.712-.171-.937a1.931,1.931,0,0,0-.083-.339,1.759,1.759,0,0,0,.036.346c.033.237.078.562.131.949.109.795.237,1.9.327,3.118v.026l.1-.05a5.493,5.493,0,0,1-.989-1.293c-.252-.441-.448-.859-.619-1.21l-.043-.088-.038.088c-.173.375-.316.688-.427.928A2.219,2.219,0,0,0,250.62,197.226Z" transform="translate(-230.702 -173.359)" fill="#263238"/>
      <path id="Path_34688" data-name="Path 34688" d="M262.5,191.75a.407.407,0,0,0,.069.1l.214.261c.19.237.475.546.826.932a37.535,37.535,0,0,0,2.942,2.847c.55.475,1.089.921,1.592,1.312l.09.071v-.114a8.1,8.1,0,0,1,.37-2.271l-.059.021.9.517a2.568,2.568,0,0,0,.332.173,2.2,2.2,0,0,0-.308-.211l-.885-.548-.04-.026-.017.047a7.677,7.677,0,0,0-.408,2.294l.093-.045c-.5-.394-1.034-.838-1.58-1.314-1.208-1.049-2.237-2.069-2.964-2.824-.363-.377-.65-.69-.852-.9l-.237-.237A.552.552,0,0,0,262.5,191.75Z" transform="translate(-250.377 -171.589)" fill="#263238"/>
      <path id="Path_34689" data-name="Path 34689" d="M247.24,133.042l-.5-10.2c-.318-3.194,1.277-6.043,4.48-6.271h.3a5.742,5.742,0,0,1,5.792,5.2c.259,2.771.51,5.834.513,7.325a3.694,3.694,0,0,1-3.073,3.6s.081,1.872.133,2.774h0l-.645,2.349Z" transform="translate(-234.671 -114.246)" fill="#ffbf9d"/>
      <path id="Path_34690" data-name="Path 34690" d="M263.574,180.892a7.441,7.441,0,0,1-4.034-1.132,3.831,3.831,0,0,0,4.067,1.986Z" transform="translate(-243.504 -162.444)" fill="#ff9a6c"/>
      <path id="Path_34691" data-name="Path 34691" d="M253.608,149.066a.439.439,0,0,1-.42.448.422.422,0,0,1-.458-.391.437.437,0,0,1,.418-.448.422.422,0,0,1,.46.391Z" transform="translate(-231.889 -138.733)" fill="#263238"/>
      <path id="Path_34692" data-name="Path 34692" d="M253.292,142.307c-.055.059-.391-.183-.864-.176s-.819.249-.871.192.028-.13.18-.237a1.2,1.2,0,0,1,.7-.237,1.16,1.16,0,0,1,.688.214C253.269,142.179,253.319,142.281,253.292,142.307Z" transform="translate(-231.298 -133.529)" fill="#263238"/>
      <path id="Path_34693" data-name="Path 34693" d="M271.008,149.446a.441.441,0,0,1-.42.448.42.42,0,0,1-.458-.389.441.441,0,0,1,.418-.451.422.422,0,0,1,.46.391Z" transform="translate(-253.418 -139.022)" fill="#263238"/>
      <path id="Path_34694" data-name="Path 34694" d="M272.84,143.065c-.055.059-.391-.183-.864-.176s-.819.237-.871.19.029-.128.178-.237a1.215,1.215,0,0,1,.7-.223,1.151,1.151,0,0,1,.688.211C272.814,142.947,272.868,143.039,272.84,143.065Z" transform="translate(-255.484 -134.115)" fill="#263238"/>
      <path id="Path_34695" data-name="Path 34695" d="M259,147.07a3.27,3.27,0,0,1,.769-.149c.119-.014.237-.038.254-.121a.638.638,0,0,0-.085-.358c-.119-.292-.237-.6-.37-.916a16,16,0,0,1-.835-2.4,15.608,15.608,0,0,1,1.025,2.323c.126.323.237.629.356.923a.7.7,0,0,1,.069.475.3.3,0,0,1-.2.18.871.871,0,0,1-.2.031A3.084,3.084,0,0,1,259,147.07Z" transform="translate(-239.9 -134.504)" fill="#263238"/>
      <path id="Path_34696" data-name="Path 34696" d="M272.708,136.706c-.062.121-.524,0-1.082,0s-1.025.09-1.084-.036c-.024-.059.069-.168.263-.268a1.767,1.767,0,0,1,.828-.176,1.8,1.8,0,0,1,.823.206C272.646,136.535,272.737,136.647,272.708,136.706Z" transform="translate(-255.22 -129.239)" fill="#263238"/>
      <path id="Path_34697" data-name="Path 34697" d="M253.413,136.433c-.095.109-.475,0-.949.017s-.854.095-.949-.014c-.04-.052.017-.164.185-.268a1.58,1.58,0,0,1,1.528,0C253.4,136.269,253.456,136.378,253.413,136.433Z" transform="translate(-231.417 -129.044)" fill="#263238"/>
      <path id="Path_34698" data-name="Path 34698" d="M293.6,151.852c-.052-.024-2.124-.6-2.029,1.507a1.58,1.58,0,0,0,2.188,1.514C293.761,154.811,293.6,151.852,293.6,151.852Z" transform="translate(-281.258 -141.089)" fill="#ffbf9d"/>
      <path id="Path_34699" data-name="Path 34699" d="M295.4,156.362a.636.636,0,0,1-.095.059.37.37,0,0,1-.278.028.912.912,0,0,1-.456-.8,1.2,1.2,0,0,1,.078-.529.427.427,0,0,1,.263-.294.185.185,0,0,1,.221.093c.031.057.019.1.031.1s.045-.038.024-.123a.237.237,0,0,0-.09-.128.277.277,0,0,0-.2-.045.517.517,0,0,0-.368.344,1.268,1.268,0,0,0-.1.593.955.955,0,0,0,.577.885.4.4,0,0,0,.332-.071C295.4,156.414,295.406,156.367,295.4,156.362Z" transform="translate(-283.574 -143.348)" fill="#ff9a6c"/>
      <path id="Path_34700" data-name="Path 34700" d="M249.486,111.193a.505.505,0,0,0-.237-.282,1.526,1.526,0,0,0-.792-.095,4.408,4.408,0,0,1-1.948-.4,2.158,2.158,0,0,0,.548-.42,1.321,1.321,0,0,0,.325-1.331.3.3,0,0,0-.173-.195c-.14-.036-.254.1-.344.214a1.139,1.139,0,0,1-1.051.5,1.865,1.865,0,0,1-.811-.2.314.314,0,0,1-.026-.028l-.337-.311h0a6.945,6.945,0,0,0-2.245-1.519,7.062,7.062,0,0,0-3.832-.138,2.9,2.9,0,0,0-2.086,2.344,2.246,2.246,0,0,0-2.245-.114h-.019a2.759,2.759,0,0,0-1.424,2.048c-.012.047-.021.093-.031.14a3.248,3.248,0,0,1-1.051,1.118c-.078.05-.166.109-.171.2s.074.161.15.211a1.616,1.616,0,0,0,.671.237,3.611,3.611,0,0,1-.237.586c-.085.159-.185.351-.1.508a.346.346,0,0,0,.368.142,1.042,1.042,0,0,0,.372-.187c-.083.221-.164.444-.237.664a1.926,1.926,0,0,0,.883-.1c.206.769.4,2.2.622,2.722a3.245,3.245,0,0,1,.98,0c.368.1.259.757.724.553.237-.1.569-1.037.641-1.286a12.07,12.07,0,0,0,.3-5.111,3.845,3.845,0,0,1,1.156-.911l-.036.033a3.507,3.507,0,0,1,2.643-.3,5.744,5.744,0,0,1,1.545,1.424,4.406,4.406,0,0,0,3.322,1.443c.161.925.263,2.444.346,3.308l.664-1.768h0c.055-.1.1-.209.142-.313l.017-.031h0c.069-.168.135-.337.223-.5h0a.543.543,0,0,0,.762-.759,1.209,1.209,0,0,0-.275-.252.857.857,0,0,0,.79.206.676.676,0,0,0,.448-.686.572.572,0,0,0-.361-.444,1.962,1.962,0,0,0,1.1-.294C249.367,111.675,249.571,111.462,249.486,111.193Z" transform="translate(-222.758 -106.78)" fill="#263238"/>
      <path id="Path_34701" data-name="Path 34701" d="M286.646,118.83a3.012,3.012,0,0,0-.3.3,2.195,2.195,0,0,0-.429,1.044,3.945,3.945,0,0,0-.045.785,8.561,8.561,0,0,0,.083.906,8.53,8.53,0,0,1,.066,1.008,3.425,3.425,0,0,1-.047.536,1.107,1.107,0,0,1-.195.527.474.474,0,0,1-.429.166.711.711,0,0,1-.4-.2,1.609,1.609,0,0,1-.33-.771h.064a2.51,2.51,0,0,1-.346.662.916.916,0,0,1-.586.351.576.576,0,0,1-.318-.043.506.506,0,0,1-.225-.2.539.539,0,0,1-.078-.27.382.382,0,0,1,.09-.237l.033.028a1.98,1.98,0,0,1-.641.524,1.438,1.438,0,0,1-.2.088.268.268,0,0,1-.074.021l.069-.031c.045-.021.112-.052.195-.1a2,2,0,0,0,.617-.532l.036.028a.394.394,0,0,0,0,.458.458.458,0,0,0,.2.18.539.539,0,0,0,.29.036.864.864,0,0,0,.543-.335,2.568,2.568,0,0,0,.335-.648l.04-.1.024.1a1.569,1.569,0,0,0,.316.738.636.636,0,0,0,.358.183.4.4,0,0,0,.365-.14,1.041,1.041,0,0,0,.178-.494,3.29,3.29,0,0,0,.047-.524,8.016,8.016,0,0,0-.062-1c-.033-.32-.066-.624-.076-.911a3.863,3.863,0,0,1,.055-.8,2.153,2.153,0,0,1,.458-1.051A1.233,1.233,0,0,1,286.646,118.83Z" transform="translate(-271.953 -115.971)" fill="#455a64"/>
      <path id="Path_34702" data-name="Path 34702" d="M251.2,115.678l-.024.024c-.021.014-.045.036-.076.059a.928.928,0,0,1-.126.088,1.551,1.551,0,0,1-.183.107,2.731,2.731,0,0,1-1.31.294,3.474,3.474,0,0,1-1.9-.607,6.027,6.027,0,0,1-1.678-1.772c-.237-.363-.439-.738-.655-1.082a4.166,4.166,0,0,0-.728-.909,2.121,2.121,0,0,0-.911-.5,1.53,1.53,0,0,0-.475-.033,1.61,1.61,0,0,0-.425.1,1.806,1.806,0,0,0-.626.415,1.77,1.77,0,0,0-.327.475,2.21,2.21,0,0,0-.14.475v-.128a1.627,1.627,0,0,1,.1-.354,1.792,1.792,0,0,1,.325-.475,1.813,1.813,0,0,1,.636-.434,1.724,1.724,0,0,1,.439-.109,1.631,1.631,0,0,1,.489.031,2.178,2.178,0,0,1,.949.51,4.15,4.15,0,0,1,.745.921c.218.346.418.712.657,1.082a6.067,6.067,0,0,0,1.661,1.756,3.466,3.466,0,0,0,1.853.612,2.8,2.8,0,0,0,1.3-.268A4.582,4.582,0,0,0,251.2,115.678Z" transform="translate(-226.846 -110.23)" fill="#455a64"/>
      <path id="Path_34703" data-name="Path 34703" d="M243.95,124a.474.474,0,0,1-.107.081,2.3,2.3,0,0,1-.32.18,3.083,3.083,0,0,1-.51.192,3.357,3.357,0,0,1-1.326.1,3.021,3.021,0,0,1-.534-.114,2.276,2.276,0,0,1-.344-.131.513.513,0,0,1-.119-.064s.18.066.475.145a3.648,3.648,0,0,0,1.186.109,3.96,3.96,0,0,0,.648-.109,3.267,3.267,0,0,0,.505-.176C243.784,124.086,243.943,123.982,243.95,124Z" transform="translate(-219.375 -119.91)" fill="#455a64"/>
      <path id="Path_34704" data-name="Path 34704" d="M265.484,162.946c-.028-.076-.515.145-1.049-.116s-.712-.8-.783-.774-.043.157.05.377a1.333,1.333,0,0,0,.626.66,1.155,1.155,0,0,0,.866.066C265.394,163.086,265.5,162.977,265.484,162.946Z" transform="translate(-246.35 -148.94)" fill="#263238"/>
      <path id="Path_34705" data-name="Path 34705" d="M266.93,298.5c0-.149-1.661-10.865-2.287-12.231-.505-1.082-4.553-1.927-8.891-3.678a33.088,33.088,0,0,0-10.082-2.014l6.852,15.816Z" transform="translate(-243.536 -239.342)" fill="#00a99d"/>
      <path id="Path_34706" data-name="Path 34706" d="M239.745,260.35l3.955.294v3.782l-4.47.534Z" transform="translate(-218.778 -223.912)" fill="#ffbf9d"/>
      <path id="Path_34707" data-name="Path 34707" d="M252.3,197.88c-1.953.8-3.763,2.534-3.644,4.779.176,3.322.949,10.466,1.137,12.3.237,2.4,1.049,4.423,4.582,4.556a54.849,54.849,0,0,0,8.732-.726s1.872.949,2.389-.093c.135-.278,1.065-5.87,1.065-5.87a2.773,2.773,0,0,0-1.113-.935,1.566,1.566,0,0,0-2.057.634h0l-6.881-.225-1.364-6.478" transform="translate(-243.873 -176.265)" fill="#455a64"/>
      <path id="Path_34708" data-name="Path 34708" d="M254.928,205.834a.974.974,0,0,0,.017.112c.017.078.038.187.064.33.059.292.147.712.259,1.272.237,1.115.565,2.736.987,4.774v.028h.031l4.84.166,1.383.047.356.012h.318s.088-.05.047-.028h0l.024-.036a1.471,1.471,0,0,1,.491-.5,1.5,1.5,0,0,1,1.393-.107,2.982,2.982,0,0,1,.643.4,3.264,3.264,0,0,1,.289.254c.045.045.09.093.13.14s.04.05.059.074.038.066.036.055h0c-.218,1.3-.451,2.667-.712,4.081-.066.354-.133.712-.2,1.07-.036.178-.071.358-.114.536a.548.548,0,0,1-.092.237.819.819,0,0,1-.074.1l-.095.088a1.324,1.324,0,0,1-1.03.152,4.068,4.068,0,0,1-1.061-.351h-.038c-1.4.221-2.878.408-4.387.55-1.042.095-2.076.164-3.1.183a9.706,9.706,0,0,1-2.971-.282,3.917,3.917,0,0,1-1.274-.667,3.3,3.3,0,0,1-.885-1.091,7.331,7.331,0,0,1-.65-2.674c-.377-3.616-.712-6.881-.949-9.612-.059-.683-.109-1.336-.149-1.953-.021-.311-.04-.61-.036-.9,0-.145.028-.287.04-.425a3.321,3.321,0,0,1,.083-.406,4.216,4.216,0,0,1,.641-1.36,5.9,5.9,0,0,1,.842-.949,7.267,7.267,0,0,1,1.45-1c.178-.1.318-.159.413-.2l.14-.069s-.05.017-.145.057-.237.1-.42.192a7.107,7.107,0,0,0-1.471.985,6.129,6.129,0,0,0-.859.949,4.31,4.31,0,0,0-.657,1.376c-.028.135-.062.27-.088.411a3.209,3.209,0,0,0-.043.432,9.014,9.014,0,0,0,.031.906c.038.617.085,1.272.14,1.955.223,2.743.555,6,.925,9.617a7.426,7.426,0,0,0,.664,2.717,3.471,3.471,0,0,0,.913,1.132,4.1,4.1,0,0,0,1.314.688,9.84,9.84,0,0,0,3.009.289c1.018-.012,2.062-.088,3.106-.183,1.511-.142,2.99-.33,4.394-.553h-.038a4.343,4.343,0,0,0,1.1.363,1.443,1.443,0,0,0,1.115-.19l.109-.1a.735.735,0,0,0,.085-.121.69.69,0,0,0,.107-.273c.045-.183.078-.363.114-.543.066-.358.133-.712.2-1.07.254-1.424.475-2.783.712-4.083h0a.27.27,0,0,0-.057-.121c-.021-.026-.043-.055-.064-.078s-.09-.1-.138-.147a3.133,3.133,0,0,0-.3-.263,3.228,3.228,0,0,0-.669-.41,1.618,1.618,0,0,0-2.014.65l-.026.04h0c-.04.024.057-.031.045-.024h-.308l-.356-.012-1.383-.043-4.84-.149.038.031c-.437-2.033-.783-3.652-1.023-4.764l-.278-1.269c-.033-.142-.057-.249-.074-.327Z" transform="translate(-243.663 -176.272)" fill="#263238"/>
      <path id="Path_34709" data-name="Path 34709" d="M296.66,200.158c-.014.017.237.261.593.712a8.648,8.648,0,0,1,1.108,1.924,9.658,9.658,0,0,1,.607,2.135c.095.562.114.918.138.916a1.066,1.066,0,0,0,0-.249,6.613,6.613,0,0,0-.055-.681,8.559,8.559,0,0,0-.581-2.173,8.289,8.289,0,0,0-.565-1.106,7.482,7.482,0,0,0-.589-.826,5.864,5.864,0,0,0-.475-.5A.9.9,0,0,0,296.66,200.158Z" transform="translate(-287.818 -178.002)" fill="#263238"/>
      <path id="Path_34710" data-name="Path 34710" d="M290.884,261.689c.021,0,.074-.237.237-.6a3.929,3.929,0,0,1,2.161-2.052c.368-.14.612-.18.607-.2s-.062,0-.173,0a2.467,2.467,0,0,0-.463.109,3.292,3.292,0,0,0-.645.289,3.937,3.937,0,0,0-.7.517,4,4,0,0,0-.553.667,3.356,3.356,0,0,0-.32.629,2.371,2.371,0,0,0-.133.456C290.881,261.627,290.874,261.687,290.884,261.689Z" transform="translate(-281.223 -222.753)" fill="#263238"/>
      <path id="Path_34711" data-name="Path 34711" d="M262.413,265.74c.019,0-.076-.339-.154-.895a13.5,13.5,0,0,1-.121-2.176,11.306,11.306,0,0,1,.095-1.186,7.337,7.337,0,0,1,.2-.949c.154-.536.339-.833.318-.845a.962.962,0,0,0-.135.2,1.755,1.755,0,0,0-.128.259,2.607,2.607,0,0,0-.138.356,6.17,6.17,0,0,0-.237.966,9.784,9.784,0,0,0-.107,1.21,10.816,10.816,0,0,0,.159,2.192,5.95,5.95,0,0,0,.152.65A1.031,1.031,0,0,0,262.413,265.74Z" transform="translate(-243.236 -223.409)" fill="#263238"/>
      <path id="Path_34712" data-name="Path 34712" d="M161.221,216.886a1.414,1.414,0,0,0-.8-.776s-2.648.712-3.421,1.557c0,0-.154-.6-1.576-1.813a6.361,6.361,0,0,0-3.766-1.514l-1.407.885,5.64,3.951,1.678.586Z" transform="translate(-115.187 -188.819)" fill="#fafafa"/>
      <path id="Path_34713" data-name="Path 34713" d="M161.342,216.718a.474.474,0,0,0-.071.047l-.2.149-.74.567-2.674,2.067h.045l-1.675-.591h0l-5.559-3.917-.064-.045v.1c.475-.3.949-.6,1.407-.885h-.033a6.321,6.321,0,0,1,3.246,1.127,9.286,9.286,0,0,1,1.186,1.023,6.2,6.2,0,0,1,.493.548,2.37,2.37,0,0,1,.358.579l.028.076.055-.055a3.478,3.478,0,0,1,.949-.645,9.631,9.631,0,0,1,.949-.413,15.7,15.7,0,0,1,1.514-.508h-.012a1.208,1.208,0,0,1,.641.517,2.149,2.149,0,0,1,.116.187c.026.043.036.064.038.064a.216.216,0,0,0-.026-.071,1.814,1.814,0,0,0-.107-.195,1.215,1.215,0,0,0-.662-.534h-.014c-.41.109-.928.263-1.526.486a9.85,9.85,0,0,0-.949.4,3.675,3.675,0,0,0-.975.657l.083.021a2.353,2.353,0,0,0-.373-.619,6.325,6.325,0,0,0-.5-.558,9.522,9.522,0,0,0-1.208-1.03,6.406,6.406,0,0,0-3.322-1.158h-.033l-1.407.883-.078.05.076.055.064.045,5.592,3.9h0l1.68.579h.024l.021-.017,2.662-2.135.712-.581.185-.152a.332.332,0,0,0,.076-.026Z" transform="translate(-115.308 -188.651)" fill="#263238"/>
      <path id="Path_34714" data-name="Path 34714" d="M169.03,219.151l-.159-.32-3.972,2.211s-1.305-.081-1.331-.949c0,0-6.5-2.719-6.663-2.638s-10.575,8.732-10.575,8.732l9.408,2,4.354-1.927Z" transform="translate(-122.065 -191.193)" fill="#00a99d"/>
      <path id="Path_34715" data-name="Path 34715" d="M163.689,239.2c.021.026,1.822-1.436,4.034-3.263s3.962-3.322,3.941-3.357-1.822,1.424-4.022,3.263S163.668,239.169,163.689,239.2Z" transform="translate(-128.819 -202.729)" fill="#263238"/>
      <path id="Path_34716" data-name="Path 34716" d="M169.7,236.464c.024.026,2.074-1.685,4.579-3.82s4.508-3.889,4.508-3.915-2.071,1.685-4.579,3.822S169.688,236.438,169.7,236.464Z" transform="translate(-137.368 -199.794)" fill="#263238"/>
      <path id="Path_34717" data-name="Path 34717" d="M168.876,240.034c.026,0,.913-.085,1.125.3a.919.919,0,0,1,.152.828,4.075,4.075,0,0,1-.513.712l-.152.28a1.687,1.687,0,0,1,.142,1.049,1.559,1.559,0,0,1-.574.757s-.071,1.156-.773,1.165a.876.876,0,0,1-.826.638,2.884,2.884,0,0,1-1.687-.221c-.717-.37-1.547-.74-1.73-1.11s.456-.41.456-.41-.346-.949.771-.826c0,0-.126-.985.591-1.1a13.651,13.651,0,0,1,2.173-.031l.574-.693s-.418-.119-.441-.489A.9.9,0,0,1,168.876,240.034Z" transform="translate(-127.429 -208.411)" fill="#ffbf9d"/>
      <path id="Path_34718" data-name="Path 34718" d="M193.681,248.078a3.732,3.732,0,0,0,1.507.335c.574-.074,5.025-2.51,5.671-2.7s1.746,0,.949.838a25.2,25.2,0,0,1-3.279,2.273,3.211,3.211,0,0,0-.145.463l2.489-.949s1.82-.909,2.107-.358-.145.861-.6,1l-.949.3a5.077,5.077,0,0,1-1.051,1.355c-.524.382-2.921,1.915-3.322,2.083a45.27,45.27,0,0,1-5.407.475c-.095-.076,0-3.661,0-3.661l1.723-1.554Z" transform="translate(-166.851 -212.694)" fill="#ffbf9d"/>
    </g>
  </g>
</svg>
