<svg xmlns="http://www.w3.org/2000/svg" width="533" height="310.448" viewBox="0 0 533 310.448">
  <g id="Group_70395" data-name="Group 70395" transform="translate(-225 -590.731)">
    <g id="Group_70015" data-name="Group 70015" transform="translate(86 66.179)">
      <path id="Path_40508" data-name="Path 40508" d="M-761.207-2328.748s-79.324-177.7,0-178.625,102.518,81.246,113.969,0,46.714-131.046,66.35-97.46-2.878,92.322,37,97.46,70.778-77.028,116.564-31.46,31.392,68.923,60.579,77.131,86.094,12.375,73.042,79.36-40.627,51.408-36.319,53.594-17.236,0-17.236,0l-387.5,7.692Z" transform="translate(940 3140)" fill="#fff"/>
      <g id="Group_70014" data-name="Group 70014" transform="translate(0 -20)">
        <ellipse id="Ellipse_817" data-name="Ellipse 817" cx="252" cy="22.5" rx="252" ry="22.5" transform="translate(139 810)" fill="#e6e6e6"/>
        <g id="Secure_login-pana_1_" data-name="Secure login-pana(1)" transform="translate(181.4 432.765)">
          <g id="freepik--Table--inject-75" transform="translate(24.6 397.536)">
            <path id="Path_40399" data-name="Path 40399" d="M394.308,465.649c0,.126-82.771.219-184.845.219S24.6,465.775,24.6,465.649s82.755-.219,184.862-.219S394.308,465.531,394.308,465.649Z" transform="translate(-24.6 -465.43)" fill="#263238"/>
          </g>
          <g id="freepik--Plant--inject-75" transform="translate(33.623 256.455)">
            <path id="Path_40425" data-name="Path 40425" d="M71.328,401.716s-22.26-25.622-30.66-51.243-4.415-22.681-4.415-22.681S47.594,352.68,56.2,364.7,80.15,394.36,80.15,394.36Z" transform="translate(-35.309 -302.661)" fill="#455a64"/>
            <path id="Path_40426" data-name="Path 40426" d="M82.867,332.417a1.3,1.3,0,0,0-2.41.843c1.356,9.007,4.289,30.121,4.213,43.812-.143,17.794,0,24.67,0,24.67h9.268s-1.685-36.785-3.741-48.025C88.7,345.873,85.58,337.144,82.867,332.417Z" transform="translate(-42.415 -303.302)" fill="#455a64"/>
            <path id="Path_40427" data-name="Path 40427" d="M89.32,398.149a98.114,98.114,0,0,0,7.625-27.661c.758-6.547-.6-15.4-2.62-27.214a72.653,72.653,0,0,1-1.171-13.093,2.207,2.207,0,0,1,4.145-1.036c1.121,2,4.356,8.813,5.182,13.085,2.241,11.661,4.777,17.491,2.839,28.562S96.2,398.9,96.2,398.9Z" transform="translate(-43.813 -302.709)" fill="#455a64"/>
            <path id="Path_40428" data-name="Path 40428" d="M99.22,396.248s24.434-52.524,26.119-60.318,7.457-25.748,8.131-24.729,1.685,10.5-2.7,21.342-23.212,65.305-23.212,65.305H99.22" transform="translate(-45.372 -300.058)" fill="#455a64"/>
            <path id="Path_40429" data-name="Path 40429" d="M78.2,396.626a4.356,4.356,0,0,1-.682-.472c-.438-.329-1.1-.792-1.9-1.441-1.626-1.281-3.909-3.227-6.572-5.8a110.372,110.372,0,0,1-17.693-22.749,149.291,149.291,0,0,1-12.107-26.22c-1.23-3.488-2.123-6.344-2.7-8.324-.3-.994-.506-1.769-.649-2.292a4.921,4.921,0,0,1-.194-.843,4.82,4.82,0,0,1,.295.775c.185.565.43,1.323.741,2.266.64,1.963,1.592,4.794,2.856,8.265A159.289,159.289,0,0,0,51.8,365.874a115.429,115.429,0,0,0,17.542,22.749c2.62,2.6,4.853,4.583,6.437,5.9.784.674,1.424,1.163,1.828,1.517a5.137,5.137,0,0,1,.59.59Z" transform="translate(-35.37 -302.787)" fill="#263238"/>
            <path id="Path_40430" data-name="Path 40430" d="M88.149,372.163a7.39,7.39,0,0,1-.219-1.542c-.118-1.087-.27-2.528-.455-4.213-.388-3.556-.994-8.425-1.854-13.843s-1.828-10.228-2.578-13.717c-.362-1.685-.657-3.075-.893-4.145a8.562,8.562,0,0,1-.27-1.533,9.032,9.032,0,0,1,.472,1.483c.27.969.632,2.368,1.053,4.112.843,3.48,1.862,8.324,2.73,13.725S87.55,362.8,87.82,366.375c.143,1.778.244,3.227.286,4.213a9.487,9.487,0,0,1,.042,1.576Z" transform="translate(-42.642 -303.524)" fill="#263238"/>
            <path id="Path_40431" data-name="Path 40431" d="M95.649,328.87a3.27,3.27,0,0,1,.286.666l.733,1.955c.329.843.7,1.887,1.053,3.126s.843,2.62,1.188,4.213l.607,2.469c.2.843.345,1.769.531,2.7.4,1.862.649,3.884.944,6.007a97.989,97.989,0,0,1,.59,13.919A97.9,97.9,0,0,1,100,377.78c-.447,2.09-.843,4.095-1.365,5.9-.261.918-.472,1.82-.733,2.662l-.784,2.46c-.463,1.55-1.036,2.907-1.483,4.112a26.873,26.873,0,0,1-1.272,3.042l-.843,1.9a3.321,3.321,0,0,1-.337.64,3.832,3.832,0,0,1,.236-.682c.2-.489.463-1.129.784-1.929s.767-1.854,1.18-3.075.969-2.528,1.415-4.12c.236-.767.48-1.576.741-2.418s.455-1.736.7-2.654c.506-1.828.843-3.817,1.314-5.9a102.539,102.539,0,0,0,1.533-13.776,102.453,102.453,0,0,0-.539-13.843c-.286-2.115-.514-4.128-.893-5.99-.177-.927-.312-1.837-.506-2.7s-.388-1.685-.573-2.469c-.329-1.576-.775-2.966-1.1-4.213s-.674-2.292-.969-3.151l-.632-1.98a3.827,3.827,0,0,1-.219-.725Z" transform="translate(-44.421 -302.847)" fill="#263238"/>
            <path id="Path_40432" data-name="Path 40432" d="M133.956,312.46a1,1,0,0,1,0,.236,5.856,5.856,0,0,1-.11.682c-.11.6-.244,1.483-.48,2.612a94.92,94.92,0,0,1-2.528,9.453c-1.264,3.943-2.881,8.577-4.861,13.658s-4.263,10.624-6.437,16.522-3.9,11.635-5.493,16.851-3.084,9.9-4.533,13.767a87.366,87.366,0,0,1-3.834,8.99c-.5,1.036-.952,1.811-1.239,2.351l-.345.6c-.076.135-.118.2-.126.194a.708.708,0,0,1,.084-.219l.295-.623c.261-.548.682-1.34,1.154-2.393.977-2.081,2.309-5.14,3.69-9.024s2.865-8.552,4.415-13.776,3.261-10.953,5.468-16.851,4.482-11.45,6.479-16.522,3.7-9.664,4.963-13.59,2.1-7.145,2.629-9.386c.27-1.121.438-2,.581-2.6.059-.27.118-.489.16-.666A.767.767,0,0,1,133.956,312.46Z" transform="translate(-46.12 -300.263)" fill="#263238"/>
            <path id="Path_40433" data-name="Path 40433" d="M49.444,298.579a2.1,2.1,0,0,0-3.463,2.14,59.947,59.947,0,0,0,3.067,7.9c3.37,7.136,13.228,32.758,17.853,46.828S78,395.774,78,395.774l9.866-1.6s-9.024-43.1-17.811-58.675C62.967,323.012,55.873,304.965,49.444,298.579Z" transform="translate(-36.974 -297.983)" fill="#455a64"/>
            <path id="Path_40434" data-name="Path 40434" d="M74,376.64a5.521,5.521,0,0,1,.514,1.18c.286.775.691,1.9,1.137,3.311.91,2.814,2.022,6.74,3.134,11.113s2.056,8.35,2.7,11.231c.295,1.356.539,2.528.741,3.412a6.513,6.513,0,0,1,.2,1.272,6.317,6.317,0,0,1-.4-1.222c-.236-.9-.539-2.031-.9-3.37-.758-2.966-1.744-6.867-2.848-11.181s-2.165-8.307-2.983-11.138c-.388-1.34-.716-2.46-.977-3.37A6.429,6.429,0,0,1,74,376.64Z" transform="translate(-41.401 -310.368)" fill="#263238"/>
            <path id="Path_40435" data-name="Path 40435" d="M83.2,395.054a1.045,1.045,0,0,1-.051-.261,5.839,5.839,0,0,0-.118-.775c-.1-.682-.194-1.685-.4-2.991-.362-2.6-1-6.327-2.064-10.886a157.086,157.086,0,0,0-4.617-15.756c-2.031-5.847-4.567-12.166-7.44-18.7-5.805-13.051-11.6-24.636-15.419-33.2-1.921-4.28-3.37-7.76-4.4-10.195-.5-1.213-.843-2.165-1.1-2.806-.118-.295-.2-.539-.278-.733a.952.952,0,0,1-.076-.261,1.136,1.136,0,0,1,.126.236l.32.716c.295.674.691,1.6,1.2,2.772,1.036,2.4,2.578,5.9,4.541,10.111,3.893,8.5,9.748,20.069,15.562,33.146,2.873,6.547,5.409,12.882,7.414,18.755a149.131,149.131,0,0,1,4.524,15.84,109.7,109.7,0,0,1,1.9,10.953c.177,1.3.236,2.317.312,3l.059.784a1.1,1.1,0,0,1,0,.253Z" transform="translate(-37.186 -298.063)" fill="#263238"/>
            <path id="Path_40436" data-name="Path 40436" d="M93.731,404.4a10.826,10.826,0,0,1-.337-1.685c-.194-1.154-.455-2.688-.767-4.533-.674-3.825-1.685-9.091-3.21-14.82s-3.143-10.81-4.423-14.475c-.623-1.769-1.146-3.227-1.542-4.331a10.454,10.454,0,0,1-.522-1.609,10.112,10.112,0,0,1,.716,1.533c.421,1,1.019,2.46,1.685,4.28a143.241,143.241,0,0,1,4.583,14.5,150.306,150.306,0,0,1,3.075,14.888c.278,1.921.489,3.48.6,4.567A11.239,11.239,0,0,1,93.731,404.4Z" transform="translate(-42.807 -308.213)" fill="#263238"/>
            <rect id="Rectangle_19974" data-name="Rectangle 19974" width="38.513" height="46.921" transform="translate(32.666 94.775)" fill="#00a99d"/>
            <g id="Group_70008" data-name="Group 70008" transform="translate(32.666 94.775)" opacity="0.3">
              <rect id="Rectangle_19975" data-name="Rectangle 19975" width="38.513" height="46.921"/>
            </g>
            <rect id="Rectangle_19976" data-name="Rectangle 19976" width="34.165" height="46.921" transform="translate(24.721 94.775)" fill="#00a99d"/>
          </g>
          <g id="freepik--Character--inject-75" transform="translate(124.468 135.038)">
            <path id="Path_40437" data-name="Path 40437" d="M373.433,286.022l-20.246-2.932-40.5,5.99L301.32,293.1l2.014,24.855,38.942,7.17,26.27-7.785,9.934-14.618Z" transform="translate(-168.039 -174.221)" fill="#ffbe9d"/>
            <path id="Path_40438" data-name="Path 40438" d="M382.814,288.644l-16.952-3.994s-11.973,37.072-41.537,35.446c-24.1-1.306-24.375-28.2-24.375-28.2l-17.365,5.561s-6.648,44.545.708,76.107c1.685,7.372,4.019,17.306,4.019,17.306l-2.351,46.112,128.437.2-30.584-148.54Z" transform="translate(-164.655 -174.467)" fill="#00a99d"/>
            <g id="Group_70009" data-name="Group 70009" transform="translate(167.808 242.757)" opacity="0.3">
              <path id="Path_40439" data-name="Path 40439" d="M342.3,452.81c6.252-.16,12.015.371,18.266.219,7.5-.185,15.056-.371,22.462.843,5.544.918,10.953,2.6,16.5,3.48,7.583,1.2,15.663.775,22.4-2.873l-1.087-6.294L395.245,442Z" transform="translate(-342.3 -442)"/>
            </g>
            <path id="Path_40440" data-name="Path 40440" d="M260.1,310.162c5.9-7.583,15.638-10.742,15.638-10.742l6.572,57.2-12.444,83.294L229.1,439.72S251.579,321.158,260.1,310.162Z" transform="translate(-156.668 -176.793)" fill="#00a99d"/>
            <path id="Path_40441" data-name="Path 40441" d="M398.368,288.89s27.433,2.2,37.274,47.182c4.449,20.331,10.111,44.149,11.7,60.166,1.171,11.61-5.139,29.792-16.716,31.284l-14.559,1.955a24.054,24.054,0,0,1-8.577-.312c-9.192-2.115-10.111-8.425-11.8-15.166l-4.213-13.413c-2.325-12.756,9.563-15.166,16.126-14.989l-4.9-58.228Z" transform="translate(-182.19 -175.135)" fill="#00a99d"/>
            <path id="Path_40442" data-name="Path 40442" d="M280.191,337.17a2.979,2.979,0,0,0-.126.623c-.067.455-.16,1.062-.278,1.811-.051.4-.118.843-.185,1.314s-.1,1-.16,1.567c-.118,1.121-.253,2.4-.312,3.825a96.721,96.721,0,0,0-.067,10,122.079,122.079,0,0,0,1.213,12.175c.632,4.305,1.424,8.366,2.233,12.04s1.592,6.968,2.283,9.731,1.272,4.979,1.685,6.513c.2.733.362,1.323.489,1.761a2.974,2.974,0,0,0,.2.607,3.133,3.133,0,0,0-.118-.623c-.1-.455-.236-1.045-.4-1.786-.379-1.592-.91-3.817-1.567-6.547s-1.415-6.066-2.182-9.74-1.567-7.726-2.191-12.015-1.062-8.425-1.247-12.141a86.879,86.879,0,0,1,0-9.959c.042-1.424.152-2.7.244-3.825q.059-.843.126-1.567c.051-.472.1-.91.143-1.314.084-.75.152-1.356.194-1.82a3.231,3.231,0,0,0,.025-.632Z" transform="translate(-164.519 -182.737)" fill="#263238"/>
            <path id="Path_40443" data-name="Path 40443" d="M432.185,419.387a4.938,4.938,0,0,0-.194-1.154,18.382,18.382,0,0,0-1.062-2.957,20.162,20.162,0,0,0-16.1-11.72,17.691,17.691,0,0,0-3.143-.1,5.139,5.139,0,0,0-1.146.143,37.617,37.617,0,0,1,4.213.261A20.8,20.8,0,0,1,430.618,415.4a40.851,40.851,0,0,1,1.567,3.985Z" transform="translate(-185.237 -193.169)" fill="#263238"/>
            <path id="Path_40444" data-name="Path 40444" d="M425.874,395.778a2.114,2.114,0,0,0-.666-.059,13.977,13.977,0,0,0-1.812.084,20.785,20.785,0,0,0-5.788,1.449,21.275,21.275,0,0,0-5.14,3.042,14.643,14.643,0,0,0-1.34,1.213c-.295.312-.446.489-.43.514s.741-.59,1.963-1.483a24.19,24.19,0,0,1,10.776-4.432C424.93,395.888,425.874,395.854,425.874,395.778Z" transform="translate(-185.262 -191.955)" fill="#263238"/>
            <path id="Path_40445" data-name="Path 40445" d="M394.977,321.308a6.225,6.225,0,0,0,.067-1.2c0-.775.051-1.887.143-3.261a52.355,52.355,0,0,1,5.78-20.575c.632-1.222,1.18-2.2,1.576-2.856a6.219,6.219,0,0,0,.565-1.062,6.352,6.352,0,0,0-.716.969,32.693,32.693,0,0,0-1.685,2.806,47.452,47.452,0,0,0-5.814,20.71c-.051,1.382-.051,2.528,0,3.278A5.81,5.81,0,0,0,394.977,321.308Z" transform="translate(-182.767 -175.68)" fill="#263238"/>
            <path id="Path_40446" data-name="Path 40446" d="M332.64,375.15a1.827,1.827,0,0,0,.118.472c.1.3.227.767.455,1.323a27.447,27.447,0,0,0,2.283,4.626,29.733,29.733,0,0,0,29.127,13.986,28.38,28.38,0,0,0,5.055-1.1c.581-.177,1.02-.371,1.314-.48a2.522,2.522,0,0,0,.447-.194c0-.042-.649.177-1.811.506a30.538,30.538,0,0,1-33.879-12.874,31.944,31.944,0,0,1-2.393-4.524A11.389,11.389,0,0,0,332.64,375.15Z" transform="translate(-172.971 -188.717)" fill="#263238"/>
            <path id="Path_40447" data-name="Path 40447" d="M401.26,448.147c.042-.042.472.573,1.5,1.415a13.776,13.776,0,0,0,5.055,2.393,26.567,26.567,0,0,0,8.257.733c3.134-.227,6.6-.6,10.186-1.129a52.24,52.24,0,0,0,9.942-2.292,12.637,12.637,0,0,0,3.648-2.435,18.943,18.943,0,0,0,2.528-2.907,27.477,27.477,0,0,0,2.806-4.861c.261-.615.463-1.087.59-1.415a1.92,1.92,0,0,1,.219-.489,3.46,3.46,0,0,1-.135.514c-.1.345-.278.843-.522,1.458a24.621,24.621,0,0,1-2.7,4.979,18.82,18.82,0,0,1-2.528,2.983,12.739,12.739,0,0,1-3.741,2.528,49.547,49.547,0,0,1-10.026,2.351c-3.615.539-7.069.893-10.228,1.1a26.537,26.537,0,0,1-8.366-.843,13.48,13.48,0,0,1-5.055-2.528,8.073,8.073,0,0,1-1.07-1.121A2.208,2.208,0,0,1,401.26,448.147Z" transform="translate(-183.776 -198.481)" fill="#263238"/>
            <path id="Path_40448" data-name="Path 40448" d="M395.889,343.72c.11,0,3.008,11.2,6.454,25.082s6.151,25.158,6.033,25.192-3.008-11.206-6.454-25.091S395.771,343.745,395.889,343.72Z" transform="translate(-182.929 -183.768)" fill="#263238"/>
            <path id="Path_40449" data-name="Path 40449" d="M391.7,416.551a3.437,3.437,0,0,1-.143-.927,16.51,16.51,0,0,1-.059-2.528,7.491,7.491,0,0,1,1.239-3.6,10.7,10.7,0,0,1,1.407-1.769,9.916,9.916,0,0,1,1.946-1.449,24.668,24.668,0,0,1,7.987-2.578,22.433,22.433,0,0,1,2.528-.219,3.186,3.186,0,0,1,.935,0c0,.067-1.323.118-3.421.5a26.607,26.607,0,0,0-7.819,2.646,9.77,9.77,0,0,0-1.87,1.382,10.582,10.582,0,0,0-1.365,1.685,7.255,7.255,0,0,0-1.264,3.37,21.547,21.547,0,0,0-.076,2.528,4.155,4.155,0,0,1-.025.96Z" transform="translate(-182.234 -193.173)" fill="#263238"/>
            <g id="Group_70010" data-name="Group 70010" transform="translate(111.487 152.605)" opacity="0.3">
              <path id="Path_40450" data-name="Path 40450" d="M280.9,374.6c-7-11.855-7.153-27.256-1.045-39.6a111.013,111.013,0,0,0,1.247,39.549" transform="translate(-275.453 -335)"/>
            </g>
            <path id="Path_40451" data-name="Path 40451" d="M325.89,417.08h.051Z" transform="translate(-171.908 -195.319)" fill="#ffbe9d"/>
            <path id="Path_40452" data-name="Path 40452" d="M326.25,417.25l.11.051Z" transform="translate(-171.965 -195.346)" fill="#ffbe9d"/>
            <path id="Path_40453" data-name="Path 40453" d="M326,417.11l.253.118Z" transform="translate(-171.925 -195.324)" fill="#ffbe9d"/>
            <path id="Path_40454" data-name="Path 40454" d="M325.76,417l.11.051Z" transform="translate(-171.888 -195.307)" fill="#ffbe9d"/>
            <path id="Path_40455" data-name="Path 40455" d="M294.959,440.271c2.207-4.162,19.421-15.166,19.421-15.166l-4.659-1.078-5.148,2.174a12.638,12.638,0,0,1-2.216,4.819c-1.887,2.7-5.1-.093-5.1-.093l2.174-10.422,10.178-6.125s9.571,1.466,11.122,2.207l4.078,3.732c1.795,1.407,6.968,6.943,8.383,7.111s45.876-9.816,45.876-9.816h0c6.092,4.828,9.268,14.407,10.262,21.325,0,0,1.087,3.37-.093,5.241l-54.538,4.28-11.56,3.193a81.847,81.847,0,0,1-9.5,3.261c-3.842.843-6.429-.43-6.538-2.528s2.882-2.359,2.882-2.359a58.138,58.138,0,0,0,7.431-3.269,13.034,13.034,0,0,0,4.213-4.6l-4.12.489s-8.762,6.083-12.057,7.869-3.943-1.491-4.213-2.528,9.841-10.877,9.841-10.877-9.613,5.9-11.341,7.414-4.289,1.946-4.836.944S292.76,444.433,294.959,440.271Z" transform="translate(-166.86 -194.894)" fill="#ffbe9d"/>
            <path id="Path_40456" data-name="Path 40456" d="M326.38,417.31l.093.051Z" transform="translate(-171.985 -195.355)" fill="#ffbe9d"/>
            <path id="Path_40457" data-name="Path 40457" d="M326.56,417.4Z" transform="translate(-172.013 -195.37)" fill="#ffbe9d"/>
            <path id="Path_40458" data-name="Path 40458" d="M326.49,417.37h.059Z" transform="translate(-172.002 -195.365)" fill="#ffbe9d"/>
            <path id="Path_40459" data-name="Path 40459" d="M349.715,443.674a2.369,2.369,0,0,0,.051-.674,3.946,3.946,0,0,0-.051-.792,5.954,5.954,0,0,0-.194-1.036,14.8,14.8,0,0,0-2.789-5.384,31.175,31.175,0,0,0-4.213-4.364,12.106,12.106,0,0,0-1.98-1.533,21.241,21.241,0,0,0,1.786,1.744,40.145,40.145,0,0,1,4.078,4.406,15.849,15.849,0,0,1,2.831,5.207C349.673,442.713,349.631,443.682,349.715,443.674Z" transform="translate(-174.215 -197.336)" fill="#eb996e"/>
            <path id="Path_40460" data-name="Path 40460" d="M318.69,426.4a6.319,6.319,0,0,0,5.434-1.828c-.067-.093-1.121.691-2.629,1.18S318.69,426.279,318.69,426.4Z" transform="translate(-170.774 -196.497)" fill="#eb996e"/>
            <path id="Path_40461" data-name="Path 40461" d="M315.29,439.619a54.193,54.193,0,0,0,8.611-3.539,26.315,26.315,0,0,0-4.381,1.584A27.469,27.469,0,0,0,315.29,439.619Z" transform="translate(-170.239 -198.311)" fill="#eb996e"/>
            <path id="Path_40462" data-name="Path 40462" d="M326.25,446.876a10.109,10.109,0,0,0,2.241-.8,9.911,9.911,0,0,0,2.191-.935,8.864,8.864,0,0,0-4.432,1.736Z" transform="translate(-171.965 -199.737)" fill="#eb996e"/>
            <path id="Path_40463" data-name="Path 40463" d="M317,441.176a9.539,9.539,0,0,1,1.685,1.483,9.343,9.343,0,0,1,.977,2.039c.051,0,.1-.278,0-.716a3.648,3.648,0,0,0-.691-1.567,3.606,3.606,0,0,0-1.323-1.078C317.27,441.151,317,441.134,317,441.176Z" transform="translate(-170.508 -199.11)" fill="#eb996e"/>
            <path id="Path_40464" data-name="Path 40464" d="M312.179,433.626c-.059.1.7.514,1.2,1.382a10.951,10.951,0,0,1,.615,1.727,2.047,2.047,0,0,0-.278-1.955C313.148,433.8,312.2,433.516,312.179,433.626Z" transform="translate(-169.749 -197.921)" fill="#eb996e"/>
            <path id="Path_40465" data-name="Path 40465" d="M313.625,419.431c.051,0,.2-.169.329-.548a2.991,2.991,0,0,0,0-1.517,2.933,2.933,0,0,0-.725-1.331c-.278-.278-.505-.379-.539-.337a7.95,7.95,0,0,1,.843,1.769,7.263,7.263,0,0,1,.093,1.963Z" transform="translate(-169.83 -195.1)" fill="#eb996e"/>
            <path id="Path_40466" data-name="Path 40466" d="M405.505,446.228a7.827,7.827,0,0,1-.067-1.255,13.669,13.669,0,0,0-.059-1.466c-.059-.573-.051-1.222-.135-1.929a43.232,43.232,0,0,0-2.384-10.953,39.249,39.249,0,0,0-2.578-5.595c-.506-.843-.944-1.592-1.449-2.275-.236-.345-.472-.674-.7-.994a7.422,7.422,0,0,0-.7-.843c-1.811-2.233-3.2-3.37-3.134-3.438a5.754,5.754,0,0,1,.977.784,12.482,12.482,0,0,1,1.078,1.02c.4.413.843.843,1.323,1.432.227.286.472.573.725.843a11.294,11.294,0,0,1,.733.994c.522.682.977,1.474,1.491,2.283a36.6,36.6,0,0,1,2.646,5.645,40.122,40.122,0,0,1,2.283,11.054c.059.716.051,1.373.067,1.946s0,1.07,0,1.474A6.288,6.288,0,0,1,405.505,446.228Z" transform="translate(-182.679 -195.382)" fill="#263238"/>
            <g id="Group_70011" data-name="Group 70011" transform="translate(225.379 209.803)" opacity="0.3">
              <path id="Path_40467" data-name="Path 40467" d="M426.79,404.962a27.4,27.4,0,0,0-16.16-1.474h0a22.353,22.353,0,0,1,21.813,14.1c.388,1.045,1.163,2.283,2.275,2.123s1.415-1.449,1.415-2.486C436.142,411.779,431.82,407.06,426.79,404.962Z" transform="translate(-410.63 -402.888)"/>
            </g>
            <path id="Path_40468" data-name="Path 40468" d="M277.1,330.452a2.648,2.648,0,0,1-.725-.244c-.463-.177-1.112-.472-1.9-.843a39.885,39.885,0,0,1-5.9-3.614,40.442,40.442,0,0,1-5.173-4.55c-.607-.64-1.087-1.18-1.39-1.559s-.472-.607-.447-.632.792.758,2.056,1.972a53.527,53.527,0,0,0,5.215,4.423,52.6,52.6,0,0,0,5.755,3.682C276.169,329.955,277.147,330.393,277.1,330.452Z" transform="translate(-161.778 -179.877)" fill="#fff"/>
            <path id="Path_40469" data-name="Path 40469" d="M377.343,336.36a.943.943,0,0,1-.211.143l-.649.388c-.565.345-1.424.843-2.528,1.4a70.77,70.77,0,0,1-9.816,4.137,94.487,94.487,0,0,1-15.36,3.69,149.063,149.063,0,0,1-19.277,1.6c-6.867.16-13.4,0-19.378-.1a129.1,129.1,0,0,1-15.756-1.188,61.134,61.134,0,0,1-10.38-2.41c-1.188-.4-2.106-.741-2.713-1l-.691-.295a1.239,1.239,0,0,1-.236-.11l.253.067.708.253c.615.236,1.542.548,2.738.927a66.658,66.658,0,0,0,10.363,2.266,135.638,135.638,0,0,0,15.722,1.087c5.9.11,12.47.227,19.319.067a151.407,151.407,0,0,0,19.227-1.567,96.115,96.115,0,0,0,15.326-3.581,76.266,76.266,0,0,0,9.841-3.994c1.121-.556,1.988-1,2.528-1.323l.666-.345A1.594,1.594,0,0,1,377.343,336.36Z" transform="translate(-164.737 -182.609)" fill="#fff"/>
            <path id="Path_40470" data-name="Path 40470" d="M275.526,370.548a4.651,4.651,0,0,1-1.045-.219l-2.806-.767c-2.359-.666-5.611-1.618-9.2-2.688s-6.825-2.073-9.167-2.814l-2.764-.893a5.8,5.8,0,0,1-.994-.388,4.647,4.647,0,0,1,1.045.219l2.806.767c2.359.666,5.611,1.618,9.2,2.688s6.825,2.064,9.167,2.806l2.764.9a5.055,5.055,0,0,1,.994.388Z" transform="translate(-159.888 -186.769)" fill="#fff"/>
            <path id="Path_40471" data-name="Path 40471" d="M276.291,425.175c0,.11-8.425-2.3-18.789-5.392s-18.7-5.7-18.662-5.814,8.425,2.292,18.789,5.392S276.325,425.057,276.291,425.175Z" transform="translate(-158.201 -194.829)" fill="#fff"/>
            <path id="Path_40472" data-name="Path 40472" d="M422.811,307.69a5.831,5.831,0,0,1-.927.733c-.607.447-1.517,1.07-2.654,1.811a90.421,90.421,0,0,1-19.016,9.344c-1.281.447-2.325.784-3.058.994a5.682,5.682,0,0,1-1.146.286,6.512,6.512,0,0,1,1.1-.447l3.008-1.121c2.528-.969,5.99-2.4,9.7-4.213s6.959-3.682,9.268-5.1l2.73-1.685A5.973,5.973,0,0,1,422.811,307.69Z" transform="translate(-182.949 -178.095)" fill="#fff"/>
            <path id="Path_40473" data-name="Path 40473" d="M440.744,364.51a10.426,10.426,0,0,1-1.365.649c-.885.4-2.2.918-3.834,1.517a89.032,89.032,0,0,1-26.6,5.291c-1.744.076-3.151.093-4.128.059a11.316,11.316,0,0,1-1.508-.067,9.066,9.066,0,0,1,1.508-.1c.969,0,2.376-.084,4.112-.2a103.32,103.32,0,0,0,13.439-1.744,104.838,104.838,0,0,0,13.085-3.522c1.643-.565,2.966-1.045,3.876-1.39a8.761,8.761,0,0,1,1.415-.489Z" transform="translate(-184.098 -187.042)" fill="#fff"/>
            <path id="Path_40474" data-name="Path 40474" d="M417.033,447.283a1.82,1.82,0,0,1,.042-.472c.051-.345.126-.784.211-1.323s.211-1.281.295-2.106.227-1.752.261-2.8c0-.514.067-1.062.1-1.626s0-1.163,0-1.769c0-1.222-.051-2.528-.118-3.9a57.207,57.207,0,0,0-1.357-8.83,57.862,57.862,0,0,0-2.806-8.484c-.573-1.247-1.087-2.452-1.685-3.522-.286-.539-.548-1.07-.843-1.567l-.843-1.4c-.514-.91-1.07-1.685-1.517-2.368a21.044,21.044,0,0,0-1.222-1.736l-.792-1.087a1.754,1.754,0,0,1-.253-.4,2.524,2.524,0,0,1,.32.337l.843,1.045a20.215,20.215,0,0,1,1.289,1.685c.472.682,1.045,1.441,1.576,2.342l.843,1.4c.295.489.565,1.028.843,1.567a36.268,36.268,0,0,1,1.685,3.53,50.872,50.872,0,0,1,4.213,17.449c.051,1.382.126,2.7.076,3.926,0,.615,0,1.213-.051,1.786s-.084,1.112-.126,1.635c-.059,1.053-.227,1.98-.337,2.806s-.236,1.533-.362,2.1-.219.969-.295,1.323a2.1,2.1,0,0,1,.008.455Z" transform="translate(-184.602 -193.244)" fill="#fff"/>
            <path id="Path_40475" data-name="Path 40475" d="M450.3,421.077c-.042,0-.067-.691-.261-1.9a16.37,16.37,0,0,0-1.685-4.9,20.659,20.659,0,0,0-4.76-6,24.721,24.721,0,0,0-8.1-4.735,31.554,31.554,0,0,0-9.276-1.618,58.788,58.788,0,0,0-7.734.295c-2.2.2-3.977.43-5.207.565l-1.415.152a1.845,1.845,0,0,1-.5,0,1.905,1.905,0,0,1,.48-.11l1.407-.236c1.222-.194,3-.455,5.2-.708a56.573,56.573,0,0,1,7.785-.388,31.62,31.62,0,0,1,9.4,1.626,24.922,24.922,0,0,1,8.223,4.853,20.482,20.482,0,0,1,4.769,6.159,15.494,15.494,0,0,1,1.542,5.055,10.515,10.515,0,0,1,.1,1.432A2.07,2.07,0,0,1,450.3,421.077Z" transform="translate(-185.367 -192.862)" fill="#fff"/>
            <path id="Path_40476" data-name="Path 40476" d="M341.17,395.79a1.982,1.982,0,0,1-.48.084l-1.373.143-5.055.421c-4.272.329-10.178.733-16.7,1.07s-12.444.548-16.733.6H294.4a1.761,1.761,0,0,1-.48-.051,2.1,2.1,0,0,1,.48-.042h1.373l5.055-.126c4.272-.126,10.186-.379,16.708-.725l16.7-.944,5.055-.286,1.382-.059a1.921,1.921,0,0,1,.5-.084Z" transform="translate(-166.874 -191.967)" fill="#fff"/>
            <g id="Group_70012" data-name="Group 70012" transform="translate(164.842 195.869)" opacity="0.3">
              <path id="Path_40477" data-name="Path 40477" d="M353.128,396.056c5.308,1.559,12.638,1.938,17.837,0-4.044,5.755-11.855,7.836-18.637,5.965S339.3,393.368,338.78,386.35A29.3,29.3,0,0,0,353.128,396.056Z" transform="translate(-338.78 -386.35)"/>
            </g>
            <path id="Path_40478" data-name="Path 40478" d="M398.925,391.279a2.653,2.653,0,0,1-.43.118l-1.222.261c-1.07.219-2.612.506-4.533.843-3.834.674-9.15,1.5-15.039,2.224s-11.256,1.2-15.166,1.466c-1.938.135-3.513.227-4.6.27l-1.247.042a1.356,1.356,0,0,1-.438,0,2.259,2.259,0,0,1,.43-.067l1.247-.126,4.583-.413c3.876-.345,9.217-.843,15.115-1.592s11.2-1.5,15.039-2.09l4.55-.708,1.247-.177a1.331,1.331,0,0,1,.463-.051Z" transform="translate(-176.688 -191.256)" fill="#fff"/>
            <g id="Group_70013" data-name="Group 70013" transform="translate(213.153 162.513)" opacity="0.3">
              <path id="Path_40479" data-name="Path 40479" d="M396.373,346.76c-1.331,15.25,2.823,30.382,6.943,45.127a6.269,6.269,0,0,0,1.129,2.528,2.191,2.191,0,0,0,2.528.7c1.289-.657,1.112-2.528.75-3.909l-11.45-43.812" transform="translate(-396.119 -346.76)"/>
            </g>
            <path id="Path_40480" data-name="Path 40480" d="M143.208,364.055l17.314,85.013h150.31a3,3,0,0,0,3-3h0a3,3,0,0,0-3-3H280.567L264.517,364a3.286,3.286,0,0,0-3.185-2.629L146.46,360.12a3.278,3.278,0,0,0-3.252,3.935Z" transform="translate(-143.133 -186.35)" fill="#e0e0e0"/>
            <path id="Path_40481" data-name="Path 40481" d="M143.206,364.045a2.02,2.02,0,0,1-.051-.253,3.109,3.109,0,0,1,0-.775,3.37,3.37,0,0,1,1.592-2.486,3.26,3.26,0,0,1,.994-.388,4.938,4.938,0,0,1,1.18-.076h2.7l6.74.059,43.433.413,30.281.3,16.969.177,8.9.093,4.541.042h1.163a3.3,3.3,0,0,1,1.163.337,3.437,3.437,0,0,1,1.685,1.727,5.342,5.342,0,0,1,.312,1.154l.236,1.146c.152.758.312,1.525.463,2.292.32,1.542.632,3.092.952,4.642l1.921,9.462q1.946,9.563,3.977,19.572c2.713,13.329,5.535,27.189,8.425,41.478l-.2-.169h29.759a5.592,5.592,0,0,1,1.171.067,3.252,3.252,0,0,1,1.955,1.4,3.219,3.219,0,0,1-1.112,4.651,3.168,3.168,0,0,1-1.415.379H160.394v-.126c-5.3-26.119-9.6-47.385-12.588-62.112-1.474-7.364-2.629-13.093-3.412-16.986-.388-1.946-.682-3.429-.843-4.432s-.278-1.517-.278-1.517.118.514.329,1.508l.927,4.415c.8,3.893,1.98,9.622,3.5,16.969l12.722,62.1-.16-.135H311a2.882,2.882,0,0,0,1.23-.329,2.806,2.806,0,0,0,.961-4.053,2.747,2.747,0,0,0-1.685-1.137,5.661,5.661,0,0,0-1.087-.067H280.4v-.16q-4.348-21.485-8.425-41.487-2.031-9.993-3.968-19.572l-1.972-9.588c-.312-1.559-.623-3.1-.935-4.642-.16-.767-.312-1.533-.472-2.3L264.4,364.5a4.786,4.786,0,0,0-.295-1.087,3.075,3.075,0,0,0-1.441-1.55,3.134,3.134,0,0,0-1.036-.3H260.5l-4.55-.051-8.9-.1-16.96-.2-30.281-.354-43.433-.531-6.74-.093-2.7-.042a5.222,5.222,0,0,0-1.163.059,3.421,3.421,0,0,0-.969.379,3.278,3.278,0,0,0-1.592,2.427A3.919,3.919,0,0,0,143.206,364.045Z" transform="translate(-143.131 -186.341)" fill="#263238"/>
            <path id="Path_40482" data-name="Path 40482" d="M223.565,410.073a4.963,4.963,0,1,1-4.963-4.963,4.963,4.963,0,0,1,4.963,4.963Z" transform="translate(-154.233 -193.434)" fill="#fff"/>
            <path id="Path_40483" data-name="Path 40483" d="M143.38,365.61h7.886l21.493.1,70.9.5,10.254.084h2.528a6.151,6.151,0,0,1,1.289.076,3.472,3.472,0,0,1,1.213.489,3.53,3.53,0,0,1,1.525,2.073c.194.842.329,1.618.5,2.426,1.272,6.4,2.528,12.579,3.665,18.46,2.325,11.8,4.423,22.37,6.176,31.275l4.137,21.064c.472,2.486.843,4.415,1.1,5.738.118.649.211,1.146.278,1.5a4.441,4.441,0,0,1,.076.506s-.051-.169-.118-.5-.185-.843-.32-1.491c-.27-1.323-.666-3.244-1.18-5.721-1.011-4.988-2.46-12.183-4.263-21.064l-6.269-31.258q-1.757-8.847-3.682-18.46c-.169-.792-.32-1.618-.489-2.393a3.159,3.159,0,0,0-1.356-1.828,3.1,3.1,0,0,0-1.078-.4,5.626,5.626,0,0,0-1.2-.067h-2.528l-10.254-.076-70.908-.623-21.485-.236-5.847-.084H143.9Z" transform="translate(-143.17 -187.215)" fill="#263238"/>
            <path id="Path_40484" data-name="Path 40484" d="M376.826,212.37a55.692,55.692,0,0,1-17.761,42.018q-3.985-11.5-7.945-23" transform="translate(-175.881 -163.086)" fill="#263238"/>
            <path id="Path_40485" data-name="Path 40485" d="M308.2,157.41c6.816-3.724,15.048-4.263,22.664-2.738s14.711,4.971,21.434,8.864c3.775,2.182,7.532,4.583,10.245,7.987,4.946,6.226,9.841,16.455,10.313,24.434.388,6.42-2.073,22.487-4.786,28.318-2.486,5.35-14.138,9.428-19.892,10.751L295.4,173.6A26.742,26.742,0,0,1,308.2,157.41Z" transform="translate(-167.107 -153.876)" fill="#263238"/>
            <path id="Path_40486" data-name="Path 40486" d="M296.978,167.468l12.638-2.258c-6.917,16.472-8.8,54.133-12.748,71.557-4.668-6.74-15.494-27.383-14.913-35.581S281.989,166.078,296.978,167.468Z" transform="translate(-164.987 -155.66)" fill="#263238"/>
            <path id="Path_40487" data-name="Path 40487" d="M358.271,195.308c-.682-9.622-6.917-17.508-16.261-19.892l-29.144-7.431c-12.588-1.356-21,14.129-21.822,26.768-.918,14.045-1.483,28.857.16,39.338,3.294,21.064,19.438,23.793,19.438,23.793v16.177l9.748,40.366,31.418-43.408,6.5-75.441C358.338,195.207,358.271,195.788,358.271,195.308Z" transform="translate(-166.282 -156.084)" fill="#ffbe9d"/>
            <path id="Path_40488" data-name="Path 40488" d="M298.72,218.2a2.7,2.7,0,0,0,2.6,2.73,2.587,2.587,0,0,0,2.789-2.435,2.7,2.7,0,0,0-2.6-2.73,2.587,2.587,0,0,0-2.8,2.435Z" transform="translate(-167.63 -163.62)" fill="#263238"/>
            <path id="Path_40489" data-name="Path 40489" d="M294.99,209.031c.337.354,2.384-1.154,5.291-1.146s5.055,1.474,5.35,1.121c.16-.16-.185-.792-1.112-1.474a7.431,7.431,0,0,0-4.28-1.331,7.178,7.178,0,0,0-4.213,1.348C295.1,208.239,294.8,208.871,294.99,209.031Z" transform="translate(-167.034 -162.115)" fill="#263238"/>
            <path id="Path_40490" data-name="Path 40490" d="M328.8,218.2a2.7,2.7,0,0,0,2.6,2.73,2.578,2.578,0,0,0,2.789-2.443,2.7,2.7,0,0,0-2.6-2.73,2.587,2.587,0,0,0-2.8,2.443Z" transform="translate(-172.366 -163.618)" fill="#263238"/>
            <path id="Path_40491" data-name="Path 40491" d="M327.722,209.031c.337.354,2.393-1.154,5.3-1.146s5.055,1.474,5.35,1.121c.152-.16-.185-.792-1.112-1.474a7.482,7.482,0,0,0-4.255-1.331,7.221,7.221,0,0,0-4.213,1.348C327.866,208.239,327.562,208.871,327.722,209.031Z" transform="translate(-172.19 -162.115)" fill="#263238"/>
            <path id="Path_40492" data-name="Path 40492" d="M315.623,232.138c0-.16-1.795-.48-4.727-.843-.741-.076-1.441-.227-1.567-.733a3.749,3.749,0,0,1,.506-2.2q1.053-2.688,2.207-5.653c3.067-8.038,5.283-14.652,4.963-14.77s-3.075,6.294-6.142,14.323q-1.112,2.966-2.115,5.679a4.314,4.314,0,0,0-.4,2.915,1.854,1.854,0,0,0,1.222,1.087,4.533,4.533,0,0,0,1.255.177C313.736,232.289,315.564,232.306,315.623,232.138Z" transform="translate(-169.131 -162.388)" fill="#263238"/>
            <path id="Path_40493" data-name="Path 40493" d="M342.419,265.79s-6.858,14.5-27.939,12.453v-4.954a53.08,53.08,0,0,0,27.939-7.5Z" transform="translate(-170.111 -171.497)" fill="#eb996e"/>
            <path id="Path_40494" data-name="Path 40494" d="M328.817,196.692c.286.792,3.185.421,6.6.843s6.167,1.357,6.622.649c.2-.345-.278-1.087-1.39-1.854a10.953,10.953,0,0,0-4.9-1.685,11.147,11.147,0,0,0-5.165.59C329.323,195.7,328.691,196.313,328.817,196.692Z" transform="translate(-172.366 -160.282)" fill="#263238"/>
            <path id="Path_40495" data-name="Path 40495" d="M296.076,198.44c.506.666,2.528,0,4.92-.042s4.449.455,4.92-.236c.2-.337-.118-.994-1-1.626a7.145,7.145,0,0,0-7.928.227C296.126,197.438,295.848,198.12,296.076,198.44Z" transform="translate(-167.202 -160.421)" fill="#263238"/>
            <path id="Path_40496" data-name="Path 40496" d="M297.926,173.976c1.289-3.168,4.769-5.055,8.181-5.241s6.74,1.121,9.723,2.831c12.545,7.254,19,24.771,31.393,32.278,3.05,1.845,7.018.152,9.613,2.6s4.272,6.353,2.839,9.613a29.556,29.556,0,0,0,4.305-7.271,9.966,9.966,0,0,0-.354-8.215c-1.07-1.862-2.966-3.277-3.48-5.359-.463-1.837.261-3.749.185-5.637A12.36,12.36,0,0,0,358.4,184.2c-4.861-8.586-11.543-16.354-20.145-21.19a35.7,35.7,0,0,0-18.494-4.777,27.282,27.282,0,0,0-17.626,6.985c-2.772,2.587-5.687,5.257-4.213,8.762" transform="translate(-167.442 -154.56)" fill="#263238"/>
            <path id="Path_40497" data-name="Path 40497" d="M367.56,218.338c.219-.607,11.214-4.567,11.357,7.111.143,11.349-11.307,9.116-11.332,8.788S367.56,218.338,367.56,218.338Z" transform="translate(-178.469 -163.847)" fill="#ffbe9d"/>
            <path id="Path_40498" data-name="Path 40498" d="M371.7,230.595c.051,0,.194.135.531.286a2.005,2.005,0,0,0,1.483,0c1.188-.447,2.182-2.368,2.216-4.406a6.512,6.512,0,0,0-.573-2.831,2.3,2.3,0,0,0-1.508-1.5.994.994,0,0,0-1.154.548c-.152.32-.076.548-.143.565s-.244-.185-.152-.657a1.264,1.264,0,0,1,.438-.708,1.466,1.466,0,0,1,1.087-.3A2.763,2.763,0,0,1,376,223.332a6.605,6.605,0,0,1,.716,3.151c-.051,2.292-1.2,4.44-2.839,4.929a2.106,2.106,0,0,1-1.8-.278C371.715,230.873,371.656,230.62,371.7,230.595Z" transform="translate(-179.119 -164.536)" fill="#eb996e"/>
            <path id="Path_40499" data-name="Path 40499" d="M361.507,204.488a4.5,4.5,0,0,1-.682-.379c-.438-.278-1.112-.649-1.9-1.213a38.833,38.833,0,0,1-6.134-5.578,109.936,109.936,0,0,1-7.49-9.731,88.821,88.821,0,0,0-9.361-11.661,35.529,35.529,0,0,0-6.049-4.777,29.767,29.767,0,0,0-6.521-2.966,32.337,32.337,0,0,0-12.023-1.474,31.115,31.115,0,0,0-8.055,1.576c-.935.286-1.626.6-2.106.784a4.321,4.321,0,0,1-.741.261,5.458,5.458,0,0,1,.7-.354,18.24,18.24,0,0,1,2.081-.843,29.034,29.034,0,0,1,8.1-1.752,32.176,32.176,0,0,1,12.192,1.348,29.725,29.725,0,0,1,6.648,2.983,36.23,36.23,0,0,1,6.142,4.845,86.95,86.95,0,0,1,9.386,11.8,117.323,117.323,0,0,0,7.381,9.765,42.38,42.38,0,0,0,5.974,5.662c.775.581,1.424.977,1.837,1.281a4.628,4.628,0,0,1,.632.43Z" transform="translate(-167.901 -155.828)" fill="#455a64"/>
            <path id="Path_40500" data-name="Path 40500" d="M372.888,234.653a2.233,2.233,0,1,1-.531.169" transform="translate(-179.02 -166.589)" fill="#fff"/>
            <path id="Path_40501" data-name="Path 40501" d="M372.327,234.81a3.076,3.076,0,0,0-1.019,1.525,1.921,1.921,0,0,0,.438,1.778,1.988,1.988,0,0,0,3.5-1.1,1.929,1.929,0,0,0-.674-1.685,3.025,3.025,0,0,0-1.685-.657,1.023,1.023,0,0,1,.531-.126,2.317,2.317,0,0,1,1.416.5,2.275,2.275,0,0,1,.91,2.047,2.435,2.435,0,0,1-4.322,1.373,2.275,2.275,0,0,1-.438-2.191,2.241,2.241,0,0,1,.843-1.222C372.116,234.818,372.319,234.784,372.327,234.81Z" transform="translate(-178.99 -166.577)" fill="#263238"/>
            <path id="Path_40502" data-name="Path 40502" d="M366.767,212.428c.177,3.1.32,6.37-1.112,9.125s-5.055,4.634-7.735,3.092c-2.2-1.255-2.856-4.078-3.235-6.58-1.07-7.229-1.567-14.534-2.7-21.754Z" transform="translate(-176.016 -160.557)" fill="#263238"/>
            <path id="Path_40503" data-name="Path 40503" d="M301.32,170.421c0,.059,1-.194,2.814-.253a19.614,19.614,0,0,1,7.516,1.373,24.778,24.778,0,0,1,4.7,2.427,49.943,49.943,0,0,1,4.853,3.707,57.932,57.932,0,0,1,9.5,10.245c1.441,2.022,2.721,4.1,4.1,6.033a29.415,29.415,0,0,0,4.55,5.114,50.879,50.879,0,0,0,9.588,6.412c2.907,1.533,5.333,2.612,7.01,3.37l1.938.843a3.429,3.429,0,0,0,.7.253,3.254,3.254,0,0,0-.64-.362l-1.9-.935c-1.685-.843-4.036-1.955-6.892-3.53a52.473,52.473,0,0,1-9.42-6.488,28.739,28.739,0,0,1-4.432-5.055c-1.356-1.9-2.629-3.985-4.086-6.033a57.013,57.013,0,0,0-9.639-10.321,49.787,49.787,0,0,0-4.954-3.707,24.728,24.728,0,0,0-4.828-2.4,18.848,18.848,0,0,0-7.684-1.2,13.034,13.034,0,0,0-2.1.295,2.7,2.7,0,0,0-.708.211Z" transform="translate(-168.039 -156.397)" fill="#455a64"/>
            <path id="Path_40504" data-name="Path 40504" d="M369.9,204.4a5.149,5.149,0,0,0,1,.674l2.882,1.685.961.548a2.949,2.949,0,0,0,1.247.413,1.2,1.2,0,0,0,.767-.177.994.994,0,0,0,.421-.75,2.528,2.528,0,0,0-.531-1.432l-3.37-5.342-.455.413a11.9,11.9,0,0,0,7.709,2.3,3.269,3.269,0,0,0,1.036-.177,1.39,1.39,0,0,0,.843-.767,1.23,1.23,0,0,0-.194-1.146,4.441,4.441,0,0,0-.64-.708,23.65,23.65,0,0,1-3.867-4.878,40.823,40.823,0,0,1-2.46-5.224,5.946,5.946,0,0,0,.362,1.525,20.6,20.6,0,0,0,1.685,3.926,22.512,22.512,0,0,0,3.842,5.055c.421.4.843.843.682,1.222s-.784.539-1.382.539a11.417,11.417,0,0,1-3.842-.463,11.56,11.56,0,0,1-3.463-1.685l-1.348-.994.9,1.407,3.37,5.3a2.157,2.157,0,0,1,.48,1.112c0,.32-.286.506-.649.48a5.629,5.629,0,0,1-2.039-.843l-2.966-1.517A5.241,5.241,0,0,0,369.9,204.4Z" transform="translate(-178.838 -159.537)" fill="#455a64"/>
            <path id="Path_40505" data-name="Path 40505" d="M328.678,242.46a3.791,3.791,0,0,0-3.918-2.881,3.935,3.935,0,0,0-3.05,2.165,4.878,4.878,0,0,0-.177,3.8l.067.27a4.322,4.322,0,0,0,4.861,1.036,4.036,4.036,0,0,0,2.216-4.39Z" transform="translate(-171.174 -167.369)" fill="#eb996e"/>
            <path id="Path_40506" data-name="Path 40506" d="M319.16,245.534c0-.438,2.94-.3,5.156-2.713s2.039-5.561,2.452-5.561c.185,0,.539.725.506,2.056a7.313,7.313,0,0,1-1.879,4.642,6.4,6.4,0,0,1-4.314,2.09C319.868,246.1,319.135,245.736,319.16,245.534Z" transform="translate(-170.848 -167.005)" fill="#263238"/>
            <path id="Path_40507" data-name="Path 40507" d="M422.243,459a.751.751,0,0,1-.194,0l-.59.059-2.25.185c-1.955.16-4.786.345-8.291.556-7,.413-16.682.843-27.383,1.019s-20.406.076-27.416-.11c-3.5-.084-6.344-.185-8.3-.27l-2.258-.118h2.258l8.307.143c7.01.1,16.7.152,27.4,0s20.373-.556,27.374-.893l8.3-.413,2.258-.1h.581Z" transform="translate(-174.882 -201.92)" fill="#fff"/>
          </g>
        </g>
      </g>
    </g>
    <circle id="Ellipse_821" data-name="Ellipse 821" cx="32" cy="32" r="32" transform="translate(694 595)" fill="#fff"/>
  </g>
</svg>
