<svg xmlns="http://www.w3.org/2000/svg" width="182.979" height="60.308" viewBox="0 0 182.979 60.308">
  <g id="Group_69975" data-name="Group 69975" transform="translate(-268.5 -413.8)">
    <g id="Group_69910" data-name="Group 69910" transform="translate(336.119 413.998)">
      <path id="Path_40242" data-name="Path 40242" d="M448.413,420.347H441.5V414.3h-1.9v14.267h1.9v-6.442h6.916v6.442h1.857V414.3h-1.857Z" transform="translate(-439.6 -414.3)" fill="#fff"/>
      <path id="Path_40243" data-name="Path 40243" d="M477.835,423.9a5.338,5.338,0,1,0,5.375,5.335,5.043,5.043,0,0,0-1.581-3.794A5.156,5.156,0,0,0,477.835,423.9Zm2.569,7.944a3.426,3.426,0,0,1-2.569,1.028,3.49,3.49,0,0,1-2.529-1.028,3.426,3.426,0,0,1-1.027-2.569,3.516,3.516,0,0,1,1.027-2.569,3.4,3.4,0,0,1,2.529-1.028,3.581,3.581,0,0,1,2.569,1.028,3.426,3.426,0,0,1,1.028,2.569A3.516,3.516,0,0,1,480.4,431.844Z" transform="translate(-459.498 -420.106)" fill="#fff"/>
      <path id="Path_40244" data-name="Path 40244" d="M509.959,423.9a3.621,3.621,0,0,0-3.28,1.739v-1.462H504.9v10.2h1.778v-5.414a3.421,3.421,0,0,1,.83-2.529,2.889,2.889,0,0,1,2.134-.83,2.543,2.543,0,0,1,1.857.672,2.743,2.743,0,0,1,.672,1.937v6.165h1.778v-6.244a4.366,4.366,0,0,0-1.067-3.083A3.929,3.929,0,0,0,509.959,423.9Z" transform="translate(-479.093 -420.106)" fill="#fff"/>
      <path id="Path_40245" data-name="Path 40245" d="M537.835,423.9A5.061,5.061,0,0,0,534,425.441a5.309,5.309,0,0,0-1.5,3.833,5.244,5.244,0,0,0,1.5,3.833,5.3,5.3,0,0,0,3.952,1.5,4.905,4.905,0,0,0,4.466-2.292l-1.5-.869a3.171,3.171,0,0,1-2.924,1.5,3.929,3.929,0,0,1-2.45-.751,3.478,3.478,0,0,1-1.265-2.134h8.536a5.936,5.936,0,0,0,.079-.79,5.521,5.521,0,0,0-1.423-3.794A4.538,4.538,0,0,0,537.835,423.9Zm-3.517,4.624a3.533,3.533,0,0,1,1.146-2.134,3.445,3.445,0,0,1,2.371-.79,3.134,3.134,0,0,1,2.134.751,3.526,3.526,0,0,1,1.146,2.213h-6.8Z" transform="translate(-495.786 -420.106)" fill="#fff"/>
      <path id="Path_40246" data-name="Path 40246" d="M567.189,429.04l-1.66-.474a5.924,5.924,0,0,1-1.423-.593,1.06,1.06,0,0,1-.593-.909,1.093,1.093,0,0,1,.514-.988,2.257,2.257,0,0,1,1.265-.356,2.132,2.132,0,0,1,2.174,1.3l1.5-.83a3.45,3.45,0,0,0-1.462-1.541,4.482,4.482,0,0,0-2.213-.553,3.75,3.75,0,0,0-2.569.869,2.734,2.734,0,0,0-1.028,2.174,2.373,2.373,0,0,0,.593,1.66,3.045,3.045,0,0,0,1.423.909c.553.158,1.107.316,1.66.514a5.928,5.928,0,0,1,1.423.593,1.072,1.072,0,0,1,.593.948,1.212,1.212,0,0,1-.553,1.067,2.766,2.766,0,0,1-1.462.316,3.1,3.1,0,0,1-1.62-.435,2.164,2.164,0,0,1-.909-1.146l-1.541.869a3.756,3.756,0,0,0,1.5,1.739,4.716,4.716,0,0,0,2.529.632,4.311,4.311,0,0,0,2.727-.83,2.679,2.679,0,0,0,1.067-2.213,2.508,2.508,0,0,0-.593-1.739A2.106,2.106,0,0,0,567.189,429.04Z" transform="translate(-513.204 -420.227)" fill="#fff"/>
      <path id="Path_40247" data-name="Path 40247" d="M590.105,421.945v-1.7h-2.727V417.4l-1.778.514v9.564a2.787,2.787,0,0,0,1.067,2.569,5.126,5.126,0,0,0,3.4.4v-1.581c-.593.04-1.107.04-1.5.04a1.264,1.264,0,0,1-.909-.316,1.5,1.5,0,0,1-.277-1.067v-5.533h2.727Z" transform="translate(-527.9 -416.175)" fill="#fff"/>
    </g>
    <g id="Group_69911" data-name="Group 69911" transform="translate(270.081 465.927)">
      <path id="Path_40248" data-name="Path 40248" d="M275.227,554.167,272.5,546.5h1.107l2.213,6.363,2.213-6.363h1.107l-2.727,7.667Z" transform="translate(-272.5 -546.184)" fill="#fff"/>
      <path id="Path_40249" data-name="Path 40249" d="M293.622,551.8h.948v5.454h-.948V556.3a2.3,2.3,0,0,1-2.055,1.067,2.77,2.77,0,0,1-2.766-2.885,3.039,3.039,0,0,1,.79-2.055,2.657,2.657,0,0,1,1.976-.83,2.3,2.3,0,0,1,2.055,1.067Zm-1.937,4.664a1.956,1.956,0,0,0,1.383-3.32,1.762,1.762,0,0,0-1.383-.553,1.974,1.974,0,0,0-1.383.553,2.006,2.006,0,0,0,0,2.766A1.818,1.818,0,0,0,291.685,556.461Z" transform="translate(-282.358 -549.268)" fill="#fff"/>
      <path id="Path_40250" data-name="Path 40250" d="M309.185,557.37a2.885,2.885,0,1,1,0-5.77,2.621,2.621,0,0,1,1.462.4,2.368,2.368,0,0,1,.948,1.027l-.79.474a2.166,2.166,0,0,0-.632-.711,2.053,2.053,0,0,0-.988-.277,1.975,1.975,0,0,0-1.383.553,1.907,1.907,0,0,0-.553,1.383,1.975,1.975,0,0,0,.553,1.383,1.907,1.907,0,0,0,1.383.553,2.03,2.03,0,0,0,.988-.237,1.675,1.675,0,0,0,.672-.711l.79.474a2.477,2.477,0,0,1-.988,1.028A2.444,2.444,0,0,1,309.185,557.37Z" transform="translate(-292.942 -549.268)" fill="#fff"/>
      <path id="Path_40251" data-name="Path 40251" d="M326.021,551.8h.948v5.454h-.948V556.3a2.3,2.3,0,0,1-2.055,1.067,2.77,2.77,0,0,1-2.766-2.885,3.039,3.039,0,0,1,.79-2.055,2.657,2.657,0,0,1,1.976-.83,2.3,2.3,0,0,1,2.055,1.067Zm-1.936,4.664a1.956,1.956,0,0,0,1.383-3.32,1.762,1.762,0,0,0-1.383-.553,1.974,1.974,0,0,0-1.383.553,2.005,2.005,0,0,0,0,2.766A1.818,1.818,0,0,0,324.085,556.461Z" transform="translate(-301.954 -549.268)" fill="#fff"/>
      <path id="Path_40252" data-name="Path 40252" d="M341.617,550.711h-1.462v2.964a.82.82,0,0,0,.158.593.63.63,0,0,0,.474.158h.79v.869a2.788,2.788,0,0,1-1.818-.2,1.494,1.494,0,0,1-.593-1.383V550.75H338.1v-.909h1.067v-1.265l.948-.277v1.541h1.462v.87Z" transform="translate(-312.175 -547.273)" fill="#fff"/>
      <path id="Path_40253" data-name="Path 40253" d="M350.072,547.565a.729.729,0,0,1-.474-.2.577.577,0,0,1,0-.87.654.654,0,0,1,.474-.2.615.615,0,0,1,.435,1.067A.5.5,0,0,1,350.072,547.565Zm-.474,6.481v-5.454h.948v5.454Z" transform="translate(-319.009 -546.063)" fill="#fff"/>
      <path id="Path_40254" data-name="Path 40254" d="M360.04,556.54a2.77,2.77,0,0,1-2.055.83,2.9,2.9,0,0,1-2.055-.83,2.77,2.77,0,0,1-.83-2.055,2.833,2.833,0,0,1,.83-2.055,2.771,2.771,0,0,1,2.055-.83,2.834,2.834,0,0,1,2.055.83,2.77,2.77,0,0,1,.83,2.055A2.5,2.5,0,0,1,360.04,556.54Zm-2.016-.079a1.975,1.975,0,0,0,1.383-.553,1.937,1.937,0,0,0-1.383-3.32,1.975,1.975,0,0,0-1.383.553,1.762,1.762,0,0,0-.553,1.383,1.891,1.891,0,0,0,1.937,1.937Z" transform="translate(-322.456 -549.268)" fill="#fff"/>
      <path id="Path_40255" data-name="Path 40255" d="M375.387,551.7a2.085,2.085,0,0,1,1.541.593,2.244,2.244,0,0,1,.593,1.66v3.359h-.948v-3.32a1.412,1.412,0,0,0-.356-1.028,1.315,1.315,0,0,0-.988-.356,1.581,1.581,0,0,0-1.146.435,1.889,1.889,0,0,0-.435,1.344v2.885H372.7v-5.454h.948v.79A1.9,1.9,0,0,1,375.387,551.7Z" transform="translate(-333.101 -549.329)" fill="#fff"/>
      <path id="Path_40256" data-name="Path 40256" d="M402.086,550.252v.474a3.4,3.4,0,0,1-1.028,2.49,3.673,3.673,0,0,1-2.727.988,3.964,3.964,0,0,1-2.885-1.146,4.008,4.008,0,0,1,0-5.612,3.9,3.9,0,0,1,2.885-1.146,3.646,3.646,0,0,1,1.936.514,4.094,4.094,0,0,1,1.383,1.344l-.869.514a2.38,2.38,0,0,0-.988-.988,2.99,2.99,0,0,0-1.462-.4,2.919,2.919,0,0,0-2.174.869,2.889,2.889,0,0,0-.83,2.134,2.906,2.906,0,0,0,3,3,3.049,3.049,0,0,0,1.857-.553,2.34,2.34,0,0,0,.869-1.462h-2.806v-.909h3.834Z" transform="translate(-346.164 -546.063)" fill="#fff"/>
      <path id="Path_40257" data-name="Path 40257" d="M417.028,555.02a1.8,1.8,0,0,0,.672,1.146,2.048,2.048,0,0,0,1.3.4,1.752,1.752,0,0,0,1.581-.79l.79.474a2.644,2.644,0,0,1-2.411,1.225,2.889,2.889,0,0,1-2.134-.83,2.77,2.77,0,0,1-.83-2.055,2.9,2.9,0,0,1,.79-2.055,2.71,2.71,0,0,1,2.055-.83,2.6,2.6,0,0,1,1.976.83,2.87,2.87,0,0,1,.751,2.055,1.62,1.62,0,0,1-.04.435Zm1.9-2.411a1.885,1.885,0,0,0-1.265.435,1.939,1.939,0,0,0-.632,1.146h3.636a1.894,1.894,0,0,0-.593-1.186A1.688,1.688,0,0,0,418.925,552.609Z" transform="translate(-359.288 -549.329)" fill="#fff"/>
      <path id="Path_40258" data-name="Path 40258" d="M437.122,551.8h.948v5.454h-.948V556.3a2.3,2.3,0,0,1-2.055,1.067,2.77,2.77,0,0,1-2.766-2.885,3.039,3.039,0,0,1,.79-2.055,2.657,2.657,0,0,1,1.976-.83,2.3,2.3,0,0,1,2.055,1.067Zm-1.976,4.664a1.956,1.956,0,0,0,1.383-3.32,1.762,1.762,0,0,0-1.383-.553,1.975,1.975,0,0,0-1.383.553,2.006,2.006,0,0,0,0,2.766A1.876,1.876,0,0,0,435.145,556.461Z" transform="translate(-369.147 -549.268)" fill="#fff"/>
      <path id="Path_40259" data-name="Path 40259" d="M451.449,552.828a1.72,1.72,0,0,1,1.7-1.027v.988a1.7,1.7,0,0,0-1.186.356,1.661,1.661,0,0,0-.514,1.3v2.885H450.5v-5.454h.948Z" transform="translate(-380.154 -549.389)" fill="#fff"/>
      <path id="Path_40260" data-name="Path 40260" d="M471.245,554.167l-1.7-2.924h-1.818v2.924H466.7V546.5h3.043a2.3,2.3,0,0,1,1.7.711,2.338,2.338,0,0,1-.869,3.873l1.818,3.043h-1.146Zm-3.517-6.719v2.845h2.055a1.2,1.2,0,0,0,.948-.435,1.4,1.4,0,0,0,.4-1.027,1.311,1.311,0,0,0-.4-.988,1.328,1.328,0,0,0-.948-.435h-2.055Z" transform="translate(-389.952 -546.184)" fill="#fff"/>
      <path id="Path_40261" data-name="Path 40261" d="M482.828,555.02a1.8,1.8,0,0,0,.672,1.146,2.049,2.049,0,0,0,1.3.4,1.752,1.752,0,0,0,1.581-.79l.79.474a2.644,2.644,0,0,1-2.411,1.225,2.889,2.889,0,0,1-2.134-.83,2.771,2.771,0,0,1-.83-2.055,2.9,2.9,0,0,1,.79-2.055,2.71,2.71,0,0,1,2.055-.83,2.6,2.6,0,0,1,1.976.83,2.869,2.869,0,0,1,.751,2.055,1.622,1.622,0,0,1-.039.435Zm1.9-2.411a1.886,1.886,0,0,0-1.265.435,1.94,1.94,0,0,0-.632,1.146h3.636a1.894,1.894,0,0,0-.593-1.186A1.688,1.688,0,0,0,484.725,552.609Z" transform="translate(-399.084 -549.329)" fill="#fff"/>
      <path id="Path_40262" data-name="Path 40262" d="M501.587,551.7a2.085,2.085,0,0,1,1.541.593,2.244,2.244,0,0,1,.593,1.66v3.359h-.948v-3.32a1.412,1.412,0,0,0-.356-1.028,1.315,1.315,0,0,0-.988-.356,1.581,1.581,0,0,0-1.146.435,1.889,1.889,0,0,0-.435,1.344v2.885H498.9v-5.454h.948v.79A1.9,1.9,0,0,1,501.587,551.7Z" transform="translate(-409.426 -549.329)" fill="#fff"/>
      <path id="Path_40263" data-name="Path 40263" d="M516.617,550.711h-1.462v2.964a.82.82,0,0,0,.158.593.63.63,0,0,0,.474.158h.791v.869a2.789,2.789,0,0,1-1.818-.2,1.494,1.494,0,0,1-.593-1.383V550.75H513.1v-.909h1.067v-1.265l.948-.277v1.541h1.462v.87Z" transform="translate(-418.014 -547.273)" fill="#fff"/>
      <path id="Path_40264" data-name="Path 40264" d="M528.221,551.8h.948v5.454h-.948V556.3a2.3,2.3,0,0,1-2.055,1.067,2.77,2.77,0,0,1-2.766-2.885,3.039,3.039,0,0,1,.79-2.055,2.657,2.657,0,0,1,1.976-.83,2.3,2.3,0,0,1,2.055,1.067Zm-1.936,4.664a1.956,1.956,0,0,0,1.383-3.32,1.762,1.762,0,0,0-1.383-.553,1.975,1.975,0,0,0-1.383.553,2.006,2.006,0,0,0,0,2.766A1.762,1.762,0,0,0,526.285,556.461Z" transform="translate(-424.244 -549.268)" fill="#fff"/>
      <path id="Path_40265" data-name="Path 40265" d="M541.6,553.683V545.7h.948v7.983Z" transform="translate(-435.251 -545.7)" fill="#fff"/>
      <path id="Path_40266" data-name="Path 40266" d="M547.986,553.32a.673.673,0,0,0,.316.514,3.3,3.3,0,0,0,.751.316,7.935,7.935,0,0,1,.909.277,1.243,1.243,0,0,1,.751.514,1.443,1.443,0,0,1,.316.949,1.36,1.36,0,0,1-.593,1.186,2.221,2.221,0,0,1-1.462.435,2.67,2.67,0,0,1-1.383-.356,1.846,1.846,0,0,1-.79-.948l.83-.474a1.091,1.091,0,0,0,.474.632,1.5,1.5,0,0,0,.869.237,1.67,1.67,0,0,0,.79-.2.631.631,0,0,0,.316-.553.617.617,0,0,0-.316-.514,3.3,3.3,0,0,0-.751-.316c-.316-.079-.593-.2-.909-.277a1.371,1.371,0,0,1-.751-.474,1.333,1.333,0,0,1-.316-.909,1.539,1.539,0,0,1,.553-1.186,2.027,2.027,0,0,1,1.383-.474,2.414,2.414,0,0,1,1.186.316,2,2,0,0,1,.79.83l-.79.435a1.157,1.157,0,0,0-1.186-.711,1.131,1.131,0,0,0-.672.2A.561.561,0,0,0,547.986,553.32Z" transform="translate(-438.396 -549.329)" fill="#fff"/>
    </g>
    <g id="Group_69920" data-name="Group 69920" transform="translate(268.5 413.8)">
      <g id="Group_69912" data-name="Group 69912" transform="translate(31.098 12.37)">
        <path id="Path_40267" data-name="Path 40267" d="M360.353,445.1l-5.177,19.009h-4.624a3.345,3.345,0,0,1-3.241-4.229l3.241-12.054a3.687,3.687,0,0,1,3.557-2.687h6.244Z" transform="translate(-347.188 -445.1)" fill="#00a99d"/>
      </g>
      <g id="Group_69913" data-name="Group 69913" transform="translate(50.033 0)">
        <circle id="Ellipse_800" data-name="Ellipse 800" cx="5.335" cy="5.335" r="5.335" fill="#00a99d"/>
      </g>
      <g id="Group_69914" data-name="Group 69914" transform="translate(0 7.39)">
        <path id="Path_40268" data-name="Path 40268" d="M284.15,473.878a17.653,17.653,0,0,1-9.959-2.648,14.231,14.231,0,0,1-5.691-7.193l6.718-3.912c1.541,4.071,4.584,6.086,9.129,6.086a7.861,7.861,0,0,0,4.822-1.186,3.622,3.622,0,0,0,1.541-3,3.741,3.741,0,0,0-1.858-3.28,28.321,28.321,0,0,0-6.718-2.529,41.224,41.224,0,0,1-4.505-1.581,17.658,17.658,0,0,1-3.675-2.134,8.673,8.673,0,0,1-2.806-3.4,11.221,11.221,0,0,1-.949-4.782,10.624,10.624,0,0,1,3.833-8.615,14,14,0,0,1,9.248-3.2,15.356,15.356,0,0,1,8.5,2.371,15.645,15.645,0,0,1,5.691,6.56l-6.6,3.794c-1.581-3.4-4.11-5.1-7.627-5.1a5.905,5.905,0,0,0-3.834,1.107,3.71,3.71,0,0,0,.2,5.928,21.206,21.206,0,0,0,6.007,2.529c1.225.4,2.134.672,2.766.869s1.462.514,2.569.948a14.584,14.584,0,0,1,2.49,1.225,23.127,23.127,0,0,1,2.016,1.541,7.907,7.907,0,0,1,1.739,1.976,10.5,10.5,0,0,1,1.028,2.49,11.32,11.32,0,0,1,.435,3.162,10.648,10.648,0,0,1-3.992,8.734A16.438,16.438,0,0,1,284.15,473.878Z" transform="translate(-268.5 -432.5)" fill="#fff"/>
      </g>
      <g id="Group_69915" data-name="Group 69915" transform="translate(63.786 18.733)">
        <path id="Path_40269" data-name="Path 40269" d="M437.567,479.261c.988,3.557,3.636,5.335,8.023,5.335a7.465,7.465,0,0,0,6.363-2.845l5.889,3.4c-2.806,4.071-6.916,6.086-12.37,6.086-4.7,0-8.457-1.423-11.3-4.268a15,15,0,0,1,10.71-25.767,13.573,13.573,0,0,1,10.315,4.308,15.1,15.1,0,0,1,4.071,10.671,16.327,16.327,0,0,1-.277,3h-21.42Zm-.119-5.691h14.5a6.906,6.906,0,0,0-2.569-4.308,7.427,7.427,0,0,0-4.466-1.423,7.866,7.866,0,0,0-4.9,1.5A7.283,7.283,0,0,0,437.448,473.57Z" transform="translate(-429.9 -461.2)" fill="#fff"/>
      </g>
      <g id="Group_69916" data-name="Group 69916" transform="translate(98.287 19.049)">
        <path id="Path_40270" data-name="Path 40270" d="M524.511,467.414a7.56,7.56,0,0,1,3.4-4.071A10.307,10.307,0,0,1,533.166,462v8.181a8.743,8.743,0,0,0-6.007,1.344c-1.778,1.186-2.648,3.122-2.648,5.849v13.595H517.2V462.553h7.311Z" transform="translate(-517.2 -462)" fill="#fff"/>
      </g>
      <g id="Group_69917" data-name="Group 69917" transform="translate(118.482 18.772)">
        <path id="Path_40271" data-name="Path 40271" d="M584.82,461.3a13,13,0,0,1,9.8,4.347,15.969,15.969,0,0,1,0,21.3,13,13,0,0,1-9.8,4.347c-3.992,0-7.035-1.383-9.208-4.15v15.611H568.3V462.09h7.311v3.359A11.052,11.052,0,0,1,584.82,461.3Zm-7,20.788a7.534,7.534,0,0,0,5.612,2.253,7.686,7.686,0,0,0,5.651-2.253,8.516,8.516,0,0,0,0-11.54,7.686,7.686,0,0,0-5.651-2.253,7.534,7.534,0,0,0-5.612,2.253,8.628,8.628,0,0,0,0,11.54Z" transform="translate(-568.3 -461.3)" fill="#fff"/>
      </g>
      <g id="Group_69918" data-name="Group 69918" transform="translate(152.548 18.772)">
        <path id="Path_40272" data-name="Path 40272" d="M677.58,462.09h7.311v28.415H677.58v-3.359a11.18,11.18,0,0,1-9.248,4.15,12.973,12.973,0,0,1-9.762-4.347,14.9,14.9,0,0,1-4.071-10.631,15.059,15.059,0,0,1,4.071-10.67,12.973,12.973,0,0,1,9.762-4.347q5.987,0,9.248,4.15Zm-13.516,20a7.534,7.534,0,0,0,5.612,2.253,7.686,7.686,0,0,0,5.651-2.253,8.516,8.516,0,0,0,0-11.54,7.686,7.686,0,0,0-5.651-2.253,7.534,7.534,0,0,0-5.612,2.253,7.9,7.9,0,0,0-2.213,5.77A7.8,7.8,0,0,0,664.064,482.088Z" transform="translate(-654.5 -461.3)" fill="#fff"/>
      </g>
      <g id="Group_69919" data-name="Group 69919" transform="translate(33.948 8.26)">
        <path id="Path_40273" data-name="Path 40273" d="M373.528,452.287H367.56l2.648-9.524a6.1,6.1,0,0,0-3.043-7L365.15,434.7,354.4,474.5h7.272l4.071-15.255h8.734L371.71,469.32H378.9l2.016-7.39A7.683,7.683,0,0,0,373.528,452.287Z" transform="translate(-354.4 -434.7)" fill="#00a99d"/>
      </g>
    </g>
    <g id="Group_69921" data-name="Group 69921" transform="translate(405.794 421.941)">
      <path id="Path_40274" data-name="Path 40274" d="M660.914,435.744H616.572a.672.672,0,0,1,0-1.344h44.342a.693.693,0,0,1,.672.672A.722.722,0,0,1,660.914,435.744Z" transform="translate(-615.9 -434.4)" fill="#fff"/>
    </g>
  </g>
</svg>
