<svg id="Group_70230" data-name="Group 70230" xmlns="http://www.w3.org/2000/svg" width="221.993" height="191.105" viewBox="0 0 221.993 191.105">
  <g id="Group_70229" data-name="Group 70229" transform="translate(0 143.404)">
    <path id="Path_35981" data-name="Path 35981" d="M0,0H14.984V7.492H0Z" transform="translate(0 42.404) rotate(-45)" fill="#4a576a"/>
    <path id="Path_35982" data-name="Path 35982" d="M0,0H7.492V14.984H0Z" transform="translate(0.024 5.297) rotate(-45)" fill="#4a576a"/>
    <path id="Path_35983" data-name="Path 35983" d="M0,0H7.492V14.984H0Z" transform="translate(30.474 35.745) rotate(-45)" fill="#4a576a"/>
  </g>
  <path id="Path_35984" data-name="Path 35984" d="M13,26.25a22.476,22.476,0,1,0,44.953,0Z" transform="translate(58.903 117.973)" fill="#00a99d"/>
  <path id="Path_35985" data-name="Path 35985" d="M122.878,56.576V77.464a55.874,55.874,0,0,0,19.809,42.683l.007.007.037.03a7.492,7.492,0,0,1-4.87,13.186H14.242a7.492,7.492,0,0,1-4.87-13.186l.037-.03.007-.007A55.885,55.885,0,0,0,29.226,77.464V56.576a46.826,46.826,0,0,1,93.651,0Z" transform="translate(18.327 10.853)" fill="#00a99d"/>
  <path id="Path_35986" data-name="Path 35986" d="M23.607,125.878a7.472,7.472,0,0,1,2.622-5.694l.037-.03.007-.007A55.885,55.885,0,0,0,46.084,77.464V56.576a46.817,46.817,0,0,1,38.4-46.032A46.679,46.679,0,0,0,29.226,56.576V77.464A55.874,55.874,0,0,1,9.417,120.146l-.007.007-.037.03a7.492,7.492,0,0,0,4.87,13.186H31.1A7.514,7.514,0,0,1,23.607,125.878Z" transform="translate(18.327 10.853)" fill="#fff"/>
  <path id="Path_35987" data-name="Path 35987" d="M40.345,54.345a28.13,28.13,0,0,1-28.1-28.1H23.488a16.857,16.857,0,1,0,33.715,0H68.441A28.125,28.125,0,0,1,40.345,54.345Z" transform="translate(54.034 117.973)"/>
  <path id="Path_35988" data-name="Path 35988" d="M142.731,143.858H19.111a13.114,13.114,0,0,1-8.526-23.076,50.222,50.222,0,0,0,17.891-38.45V61.445A52.485,52.485,0,0,1,89.44,9.689L87.627,20.778a41.729,41.729,0,0,0-6.705-.539A41.255,41.255,0,0,0,39.715,61.445V82.333a61.4,61.4,0,0,1-21.8,46.976,1.866,1.866,0,0,0-.674,1.438,1.893,1.893,0,0,0,1.873,1.873h123.62a1.893,1.893,0,0,0,1.873-1.873,1.87,1.87,0,0,0-.652-1.424A61.492,61.492,0,0,1,124.9,100.591l10.729-3.341a50.266,50.266,0,0,0,15.561,23.48,13.111,13.111,0,0,1-8.459,23.128Z" transform="translate(13.458 5.984)"/>
  <path id="Path_35989" data-name="Path 35989" d="M57.332,70.937H23.618A5.618,5.618,0,0,1,19,62.119L46.611,22.238H23.618V11H57.332a5.618,5.618,0,0,1,4.615,8.818L34.347,59.7H57.332Z" transform="translate(91.365 18.968)"/>
  <path id="Path_35990" data-name="Path 35990" d="M50.35,44.461H31.619a5.618,5.618,0,0,1-4.57-8.886L39.434,18.238H31.619V7H50.35a5.618,5.618,0,0,1,4.57,8.886L42.535,33.222H50.35Z" transform="translate(143.3 -7)"/>
  <path id="Path_35991" data-name="Path 35991" d="M41.271,34.976A11.238,11.238,0,1,1,52.509,23.738,11.252,11.252,0,0,1,41.271,34.976Zm0-14.984a3.746,3.746,0,1,0,3.746,3.746A3.752,3.752,0,0,0,41.271,19.992Z" transform="translate(169.483 28.707)" fill="#4a576a"/>
  <path id="Path_35992" data-name="Path 35992" d="M40.345,54.345a28.13,28.13,0,0,1-28.1-28.1H23.488a16.857,16.857,0,1,0,33.715,0H68.441A28.125,28.125,0,0,1,40.345,54.345Z" transform="translate(54.034 117.973)" fill="#003451"/>
  <path id="Path_35993" data-name="Path 35993" d="M142.731,143.858H19.111a13.114,13.114,0,0,1-8.526-23.076,50.222,50.222,0,0,0,17.891-38.45V61.445A52.485,52.485,0,0,1,89.44,9.689L87.627,20.778a41.729,41.729,0,0,0-6.705-.539A41.255,41.255,0,0,0,39.715,61.445V82.333a61.4,61.4,0,0,1-21.8,46.976,1.866,1.866,0,0,0-.674,1.438,1.893,1.893,0,0,0,1.873,1.873h123.62a1.893,1.893,0,0,0,1.873-1.873,1.87,1.87,0,0,0-.652-1.424A61.492,61.492,0,0,1,124.9,100.591l10.729-3.341a50.266,50.266,0,0,0,15.561,23.48,13.111,13.111,0,0,1-8.459,23.128Z" transform="translate(13.458 5.984)" fill="#003451"/>
  <path id="Path_35994" data-name="Path 35994" d="M57.332,70.937H23.618A5.618,5.618,0,0,1,19,62.119L46.611,22.238H23.618V11H57.332a5.618,5.618,0,0,1,4.615,8.818L34.347,59.7H57.332Z" transform="translate(91.365 18.968)" fill="#003451"/>
  <path id="Path_35995" data-name="Path 35995" d="M50.35,44.461H31.619a5.618,5.618,0,0,1-4.57-8.886L39.434,18.238H31.619V7H50.35a5.618,5.618,0,0,1,4.57,8.886L42.535,33.222H50.35Z" transform="translate(143.3 -7)" fill="#003451"/>
</svg>
