<svg id="Group_70235" data-name="Group 70235" xmlns="http://www.w3.org/2000/svg" width="58.562" height="76.881" viewBox="0 0 58.562 76.881">
  <g id="Group_69915" data-name="Group 69915" transform="translate(0)">
    <path id="Path_35710" data-name="Path 35710" d="M3954.563,494.808l2.091-28.752,3.39-2.908,17.713.734,4.183,2.174,1.287,28.752-2.935,4.854h-21.936Z" transform="translate(-3939.826 -461.379)" fill="#00a99d"/>
    <path id="Path_35709" data-name="Path 35709" d="M117.309,28.53H111.3a2.252,2.252,0,1,0,0,4.5h.751v8.259a3.758,3.758,0,0,1-3.754,3.754H97.038v-4.5H100.4a6.757,6.757,0,0,0,6.734-7.318L104.882,6.2A6.8,6.8,0,0,0,98.148,0H82.413a6.8,6.8,0,0,0-6.734,6.2L73.427,33.224a6.757,6.757,0,0,0,6.734,7.318h3.363v4.5H72.262a3.758,3.758,0,0,1-3.754-3.754V33.035h.751a2.252,2.252,0,0,0,0-4.5H63.252a2.252,2.252,0,1,0,0,4.5H64v8.259a8.268,8.268,0,0,0,8.259,8.259h2.252V51.8a6.765,6.765,0,0,0,6.757,6.757h6.757V64L76.054,67.987a2.252,2.252,0,0,0-1.54,2.137v4.5a2.252,2.252,0,1,0,4.5,0V71.747l9.009-3v4.383a2.252,2.252,0,1,0,4.5,0V68.744l9.009,3v2.881a2.252,2.252,0,0,0,4.5,0v-4.5a2.252,2.252,0,0,0-1.54-2.137L92.533,64V58.561H99.29a6.765,6.765,0,0,0,6.757-6.757V49.552H108.3a8.268,8.268,0,0,0,8.259-8.259V33.035h.751a2.252,2.252,0,1,0,0-4.5ZM80.161,36.038A2.252,2.252,0,0,1,77.916,33.6L80.168,6.57A2.266,2.266,0,0,1,82.413,4.5H98.148a2.266,2.266,0,0,1,2.245,2.065L102.645,33.6a2.252,2.252,0,0,1-2.245,2.439H80.161Zm12.372,4.5v4.5h-4.5v-4.5ZM101.543,51.8a2.255,2.255,0,0,1-2.252,2.252H81.271A2.255,2.255,0,0,1,79.019,51.8V49.552h22.524Z" transform="translate(-61)" fill="#003451"/>
  </g>
</svg>
