<svg xmlns="http://www.w3.org/2000/svg" width="111.989" height="95.739" viewBox="0 0 111.989 95.739">
  <g id="Group_69766" data-name="Group 69766" transform="translate(0 0)">
    <ellipse id="Ellipse_782" data-name="Ellipse 782" cx="55.995" cy="17.998" rx="55.995" ry="17.998" transform="translate(0 59.743)" fill="#f2f2f2"/>
    <g id="Consulting-amico" transform="translate(14.572)">
      <g id="freepik--Shadows--inject-62" transform="translate(51.155 31.982)">
        <path id="freepik--shadow--inject-62" d="M268.184,243.749l-11.816,6.823a.643.643,0,0,1-.579,0l-15.948-9.206a.177.177,0,0,1,0-.333l11.836-6.823a.637.637,0,0,1,.579,0l15.928,9.209C268.349,243.508,268.349,243.656,268.184,243.749Z" transform="translate(-239.724 -234.14)" opacity="0.1"/>
      </g>
      <g id="freepik--character-1--inject-62">
        <g id="freepik--Character--inject-62">
          <g id="freepik--character--inject-62-2" data-name="freepik--character--inject-62">
            <g id="freepik--Chair--inject-62" transform="translate(0 17.947)">
              <path id="Path_34719" data-name="Path 34719" d="M180.711,323.614l-2.569-21.456-2.1-.107,3.614,21.561h0a.29.29,0,0,0,.139.188.846.846,0,0,0,.75.038.261.261,0,0,0,.165-.223Z" transform="translate(-143.328 -268.348)" fill="#263238"/>
              <path id="Path_34720" data-name="Path 34720" d="M178.142,302.157l-2.1-.107.62,4.069a8.153,8.153,0,0,0,1.242-.579,1.286,1.286,0,0,0,.556-.475Z" transform="translate(-143.328 -268.348)" fill="#263238"/>
              <path id="Path_34721" data-name="Path 34721" d="M74.224,291.56h-2.1L69.06,311.817h0a.249.249,0,0,0,.151.232.817.817,0,0,0,.75,0,.29.29,0,0,0,.151-.18h0Z" transform="translate(-67.329 -260.896)" fill="#37474f"/>
              <path id="Path_34722" data-name="Path 34722" d="M77.534,291.56l-.854,5.653a8.185,8.185,0,0,0,1.613.988l1.344-6.641Z" transform="translate(-72.743 -260.896)" fill="#263238"/>
              <path id="Path_34723" data-name="Path 34723" d="M133.638,347.555l-1.978-21.818-2.1-.107,3.023,21.923h0a.289.289,0,0,0,.142.188.819.819,0,0,0,.747.038.252.252,0,0,0,.165-.223Z" transform="translate(-110.309 -285.099)" fill="#37474f"/>
              <path id="Path_34724" data-name="Path 34724" d="M131.917,328.879l-.258-3.142-2.1-.107.426,3.388A3.864,3.864,0,0,0,131.917,328.879Z" transform="translate(-110.309 -285.099)" fill="#263238"/>
              <path id="Path_34725" data-name="Path 34725" d="M113.866,268.51h-2.105L108.7,288.767h0a.255.255,0,0,0,.153.232.834.834,0,0,0,.75,0,.29.29,0,0,0,.148-.18h0Z" transform="translate(-95.49 -244.521)" fill="#263238"/>
              <g id="freepik--chair--inject-62-2" data-name="freepik--chair--inject-62">
                <path id="Path_34726" data-name="Path 34726" d="M63.963,199.04a11.972,11.972,0,0,0-.84,3.692c-.24,2.832.678,13.3,1.254,17.4h0c.831,6.849,1.853,6.861,3.339,8.007a79.7,79.7,0,0,0,12.32,6.794c4.393,1.738,7.987-.938,10.666-2.262a61.972,61.972,0,0,0,7.1-4.2,1.945,1.945,0,0,0,1.008-1.5V225.7c0-.66-.579-1.37-1.813-2.166-2.27-1.474-10.472-6.258-13.652-8.019a.035.035,0,0,0-.026-.026c-2.447-1.486-3.878-12.876-5.572-18.245-.035-.116-.072-.226-.11-.333s-.058-.171-.087-.252c-.107-.29-.217-.559-.333-.8" transform="translate(-63.084 -192.91)" fill="#00a99d"/>
                <path id="Path_34727" data-name="Path 34727" d="M98.812,218.468c0-.66-.579-1.37-1.813-2.166-2.27-1.474-10.472-6.258-13.652-8.019a.035.035,0,0,0-.026-.026c-2.447-1.486-3.878-12.876-5.572-18.245a9.967,9.967,0,0,0-.353-.988.18.18,0,0,0-.032-.072l-.1-.22c-.017-.035-.032-.072-.049-.107h0a5.143,5.143,0,0,0-1.129-1.633,2.524,2.524,0,0,0-.556-.391l-1-.559c-1.662-1-3.84.2-6.557,1.686a8.226,8.226,0,0,0-4.008,4.078h0a11.972,11.972,0,0,0-.84,3.692c-.24,2.832.678,13.3,1.254,17.4h0c.831,6.849,1.853,6.861,3.339,8.007a79.7,79.7,0,0,0,12.32,6.794c4.393,1.738,7.987-.938,10.666-2.262a61.966,61.966,0,0,0,7.1-4.2,1.945,1.945,0,0,0,1.008-1.5C98.809,219.527,98.812,218.685,98.812,218.468Z" transform="translate(-63.091 -185.675)" fill="#00a99d"/>
                <path id="Path_34728" data-name="Path 34728" d="M98.812,218.468c0-.66-.579-1.37-1.813-2.166-2.27-1.474-10.472-6.258-13.652-8.019a.035.035,0,0,0-.026-.026c-2.447-1.486-3.878-12.876-5.572-18.245a9.967,9.967,0,0,0-.353-.988.18.18,0,0,0-.032-.072l-.1-.22c-.017-.035-.032-.072-.049-.107h0a5.143,5.143,0,0,0-1.129-1.633,2.524,2.524,0,0,0-.556-.391l-1-.559c-1.662-1-3.84.2-6.557,1.686a8.226,8.226,0,0,0-4.008,4.078h0a11.972,11.972,0,0,0-.84,3.692c-.24,2.832.678,13.3,1.254,17.4h0c.831,6.849,1.853,6.861,3.339,8.007a79.7,79.7,0,0,0,12.32,6.794c4.393,1.738,7.987-.938,10.666-2.262a61.966,61.966,0,0,0,7.1-4.2,1.945,1.945,0,0,0,1.008-1.5C98.809,219.527,98.812,218.685,98.812,218.468Z" transform="translate(-63.091 -185.675)" fill="#fff" opacity="0.25"/>
                <path id="Path_34729" data-name="Path 34729" d="M99.36,277.267a62.348,62.348,0,0,0,7.1-4.205c1.523-1.106,1.384-2.239-.8-3.655-3.035-1.966-15.4-8.978-15.4-8.978S74.617,269.654,75.3,271.359s10.347,6.974,13.4,8.172C93.09,281.255,96.681,278.588,99.36,277.267Z" transform="translate(-71.745 -238.781)" fill="#00a99d"/>
                <path id="Path_34730" data-name="Path 34730" d="M99.36,277.267a62.348,62.348,0,0,0,7.1-4.205c1.523-1.106,1.384-2.239-.8-3.655-3.035-1.966-15.4-8.978-15.4-8.978S74.617,269.654,75.3,271.359s10.347,6.974,13.4,8.172C93.09,281.255,96.681,278.588,99.36,277.267Z" transform="translate(-71.745 -238.781)" fill="#00a99d"/>
                <path id="Path_34731" data-name="Path 34731" d="M77.683,186.6c-1.645-.869-3.782.313-6.429,1.761a8.254,8.254,0,0,0-4,4.089L66.14,191.8a8.18,8.18,0,0,1,4.008-4.078c2.716-1.489,4.894-2.682,6.557-1.686Z" transform="translate(-65.255 -185.675)" fill="#00a99d"/>
                <path id="Path_34732" data-name="Path 34732" d="M77.683,186.6c-1.645-.869-3.782.313-6.429,1.761a8.254,8.254,0,0,0-4,4.089L66.14,191.8a8.18,8.18,0,0,1,4.008-4.078c2.716-1.489,4.894-2.682,6.557-1.686Z" transform="translate(-65.255 -185.675)" fill="#fff" opacity="0.5"/>
                <path id="Path_34733" data-name="Path 34733" d="M80.443,191.557a7.438,7.438,0,0,0-1.662-3.021,2.673,2.673,0,0,0-1.8-.686c-1.448,0-3.162.95-5.187,2.056-.168.093-.333.188-.5.29l-.188.11c-.075.046-.151.093-.223.142s-.11.07-.165.107a9.437,9.437,0,0,0-1.019.773c-.052.046-.1.09-.151.139a6.681,6.681,0,0,0-.579.6c-.032.041-.067.078-.1.116l-.113.142c-.038.049-.072.1-.113.148l-.107.151a7.154,7.154,0,0,0-.4.646c-.017.029-.035.058-.049.087l-.1.182-.13.272a11.7,11.7,0,0,0-.915,3.872c-.394,4.651,1.158,21.32,2.76,22.644,0,0-.246-1.5,2.971-3.527a61.52,61.52,0,0,1,6.056-3.678,75.036,75.036,0,0,1,7.281-3.316C83.568,208.316,82.138,196.926,80.443,191.557Z" transform="translate(-65.785 -187.22)" fill="#00a99d"/>
                <path id="Path_34734" data-name="Path 34734" d="M80.443,191.557a7.438,7.438,0,0,0-1.662-3.021,2.673,2.673,0,0,0-1.8-.686c-1.448,0-3.162.95-5.187,2.056-.168.093-.333.188-.5.29l-.188.11c-.075.046-.151.093-.223.142s-.11.07-.165.107a9.437,9.437,0,0,0-1.019.773c-.052.046-.1.09-.151.139a6.681,6.681,0,0,0-.579.6c-.032.041-.067.078-.1.116l-.113.142c-.038.049-.072.1-.113.148l-.107.151a7.154,7.154,0,0,0-.4.646c-.017.029-.035.058-.049.087l-.1.182-.13.272a11.7,11.7,0,0,0-.915,3.872c-.394,4.651,1.158,21.32,2.76,22.644,0,0-.246-1.5,2.971-3.527a61.52,61.52,0,0,1,6.056-3.678,75.036,75.036,0,0,1,7.281-3.316C83.568,208.316,82.138,196.926,80.443,191.557Z" transform="translate(-65.785 -187.22)" fill="#00a99d"/>
              </g>
            </g>
            <path id="freepik--shadow--inject-62-2" data-name="freepik--shadow--inject-62" d="M102.209,221.285a1.972,1.972,0,0,1-1.008,1.5,61.564,61.564,0,0,1-7.1,4.214,35.2,35.2,0,0,1-4.9,2.346c-4.492-2.635-12.236-7.24-14.141-8.766a6.693,6.693,0,0,1-2-3.565,18.7,18.7,0,0,1-.539-4.715,6.371,6.371,0,0,1-2.774-1.839c-1.124-1.24-1.422-5.268-1.871-14.428h0a10.007,10.007,0,0,1,.689-2.213l.13-.272c.032-.061.064-.122.1-.182a.868.868,0,0,1,.046-.087,6.776,6.776,0,0,1,.4-.646l.107-.151c.041-.052.072-.1.113-.148l.113-.142c.032-.038.064-.078.1-.113a7.135,7.135,0,0,1,.579-.6c.049-.049.1-.093.151-.139a9.431,9.431,0,0,1,1.019-.773,1.449,1.449,0,0,1,.165-.107c.072-.049.145-.1.223-.139A2.04,2.04,0,0,1,72,190.2c.162-.1.33-.194.5-.29,2.027-1.1,3.747-2.053,5.187-2.053a2.722,2.722,0,0,1,1.688.579.894.894,0,0,1,.107.1,4.472,4.472,0,0,1,.918,1.213c.035.067.072.133.1.2a.314.314,0,0,1,.023.043c.032.058.058.116.087.177l.032.067.017.041c.017.035.035.075.049.11.061.13.113.258.156.374l.035.081c.035.093.067.18.093.258l.026.072a.7.7,0,0,1,.023.072.345.345,0,0,1,.02.058.069.069,0,0,0,.02.058c.02.02.017.049.023.07a.122.122,0,0,1,0,.046l.026.078c1.694,5.372,3.125,16.765,5.572,18.245a.035.035,0,0,1,.026.026c3.186,1.761,11.381,6.545,13.652,8.016,1.231.8,1.81,1.509,1.813,2.172C102.212,220.237,102.206,221.08,102.209,221.285Z" transform="translate(-66.491 -169.28)" opacity="0.1"/>
            <g id="freepik--character--inject-62-3" data-name="freepik--character--inject-62" transform="translate(2.605)">
              <path id="Path_34741" data-name="Path 34741" d="M152.948,395.74a1.393,1.393,0,0,0,.058.7A4.53,4.53,0,0,0,154.5,397.6a2.957,2.957,0,0,1,1.219,1.3,6.062,6.062,0,0,0,2.438,2.511,7.649,7.649,0,0,0,4.512.533c1.9-.316,2.065-1.428,2.065-1.428s.116-1.045-.353-1.219S152.948,395.74,152.948,395.74Z" transform="translate(-129.514 -316.958)" fill="#263238"/>
              <path id="Path_34742" data-name="Path 34742" d="M152.145,383.718a3.039,3.039,0,0,0,.24,1.295c.544.779,1.859,1.051,2.606,2.117s1.628,2.7,4.095,3.226,4.361-.235,4.828-.932.061-1.367-1.515-2.247a16.415,16.415,0,0,1-3.637-3.391,10.582,10.582,0,0,1-1.28-2.934c-.035-.1-.09-.206-.191-.211s-.18.148-.246.252a.8.8,0,0,1-.475.29,5.8,5.8,0,0,1-.654.185,6.059,6.059,0,0,1-1.35.148.556.556,0,0,0-.426.11.5.5,0,0,0-.084.376,3.606,3.606,0,0,0,.064.5.533.533,0,0,1,0,.243.29.29,0,0,1-.29.188.654.654,0,0,1-.339-.11,1.5,1.5,0,0,1-.8-1.019s-.014-.252-.041-.481a.623.623,0,0,0-.307.356c-.046.188-.032.394-.061.579A9.731,9.731,0,0,0,152.145,383.718Z" transform="translate(-128.957 -306.231)" fill="#455a64"/>
              <path id="Path_34743" data-name="Path 34743" d="M194.263,382.9a1.428,1.428,0,0,0,.133.7,4.483,4.483,0,0,0,1.61.982,2.968,2.968,0,0,1,1.352,1.158,6.086,6.086,0,0,0,2.693,2.236,7.657,7.657,0,0,0,4.547.041c1.851-.518,1.9-1.642,1.9-1.642s0-1.054-.484-1.173S194.263,382.9,194.263,382.9Z" transform="translate(-158.877 -307.837)" fill="#263238"/>
              <path id="Path_34744" data-name="Path 34744" d="M192.917,369.674a3,3,0,0,0,.376,1.263c.628.715,1.961.843,2.818,1.822s1.908,2.511,4.419,2.769,4.309-.7,4.7-1.448-.09-1.367-1.752-2.071a16.764,16.764,0,0,1-3.985-2.98,10.717,10.717,0,0,1-1.587-2.777c-.043-.093-.113-.2-.214-.191s-.162.165-.214.275a.8.8,0,0,1-.443.345,6.231,6.231,0,0,1-.631.255,5.929,5.929,0,0,1-1.326.29.556.556,0,0,0-.408.154.5.5,0,0,0-.046.385,4.152,4.152,0,0,0,.119.489.492.492,0,0,1,.035.24.3.3,0,0,1-.261.217.672.672,0,0,1-.35-.072,1.477,1.477,0,0,1-.869-.935,4.24,4.24,0,0,0-.125-.466.622.622,0,0,0-.266.388,4.289,4.289,0,0,0,0,.579A9.819,9.819,0,0,0,192.917,369.674Z" transform="translate(-157.899 -295.873)" fill="#455a64"/>
              <path id="Path_34745" data-name="Path 34745" d="M88.7,261.1l5.792-.628,11.778.634s7.072,4.526,12.207,8.135c1.491,1.051,3.073,2.2,3.336,4.4.371,3.119,2.418,18.378,2.418,18.378-.724,1.862-4.471,2.172-5.387,1.63-.527-2.14-.666-2.572-1.613-5.5-.692-2.143-1.184-4-1.758-5.754a26.24,26.24,0,0,1-1.04-5.945l-7.489-4.694c1.651,1.68,2.189,2.224,3.055,3.1.759.767,1.26,1.738,1.483,4.214.443,4.923,1.213,15.989,1.268,17.492-.62.869-3.649,1.932-5.636.932-.539-2.832-1.158-4.97-1.961-8.879a34.849,34.849,0,0,1-.964-8.723s-3.643-2.244-7.8-4.975c-1.767-1.158-4.272-2.392-5.5-3.736C88.823,268.863,88.614,265.312,88.7,261.1Z" transform="translate(-83.873 -220.863)" fill="#37474f"/>
              <path id="Path_34746" data-name="Path 34746" d="M141.4,278.581l-4.228-4.8a6.34,6.34,0,0,0,3.438-3.689s-.264,2.777-1.926,4l1.978,2.685,8.228,6.5Z" transform="translate(-118.32 -227.697)" fill="#263238"/>
              <g id="freepik--Top--inject-62" transform="translate(2.936)">
                <path id="Path_34747" data-name="Path 34747" d="M88.507,260.981a4.167,4.167,0,0,0,.139,2.114c1.755.9,4.489,1.263,9.684.53,6.371-.895,7.706-3.988,7.877-4.3a3.534,3.534,0,0,0-.156-1.827Z" transform="translate(-86.63 -218.753)" fill="#53666f"/>
                <path id="Path_34749" data-name="Path 34749" d="M100.877,185.971c-.776-4.6-2.577-6.2-5.091-6.331l-5.65-.171c-1.193.359-5,1.121-6.617,1.671s-1.448,4.512-.964,6.933a39.785,39.785,0,0,1,.675,8.343c.075,3.884-.13,8.141.869,9.131,3.585,2.1,14.037,1.344,17.544-3.475.817-1.509.026-3.829-.116-6.218C101.268,191.578,101.132,187.5,100.877,185.971Z" transform="translate(-82.218 -163.32)" fill="#00a99d"/>
                <path id="Path_34750" data-name="Path 34750" d="M100.877,185.971c-.854-6.709-2.577-6.2-5.091-6.331l-5.65-.171c-1.193.359-5,1.121-6.617,1.671s-1.448,4.512-.964,6.933a39.785,39.785,0,0,1,.675,8.343c.075,3.884-.13,8.141.869,9.131,3.585,2.1,14.037,1.344,17.544-3.475.817-1.509.026-3.829-.116-6.218C101.268,191.578,101.132,187.5,100.877,185.971Z" transform="translate(-82.218 -163.32)" fill="#455a64"/>
                <path id="Path_34751" data-name="Path 34751" d="M101.68,180.032c.8-.229,1.882-.443,2.282-.562l3.765.116h0c1.1.605,2.586,2.088.9,2.994s-4.541.206-5.691-.869a4.416,4.416,0,0,1-1.254-1.68Z" transform="translate(-96.044 -163.32)" fill="#37474f"/>
                <path id="Path_34752" data-name="Path 34752" d="M106.449,126.089a2.027,2.027,0,0,0-1.471-1.926,6,6,0,0,0-2-.052,17.774,17.774,0,0,1-3.727-.313,8.329,8.329,0,0,0-2.5,0,4.616,4.616,0,0,0-2.027.851,2.726,2.726,0,0,0-1.08,2.444,2.653,2.653,0,0,0-.964,2.412,8.284,8.284,0,0,0,1.158,3.574s1.323,2.861,1.633,3.42c.362.652.681,1.2.681,1.2l-.217-2.409a8.45,8.45,0,0,0,2.409-.206,15.783,15.783,0,0,0,2.23-1.158,22.222,22.222,0,0,0,2.146-1.517c.342-.272.675-.559,1.011-.84a5.619,5.619,0,0,1,.7-.643,3.656,3.656,0,0,1,.637-.24,2.45,2.45,0,0,0,1.263-.892,1.911,1.911,0,0,0,.29-1.109,1.454,1.454,0,0,0-.779-1.263A1.728,1.728,0,0,0,106.449,126.089Z" transform="translate(-89.648 -123.704)" fill="#263238"/>
                <path id="Path_34753" data-name="Path 34753" d="M97.377,134.853a5,5,0,0,1-1.68,3.078,7.53,7.53,0,0,1,.153,2.54,1.358,1.358,0,0,1-.174.518.617.617,0,0,1-.434.29c-.246.029-.353-.119-.434-.307a5.988,5.988,0,0,0-.4-.7A1.367,1.367,0,0,0,94.18,140a1.2,1.2,0,0,0-1.975.481,2.535,2.535,0,0,0,1.448,3.032c1.552.371,1.848-.686,1.848-.686l.156,5.077c.478,1.271,2.9,2.433,4.816,2.117s1.257-1.448.449-2.213l.035-1.767a7.426,7.426,0,0,0,2.027-.151,2.609,2.609,0,0,0,1.706-2.178,18.511,18.511,0,0,0-.029-7.052,4.009,4.009,0,0,0-1.59-2.546c.026.31-.2,1.069-1.738,1.341A6.848,6.848,0,0,1,97.377,134.853Z" transform="translate(-89.224 -131.103)" fill="#ffbf9d"/>
                <path id="Path_34754" data-name="Path 34754" d="M111.245,152.446a.084.084,0,0,1,0-.038.254.254,0,0,0,.029-.029.335.335,0,0,1,.113-.029h.275a2,2,0,0,1,.35.055c.055.014.041.136,0,.124a1.238,1.238,0,0,0-.371-.032.775.775,0,0,0-.182.015h-.093c-.032,0-.072.023-.1,0A.075.075,0,0,1,111.245,152.446Z" transform="translate(-102.837 -144.054)" fill="#ff9a6c"/>
                <path id="Path_34755" data-name="Path 34755" d="M112.375,153.786a.446.446,0,0,1,.151-.017h.055a.345.345,0,0,1,.067.046c.023.014.023.081,0,.09l-.136.041a.418.418,0,0,0-.116.026h-.032a.208.208,0,0,0-.064.029l-.043.023a.122.122,0,0,1-.084,0,.067.067,0,0,1-.046-.061C112.085,153.873,112.271,153.806,112.375,153.786Z" transform="translate(-103.461 -145.061)" fill="#ff9a6c"/>
                <path id="Path_34756" data-name="Path 34756" d="M112.909,155.337a.707.707,0,0,1,.327-.22.032.032,0,0,1,.035,0,.058.058,0,0,1,0,.038c0,.026,0,.07-.035.081a.481.481,0,0,0-.078.038l-.041.02H113.1a.612.612,0,0,0-.067.055l-.067.061a.041.041,0,0,1-.067,0A.093.093,0,0,1,112.909,155.337Z" transform="translate(-104.012 -146.016)" fill="#ff9a6c"/>
                <path id="Path_34757" data-name="Path 34757" d="M134.421,150.6l.038-.029.049-.026.1-.049a.635.635,0,0,1,.162-.058.063.063,0,0,1,.069.061.119.119,0,0,1-.058.11.612.612,0,0,1-.185.064l-.09.014h-.072c-.02,0-.029-.023-.032-.038S134.4,150.6,134.421,150.6Z" transform="translate(-119.286 -142.697)" fill="#ff9a6c"/>
                <path id="Path_34758" data-name="Path 34758" d="M134.644,152.224a.081.081,0,0,0,0,.038.04.04,0,0,0,.038.017h.069l.038.014h.02a.084.084,0,0,0,.1-.043.142.142,0,0,0,.023-.061.078.078,0,0,0-.017-.061.13.13,0,0,0-.064-.046.187.187,0,0,0-.07,0,.252.252,0,0,0-.122.041.108.108,0,0,0-.035.038A.136.136,0,0,0,134.644,152.224Z" transform="translate(-119.451 -143.861)" fill="#ff9a6c"/>
                <path id="Path_34759" data-name="Path 34759" d="M117.572,161.934a.484.484,0,0,1,.29-.316.33.33,0,0,1,.2.014c.023,0,.049.014.049.038s-.029.041-.055.046a.428.428,0,0,0-.243.078.489.489,0,0,0-.067.1c-.02.032-.1.148-.145.113A.07.07,0,0,1,117.572,161.934Z" transform="translate(-107.331 -150.632)" fill="#ff9a6c"/>
                <path id="Path_34760" data-name="Path 34760" d="M111.214,169.959a9.429,9.429,0,0,1-3.391-.623,3.869,3.869,0,0,1-1.3-1.567,3.325,3.325,0,0,0,.9,2.027c1.158.993,3.782.895,3.782.895Z" transform="translate(-99.482 -155.008)" fill="#ff9a6c"/>
                <path id="Path_34761" data-name="Path 34761" d="M117.283,151.6c.055.29-.307-.11-.579-.058s-.51.579-.579.29a.579.579,0,0,1,.5-.623A.553.553,0,0,1,117.283,151.6Z" transform="translate(-106.304 -143.234)" fill="#263238"/>
                <path id="Path_34762" data-name="Path 34762" d="M129.856,149.941c.055.29-.307-.113-.579-.058s-.51.579-.579.29a.594.594,0,0,1,.5-.623A.55.55,0,0,1,129.856,149.941Z" transform="translate(-115.236 -142.054)" fill="#263238"/>
                <path id="Path_34763" data-name="Path 34763" d="M114.563,146.358l-1.222.562a.71.71,0,0,1,.342-.915.655.655,0,0,1,.88.353Z" transform="translate(-104.287 -139.504)"/>
                <path id="Path_34764" data-name="Path 34764" d="M119.115,163.46l1.662.614a.869.869,0,0,1-1.124.556A.932.932,0,0,1,119.115,163.46Z" transform="translate(-108.394 -151.947)" fill="#eb804e"/>
                <path id="Path_34765" data-name="Path 34765" d="M130.325,145.38l-1.245-.432a.637.637,0,0,1,.82-.4A.669.669,0,0,1,130.325,145.38Z" transform="translate(-115.509 -138.485)"/>
                <path id="Path_34766" data-name="Path 34766" d="M123.659,151.294l1.622-.727-2.111-2.887Z" transform="translate(-111.31 -140.736)" fill="#ff9a6c"/>
              </g>
              <path id="Path_34767" data-name="Path 34767" d="M120.161,165.793a.782.782,0,0,0-.811-.744.761.761,0,0,0-.2.038.906.906,0,0,0,.565.672A.846.846,0,0,0,120.161,165.793Z" transform="translate(-105.518 -153.075)" fill="#ff9a6c"/>
              <path id="Path_34768" data-name="Path 34768" d="M109.139,180.46a1.474,1.474,0,0,0-1.41-1.292,6.242,6.242,0,0,1-3.449-2.218l.043,1.393s.223,1.051,2.065,1.862a4.422,4.422,0,0,0,2.751.255Z" transform="translate(-94.955 -161.53)" fill="#e0e0e0"/>
              <path id="Path_34769" data-name="Path 34769" d="M121.06,181.4a2.685,2.685,0,0,1,.631-1.448c.206-.339-.182-.759-.182-.759l.017-.918a2.6,2.6,0,0,1,.736,1.19C122.3,179.989,123.021,181.112,121.06,181.4Z" transform="translate(-106.875 -162.475)" fill="#e0e0e0"/>
              <path id="Path_34770" data-name="Path 34770" d="M104.4,177.539c-.741-.313-1.738,2.152-1.738,2.152a9.574,9.574,0,0,1-2.968-1.376c-1.271-1.158-1.352-1.819-1.352-1.819s1.332-2.236,1.677-2.317l.023.663a3.95,3.95,0,0,0,1.622,1.517C102.9,177.064,104.1,177.163,104.4,177.539Z" transform="translate(-90.735 -159.562)" fill="#fafafa"/>
              <path id="Path_34771" data-name="Path 34771" d="M122.13,179c.182-.269.608-.261.927.194.191.275.84,1.448.84,1.448a4.431,4.431,0,0,0-.162-2.4c-.458-1.26-.953-1.929-1.448-1.958l-.029,1.494a.985.985,0,0,1,.026.655A4.979,4.979,0,0,0,122.13,179Z" transform="translate(-107.635 -161.054)" fill="#fafafa"/>
              <g id="freepik--Arm--inject-62" transform="translate(0 17.685)">
                <path id="Path_34772" data-name="Path 34772" d="M76.745,184.77c.9.18,2.45,3.594,2.386,7.092l.29,11,6.287,2.685c-1.141.663-2.027,3.128-2.1,4.865a37.731,37.731,0,0,1-8.6-2.25c-1.4-.628-2.16-1.115-2.378-5.062-.243-4.367-.736-9.177-.478-12.493C72.433,187.136,73.377,185.72,76.745,184.77Z" transform="translate(-72.079 -184.77)" fill="#00a99d"/>
              </g>
            </g>
          </g>
          <path id="Path_34776" data-name="Path 34776" d="M201.355,356.088v27.987l-.825-.478V355.61Z" transform="translate(-160.726 -288.45)" fill="#00a99d"/>
          <path id="Path_34777" data-name="Path 34777" d="M201.355,356.088v27.987l-.825-.478V355.61Z" transform="translate(-160.726 -288.45)" opacity="0.4"/>
          <path id="Path_34778" data-name="Path 34778" d="M203.38,356.088v27.987l.828-.478V355.61Z" transform="translate(-162.751 -288.45)" fill="#00a99d"/>
          <path id="Path_34779" data-name="Path 34779" d="M203.38,356.088v27.987l.828-.478V355.61Z" transform="translate(-162.751 -288.45)" opacity="0.25"/>
          <path id="Path_34780" data-name="Path 34780" d="M113.228,305.208v27.987l-.828-.478V304.73Z" transform="translate(-98.118 -252.305)" fill="#00a99d"/>
          <path id="Path_34781" data-name="Path 34781" d="M113.228,305.208v27.987l-.828-.478V304.73Z" transform="translate(-98.118 -252.305)" opacity="0.4"/>
          <path id="Path_34782" data-name="Path 34782" d="M115.26,305.208v27.987l.828-.478V304.73Z" transform="translate(-100.15 -252.305)" fill="#00a99d"/>
          <path id="Path_34783" data-name="Path 34783" d="M115.26,305.208v27.987l.828-.478V304.73Z" transform="translate(-100.15 -252.305)" opacity="0.25"/>
          <path id="Path_34784" data-name="Path 34784" d="M348.268,271.268v27.987l-.828-.478V270.79Z" transform="translate(-265.091 -228.194)" fill="#00a99d"/>
          <path id="Path_34785" data-name="Path 34785" d="M350.3,271.268v27.987l.825-.478V270.79Z" transform="translate(-267.123 -228.194)" fill="#00a99d"/>
          <path id="Path_34786" data-name="Path 34786" d="M138.748,304.683v5.89L112.4,295.363l0-5.893Z" transform="translate(-98.118 -241.464)" fill="#00a99d"/>
          <path id="Path_34787" data-name="Path 34787" d="M138.748,304.683v5.89L112.4,295.363l0-5.893Z" transform="translate(-98.118 -241.464)" opacity="0.4"/>
          <path id="Path_34788" data-name="Path 34788" d="M203.38,293.687l43.373-25.042,0-2.945L203.38,290.742Z" transform="translate(-162.751 -224.578)" fill="#00a99d"/>
          <path id="Path_34789" data-name="Path 34789" d="M203.38,293.687l43.373-25.042,0-2.945L203.38,290.742Z" transform="translate(-162.751 -224.578)" opacity="0.25"/>
          <g id="Group_69765" data-name="Group 69765" transform="translate(12.735 20.322) rotate(-25)">
            <path id="Path_34773" data-name="Path 34773" d="M7.628,0A23.338,23.338,0,0,0,6.264,7.925l-.276,11L0,21.614c1.087.663,1.931,3.128,2,4.865a34.557,34.557,0,0,0,8.193-2.25c1.338-.628,2.058-1.115,2.265-5.062.232-4.367.7-9.177.455-12.493A6.962,6.962,0,0,0,7.628,0Z" transform="translate(1.509 0)" fill="#53666f"/>
            <path id="Path_34774" data-name="Path 34774" d="M0,.708A4.488,4.488,0,0,1,3.666,1.866,3.33,3.33,0,0,0,1.833.3C.507-.164.017.048.017.048Z" transform="translate(7.345 18.207)" opacity="0.2"/>
            <path id="Path_34775" data-name="Path 34775" d="M1.839,0S.785.353,0,.7A4.567,4.567,0,0,1,1.839,2.2a5.864,5.864,0,0,1,.779,2.989l1.7-.29a5.163,5.163,0,0,0-.489-3.186A3.007,3.007,0,0,0,1.839,0Z" transform="translate(0 21.478)" fill="#37474f"/>
          </g>
          <g id="freepik--Desk--inject-62" transform="translate(11.73 22.964)">
            <path id="Path_34790" data-name="Path 34790" d="M132.489,246.2l-28.9-16.684L149.517,203l28.9,16.684Z" transform="translate(-103.59 -203)" fill="#00a99d"/>
            <path id="Path_34791" data-name="Path 34791" d="M132.489,246.2l-28.9-16.684L149.517,203l28.9,16.684Z" transform="translate(-103.59 -203)" fill="#fff" opacity="0.6"/>
            <path id="Path_34792" data-name="Path 34792" d="M103.59,294.56v1.471l28.9,16.687v-1.474Z" transform="translate(-103.59 -268.044)" fill="#00a99d"/>
            <path id="Path_34793" data-name="Path 34793" d="M103.59,294.56v1.471l28.9,16.687v-1.474Z" transform="translate(-103.59 -268.044)" fill="#fff" opacity="0.25"/>
            <path id="Path_34794" data-name="Path 34794" d="M203.38,288.6,249.3,262.084V260.61L203.38,287.126Z" transform="translate(-174.481 -243.926)" fill="#00a99d"/>
            <path id="Path_34795" data-name="Path 34795" d="M203.38,288.6,249.3,262.084V260.61L203.38,287.126Z" transform="translate(-174.481 -243.926)" fill="#fff" opacity="0.4"/>
          </g>
          <g id="freepik--Clipboard--inject-62" transform="translate(51.64 31.472)">
            <g id="freepik--List--inject-62">
              <path id="Path_34796" data-name="Path 34796" d="M241.4,239.12v.29a.29.29,0,0,0,.139.24l15.615,9.009a.313.313,0,0,0,.29,0l11.187-6.461a.307.307,0,0,0,.139-.24v-.29a.313.313,0,0,0-.139-.24l-15.618-9.015a.313.313,0,0,0-.29,0l-11.184,6.458A.3.3,0,0,0,241.4,239.12Z" transform="translate(-241.4 -232.377)" fill="#00a99d"/>
              <path id="Path_34797" data-name="Path 34797" d="M307.624,263.71c.058.043.052.107-.017.148l-11.187,6.458a.306.306,0,0,1-.139.032v.6a.315.315,0,0,0,.139-.032l11.187-6.461a.29.29,0,0,0,.136-.24v-.29A.31.31,0,0,0,307.624,263.71Z" transform="translate(-280.387 -254.636)" opacity="0.5"/>
              <path id="Path_34798" data-name="Path 34798" d="M241.584,254.89h0l-.017.02h0a.312.312,0,0,0-.069.151.107.107,0,0,0,0,.032v.29a.29.29,0,0,0,.139.24l15.586,9.03a.307.307,0,0,0,.139.032v-.6a.308.308,0,0,1-.139-.032l-15.615-9.015a.124.124,0,0,1-.055-.055.078.078,0,0,1,.017-.078Z" transform="translate(-241.468 -248.37)" opacity="0.6"/>
              <g id="Group_69728" data-name="Group 69728" transform="translate(0.007 0.02)" opacity="0.3">
                <path id="Path_34799" data-name="Path 34799" d="M241.425,255.42a.479.479,0,0,0,0,.052h0A.171.171,0,0,1,241.425,255.42Z" transform="translate(-241.423 -248.767)"/>
                <path id="Path_34800" data-name="Path 34800" d="M268.79,241.649,257.6,248.107a.319.319,0,0,1-.29,0L241.7,239.091a.1.1,0,0,1-.052-.055.072.072,0,0,1,.014-.078h0l.023-.017,11.184-6.458a.313.313,0,0,1,.29,0l15.618,9.015h.017C268.865,241.547,268.857,241.608,268.79,241.649Z" transform="translate(-241.577 -232.447)"/>
                <path id="Path_34801" data-name="Path 34801" d="M241.69,255Z" transform="translate(-241.613 -248.469)" opacity="0.15"/>
              </g>
              <path id="Path_34802" data-name="Path 34802" d="M255.986,240.321c0,.252.35.515.446.738a.5.5,0,0,1,.023.058c-.049.159-.2.269-.229.374a.353.353,0,0,0,0,.075v.211a.46.46,0,0,0,.02.148,1,1,0,0,1-.035.153.911.911,0,0,0-.052.266v.206a.188.188,0,0,0,.107.191l.625.362,4.689-2.708v-.209l-.628-.362a.545.545,0,0,0-.333-.046h-.041a2.575,2.575,0,0,0-.429.029,3.841,3.841,0,0,1-.707.017h-.18a1,1,0,0,0-.13,0,3.07,3.07,0,0,1-1.092.122h-.017a8.852,8.852,0,0,0-1.274-.258h-.043a.993.993,0,0,0-.5.133c-.168.1-.232.2-.232.29Zm.712.145a.261.261,0,0,1,.113-.11.467.467,0,0,1,.116-.049,1.19,1.19,0,0,1,.869.13.579.579,0,0,1,.252.246.269.269,0,0,1-.113.107.924.924,0,0,1-.637.049,1.176,1.176,0,0,1-.339-.13A.579.579,0,0,1,256.7,240.466Z" transform="translate(-251.758 -237.572)" fill="#263238"/>
              <path id="Path_34803" data-name="Path 34803" d="M260.612,239.78h-.041a2.576,2.576,0,0,0-.429.029,3.84,3.84,0,0,1-.707.017h-.18a1,1,0,0,0-.13,0,3.07,3.07,0,0,1-1.092.122h-.017a8.849,8.849,0,0,0-1.274-.258H256.7a.993.993,0,0,0-.5.133c-.579.33.078.73.214,1.045s-.159.484-.206.64.081.243-.026.579-.026.408.055.455l.626.362,4.689-2.708-.628-.362a.545.545,0,0,0-.316-.055Zm-3.513,2.635a.29.29,0,0,1-.252-.029c-.081-.049-.1-.116-.038-.151a.29.29,0,0,1,.258.023c.07.041.1.107.038.142Zm.811-1.61a.924.924,0,0,1-.637.049,1.176,1.176,0,0,1-.339-.13c-.307-.177-.368-.429-.136-.562a.465.465,0,0,1,.116-.049,1.2,1.2,0,0,1,.869.13c.3.162.365.405.133.547Zm2.806-.478a.29.29,0,0,1-.258-.02c-.081-.049-.1-.116-.038-.151a.289.289,0,0,1,.258.023c.087.032.1.1.044.133Z" transform="translate(-251.75 -237.572)" fill="#37474f"/>
              <path id="Path_34804" data-name="Path 34804" d="M262.62,250.105l9.733-5.621a.179.179,0,0,0,.084-.142v-.11a.185.185,0,0,0-.084-.145L259.5,236.662a.191.191,0,0,0-.168,0l-9.736,5.621a.182.182,0,0,0-.084.145v.11a.182.182,0,0,0,.084.145l12.861,7.425A.185.185,0,0,0,262.62,250.105Z" transform="translate(-247.161 -235.408)" fill="#fafafa"/>
              <path id="Path_34805" data-name="Path 34805" d="M304.328,262.41c.026.023.02.058-.017.078l-9.736,5.621a.157.157,0,0,1-.084.02v.29a.157.157,0,0,0,.084-.02l9.733-5.621a.179.179,0,0,0,.084-.142v-.11A.171.171,0,0,0,304.328,262.41Z" transform="translate(-279.115 -253.713)" fill="#f0f0f0"/>
              <path id="Path_34806" data-name="Path 34806" d="M249.617,256.16a.172.172,0,0,0-.023.023v.014a.133.133,0,0,0-.026.043.123.123,0,0,0,0,.032.049.049,0,0,0,0,.02v.11a.182.182,0,0,0,.084.145l12.861,7.425a.154.154,0,0,0,.081.02v-.29a.153.153,0,0,1-.081-.02l-12.878-7.44C249.593,256.221,249.588,256.186,249.617,256.16Z" transform="translate(-247.201 -249.273)" fill="#e0e0e0"/>
              <path id="Path_34807" data-name="Path 34807" d="M261.19,241.8v.211a.472.472,0,0,0,.11.29L267.034,239v-.226a1.231,1.231,0,0,0-.559-.142h0a.949.949,0,0,0-.382.078c-.414.191-.539.249-.791.356a.417.417,0,0,1-.391-.055h0l-.174-.156-.463-.431a.29.29,0,0,0-.22-.069h0a.882.882,0,0,0-.11,0,1.548,1.548,0,0,1-.475,0,1.042,1.042,0,0,1-.518-.2,1.2,1.2,0,0,0-.8-.29h-.023a1.159,1.159,0,0,0-.53.125.579.579,0,0,0-.348.62.556.556,0,0,0,.2.536.417.417,0,0,1,.127.243.548.548,0,0,1-.113.266.223.223,0,0,0-.061.139V240a.13.13,0,0,0,.052.1l.536.492.174.159.017.02a.492.492,0,0,1-.041.055l-.721.547A.579.579,0,0,0,261.19,241.8Zm1.532-3.145a.411.411,0,0,1-.2.214.814.814,0,0,1-.6.035.721.721,0,0,1-.229-.133.428.428,0,0,1-.11-.159.411.411,0,0,1,.2-.214l.078-.035a.785.785,0,0,1,.753.13A.46.46,0,0,1,262.722,238.656Z" transform="translate(-255.459 -236.272)" fill="#37474f"/>
              <path id="Path_34808" data-name="Path 34808" d="M266.47,238.667h0a.95.95,0,0,0-.382.078c-.414.191-.539.249-.791.356a.417.417,0,0,1-.391-.055h0l-.174-.156-.463-.432a.289.289,0,0,0-.22-.069h0a.9.9,0,0,0-.11,0,1.546,1.546,0,0,1-.475,0,1.043,1.043,0,0,1-.518-.2,1.2,1.2,0,0,0-.8-.29h-.023a1.158,1.158,0,0,0-.53.125.547.547,0,0,0-.148.947.579.579,0,0,1,.015.718c-.133.159,0,.243,0,.243l.536.5.174.156c.127.119-.023.29-.023.29l-.73.53c-.29.269-.29.489-.127.7l5.737-3.31A1.231,1.231,0,0,0,266.47,238.667Zm-3.863-.35a.339.339,0,0,1-.093.579.814.814,0,0,1-.6.035.721.721,0,0,1-.229-.133.339.339,0,0,1,.093-.579l.078-.035A.794.794,0,0,1,262.607,238.317Z" transform="translate(-255.454 -236.3)" fill="#455a64"/>
            </g>
            <path id="Path_34809" data-name="Path 34809" d="M264.986,255.771l3.044,1.758a.234.234,0,0,0,.2,0l4.2-2.427c.055-.032.055-.081,0-.113l-3.041-1.758a.22.22,0,0,0-.2,0l-4.2,2.424a.061.061,0,0,0,0,.116Z" transform="translate(-258.126 -247.175)" fill="#00a99d" opacity="0.1"/>
            <path id="Path_34810" data-name="Path 34810" d="M270.257,262.978l-2.317-1.338.162-.09,2.314,1.335Z" transform="translate(-260.254 -253.102)" fill="#00a99d"/>
            <path id="Path_34811" data-name="Path 34811" d="M276.37,266.543l.232-.133.07.041-.232.133Z" transform="translate(-266.243 -256.554)" fill="#455a64"/>
            <path id="Path_34812" data-name="Path 34812" d="M272.443,263.021l-1.853-1.069.159-.093,1.853,1.072Z" transform="translate(-262.137 -253.322)" fill="#00a99d"/>
            <path id="Path_34813" data-name="Path 34813" d="M277.42,265.933l.232-.133.07.041-.232.136Z" transform="translate(-266.989 -256.121)" fill="#455a64"/>
            <path id="Path_34814" data-name="Path 34814" d="M273.653,261.874l-2.013-1.161.159-.093,2.013,1.161Z" transform="translate(-262.883 -252.441)" fill="#00a99d"/>
            <path id="Path_34815" data-name="Path 34815" d="M279.02,265.013l.232-.133.07.04-.232.133Z" transform="translate(-268.125 -255.467)" fill="#455a64"/>
            <path id="Path_34816" data-name="Path 34816" d="M275.552,261.761l-1.662-.959.159-.093,1.665.961Z" transform="translate(-264.481 -252.505)" fill="#00a99d"/>
            <path id="Path_34817" data-name="Path 34817" d="M280.06,264.4l.232-.133.072.041-.232.136Z" transform="translate(-268.864 -255.034)" fill="#455a64"/>
            <path id="Path_34818" data-name="Path 34818" d="M278.96,261.878l-.93-.536.159-.093.93.536Z" transform="translate(-267.422 -252.889)" fill="#00a99d"/>
            <path id="Path_34819" data-name="Path 34819" d="M281.66,263.483l.232-.133.069.041-.229.133Z" transform="translate(-270.001 -254.38)" fill="#455a64"/>
            <path id="Path_34820" data-name="Path 34820" d="M279.694,261.1l-1.054-.608.162-.093,1.051.608Z" transform="translate(-267.855 -252.285)" fill="#00a99d"/>
            <path id="Path_34821" data-name="Path 34821" d="M282.71,262.883l.232-.133.069.04-.232.133Z" transform="translate(-270.747 -253.954)" fill="#455a64"/>
            <path id="Path_34822" data-name="Path 34822" d="M280.768,259.865l-1.268-.733.159-.093,1.268.733Z" transform="translate(-268.466 -251.319)" fill="#00a99d"/>
            <path id="Path_34823" data-name="Path 34823" d="M284.32,261.953l.232-.133.07.041-.232.133Z" transform="translate(-271.89 -253.293)" fill="#455a64"/>
            <path id="Path_34824" data-name="Path 34824" d="M282.905,259.891l-.825-.478.159-.093.825.478Z" transform="translate(-270.299 -251.517)" fill="#00a99d"/>
            <path id="Path_34825" data-name="Path 34825" d="M285.37,261.346l.232-.136.07.043-.232.133Z" transform="translate(-272.636 -252.86)" fill="#455a64"/>
            <path id="Path_34826" data-name="Path 34826" d="M285.642,259.628l-.362-.208.159-.09.362.208Z" transform="translate(-272.572 -251.525)" fill="#00a99d"/>
            <path id="Path_34827" data-name="Path 34827" d="M270.257,262.978l-2.317-1.338.162-.09,2.314,1.335Z" transform="translate(-260.254 -253.102)" fill="#00a99d"/>
            <path id="Path_34828" data-name="Path 34828" d="M273.653,261.874l-2.013-1.161.159-.093,2.013,1.161Z" transform="translate(-262.883 -252.441)" fill="#00a99d"/>
            <path id="Path_34829" data-name="Path 34829" d="M278.96,261.878l-.93-.536.159-.093.93.536Z" transform="translate(-267.422 -252.889)" fill="#00a99d"/>
            <path id="Path_34830" data-name="Path 34830" d="M280.768,259.865l-1.268-.733.159-.093,1.268.733Z" transform="translate(-268.466 -251.319)" fill="#00a99d"/>
            <path id="Path_34831" data-name="Path 34831" d="M285.642,259.628l-.362-.208.159-.09.362.208Z" transform="translate(-272.572 -251.525)" fill="#00a99d"/>
            <path id="Path_34832" data-name="Path 34832" d="M286.96,260.423l.232-.133.072.041-.232.133Z" transform="translate(-273.766 -252.207)" fill="#455a64"/>
            <path id="Path_34833" data-name="Path 34833" d="M287.139,259.277l-.18-.1.159-.093.18.1Z" transform="translate(-273.766 -251.347)" fill="#00a99d"/>
            <path id="Path_34834" data-name="Path 34834" d="M288.01,259.816l.232-.136.072.043-.232.133Z" transform="translate(-274.512 -251.773)" fill="#455a64"/>
            <path id="Path_34835" data-name="Path 34835" d="M275.234,257.08l-.174.1.174.1.174-.1Z" transform="translate(-265.312 -249.926)" fill="#00a99d"/>
            <path id="Path_34836" data-name="Path 34836" d="M275.234,257.08l-.174.1.174.1.174-.1Z" transform="translate(-265.312 -249.926)" opacity="0.25"/>
            <path id="Path_34837" data-name="Path 34837" d="M277.292,254.423l-1.24.718c-.026.014-.026.038,0,.052l.032.02a.1.1,0,0,0,.093,0l1.239-.718c.026,0,.026-.038,0-.052l-.035-.02a.1.1,0,0,0-.09,0Z" transform="translate(-266.003 -248.031)" fill="#455a64"/>
            <path id="Path_34838" data-name="Path 34838" d="M276.234,257.66l-.174.1.174.1.174-.1Z" transform="translate(-266.022 -250.338)" fill="#00a99d"/>
            <path id="Path_34839" data-name="Path 34839" d="M278.284,254.975l-1.242.715a.029.029,0,0,0,0,.055l.032.017a.1.1,0,0,0,.093,0l1.239-.715c.026-.014.026-.038,0-.052l-.035-.02A.1.1,0,0,0,278.284,254.975Z" transform="translate(-266.705 -248.424)" fill="#455a64"/>
            <path id="Path_34840" data-name="Path 34840" d="M270.257,262.978l-2.317-1.338.162-.09,2.314,1.335Z" transform="translate(-260.254 -253.102)" fill="#00a99d"/>
            <path id="Path_34841" data-name="Path 34841" d="M273.653,261.874l-2.013-1.161.159-.093,2.013,1.161Z" transform="translate(-262.883 -252.441)" fill="#00a99d"/>
            <path id="Path_34842" data-name="Path 34842" d="M278.96,261.878l-.93-.536.159-.093.93.536Z" transform="translate(-267.422 -252.889)" fill="#00a99d"/>
            <path id="Path_34843" data-name="Path 34843" d="M280.768,259.865l-1.268-.733.159-.093,1.268.733Z" transform="translate(-268.466 -251.319)" fill="#00a99d"/>
            <path id="Path_34844" data-name="Path 34844" d="M270.257,262.978l-2.317-1.338.162-.09,2.314,1.335Z" transform="translate(-260.254 -253.102)" fill="#00a99d"/>
            <path id="Path_34845" data-name="Path 34845" d="M273.653,261.874l-2.013-1.161.159-.093,2.013,1.161Z" transform="translate(-262.883 -252.441)" fill="#00a99d"/>
            <path id="Path_34846" data-name="Path 34846" d="M278.96,261.878l-.93-.536.159-.093.93.536Z" transform="translate(-267.422 -252.889)" fill="#00a99d"/>
            <path id="Path_34847" data-name="Path 34847" d="M280.768,259.865l-1.268-.733.159-.093,1.268.733Z" transform="translate(-268.466 -251.319)" fill="#00a99d"/>
            <path id="Path_34848" data-name="Path 34848" d="M285.642,259.628l-.362-.208.159-.09.362.208Z" transform="translate(-272.572 -251.525)" fill="#00a99d"/>
            <path id="Path_34849" data-name="Path 34849" d="M270.257,262.978l-2.317-1.338.162-.09,2.314,1.335Z" transform="translate(-260.254 -253.102)" opacity="0.25"/>
            <path id="Path_34850" data-name="Path 34850" d="M273.653,261.874l-2.013-1.161.159-.093,2.013,1.161Z" transform="translate(-262.883 -252.441)" opacity="0.25"/>
            <path id="Path_34851" data-name="Path 34851" d="M278.96,261.878l-.93-.536.159-.093.93.536Z" transform="translate(-267.422 -252.889)" opacity="0.25"/>
            <path id="Path_34852" data-name="Path 34852" d="M280.768,259.865l-1.268-.733.159-.093,1.268.733Z" transform="translate(-268.466 -251.319)" opacity="0.25"/>
            <path id="Path_34853" data-name="Path 34853" d="M285.642,259.628l-.362-.208.159-.09.362.208Z" transform="translate(-272.572 -251.525)" opacity="0.25"/>
            <path id="Path_34854" data-name="Path 34854" d="M279.725,264.274l4.008,2.317a.29.29,0,0,0,.261,0l4.138-2.389c.072-.041.072-.107,0-.151l-4.008-2.317a.289.289,0,0,0-.261,0l-4.138,2.389a.081.081,0,0,0,0,.151Z" transform="translate(-268.59 -253.21)" fill="#00a99d" opacity="0.1"/>
            <path id="Path_34855" data-name="Path 34855" d="M281.739,269.87l-.229.13.229.133.229-.133Z" transform="translate(-269.894 -259.012)" fill="#00a99d"/>
            <path id="Path_34856" data-name="Path 34856" d="M283.529,268.279l-.756.437c-.02,0-.02.029,0,.041l.061.035a.081.081,0,0,0,.072,0l.756-.434c.02,0,.02-.032,0-.041l-.064-.038A.075.075,0,0,0,283.529,268.279Z" transform="translate(-270.78 -257.876)" fill="#455a64"/>
            <path id="Path_34857" data-name="Path 34857" d="M286.209,267.28l-.229.133.229.13.229-.13Z" transform="translate(-273.07 -257.172)" fill="#00a99d"/>
            <path id="Path_34858" data-name="Path 34858" d="M286.209,267.28l-.229.133.229.13.229-.13Z" transform="translate(-273.07 -257.172)" opacity="0.25"/>
            <path id="Path_34859" data-name="Path 34859" d="M288.046,265.707l-.753.437c-.02,0-.02.029,0,.041l.061.038a.1.1,0,0,0,.072,0l.756-.434a.023.023,0,0,0,0-.041l-.064-.038A.1.1,0,0,0,288.046,265.707Z" transform="translate(-273.991 -256.051)" fill="#455a64"/>
            <path id="Path_34860" data-name="Path 34860" d="M290.689,264.7l-.229.13.229.133.229-.133Z" transform="translate(-276.252 -255.339)" fill="#00a99d"/>
            <path id="Path_34861" data-name="Path 34861" d="M290.689,264.7l-.229.13.229.133.229-.133Z" transform="translate(-276.252 -255.339)" opacity="0.4"/>
            <path id="Path_34862" data-name="Path 34862" d="M292.566,263.129l-.753.434c-.02,0-.02.032,0,.04l.061.038a.081.081,0,0,0,.072,0l.753-.437c.02,0,.02-.029,0-.041l-.061-.035A.081.081,0,0,0,292.566,263.129Z" transform="translate(-277.202 -254.217)" fill="#455a64"/>
            <path id="Path_34863" data-name="Path 34863" d="M292.564,267.46l-.061-.029-.052-.02a2.447,2.447,0,0,0-.429-.122l-.142-.023a2.4,2.4,0,0,0-.29-.026h-.359l-.142.014h-.133l-.072.015a2.072,2.072,0,0,0-.249.067l-.087.029-.1.041a.964.964,0,0,0-.1.046l-.093.049a.742.742,0,0,0,0,1.407,2.7,2.7,0,0,0,2.438,0,.742.742,0,0,0,0-1.407A1.155,1.155,0,0,0,292.564,267.46Zm-.133,1.323a1.92,1.92,0,0,1-.892.226h-.156a1.827,1.827,0,0,1-.869-.223.581.581,0,0,1,0-1.1,1.379,1.379,0,0,1,.185-.09l.154-.055.081-.02H291l.081-.017h.426a2.4,2.4,0,0,1,.385.041,1.674,1.674,0,0,1,.527.188c.539.258.539.75.012,1.054Z" transform="translate(-275.75 -257.144)" fill="#00a99d"/>
            <path id="Path_34864" data-name="Path 34864" d="M293.264,267.257l-.119.206a2.412,2.412,0,0,0-.385-.041h-.426l-.081.017h-.067l-.081.02-.154.055a1.1,1.1,0,0,0-.185.09l-.266-.154.093-.049a.96.96,0,0,1,.1-.046l.1-.041.087-.029a2.088,2.088,0,0,1,.249-.067l.072-.014h.133l.142-.015h.359a2.409,2.409,0,0,1,.29.026Z" transform="translate(-276.991 -257.108)" opacity="0.25"/>
            <path id="Path_34865" data-name="Path 34865" d="M297.973,267.66l-.266.153a1.673,1.673,0,0,0-.527-.188l.119-.206a2.455,2.455,0,0,1,.429.122l.052.02.061.029A1.15,1.15,0,0,1,297.973,267.66Z" transform="translate(-281.026 -257.272)" opacity="0.4"/>
            <path id="Path_34866" data-name="Path 34866" d="M259.587,247.136l8.23-4.752-.837-.484-8.23,4.752Z" transform="translate(-253.725 -239.142)" fill="#00a99d"/>
            <g id="Group_69729" data-name="Group 69729" transform="translate(12.065 3.886)" opacity="0.3">
              <path id="Path_34867" data-name="Path 34867" d="M283.131,247.8a.073.073,0,0,1-.061-.035.069.069,0,0,1,.026-.093l3.243-1.871a.067.067,0,0,1,.093.023.069.069,0,0,1-.026.1l-3.241,1.871A.078.078,0,0,1,283.131,247.8Z" transform="translate(-283.062 -245.796)" fill="#455a64"/>
              <path id="Path_34868" data-name="Path 34868" d="M285.063,248.918a.064.064,0,0,1-.058-.035.069.069,0,0,1,.023-.1l3.244-1.871a.069.069,0,0,1,.07.119L285.1,248.91A.078.078,0,0,1,285.063,248.918Z" transform="translate(-284.435 -246.586)" fill="#455a64"/>
              <path id="Path_34869" data-name="Path 34869" d="M286.995,250.072a.067.067,0,0,1-.058-.032.07.07,0,0,1,.026-.1l3.241-1.871a.064.064,0,0,1,.093.026.067.067,0,0,1-.023.093l-3.244,1.871A.061.061,0,0,1,286.995,250.072Z" transform="translate(-285.808 -247.407)" fill="#455a64"/>
              <path id="Path_34870" data-name="Path 34870" d="M288.938,251.148a.069.069,0,0,1-.035-.127l3.241-1.874a.07.07,0,0,1,.07.122l-3.241,1.871Z" transform="translate(-287.189 -248.17)" fill="#455a64"/>
              <path id="Path_34871" data-name="Path 34871" d="M290.83,252.265a.075.075,0,0,1-.061-.032.072.072,0,0,1,.026-.1l3.241-1.871a.069.069,0,1,1,.07.119l-3.241,1.871Z" transform="translate(-288.531 -248.965)" fill="#455a64"/>
            </g>
            <g id="Group_69730" data-name="Group 69730" transform="translate(16.544 6.469)" opacity="0.3">
              <path id="Path_34872" data-name="Path 34872" d="M298.593,256.724a.064.064,0,0,1-.058-.035.067.067,0,0,1,.023-.093l3.243-1.871a.067.067,0,0,1,.093.023.07.07,0,0,1-.023.1l-3.244,1.871Z" transform="translate(-298.526 -254.715)" fill="#455a64"/>
              <path id="Path_34873" data-name="Path 34873" d="M300.525,257.838a.064.064,0,0,1-.058-.035.069.069,0,0,1,.026-.1l3.241-1.871a.069.069,0,0,1,.07.119l-3.243,1.874A.061.061,0,0,1,300.525,257.838Z" transform="translate(-299.898 -255.506)" fill="#455a64"/>
              <path id="Path_34874" data-name="Path 34874" d="M302.468,258.967a.069.069,0,0,1-.035-.127l3.241-1.865a.07.07,0,0,1,.1.023.072.072,0,0,1-.026.1l-3.241,1.871Z" transform="translate(-301.28 -256.313)" fill="#455a64"/>
              <path id="Path_34875" data-name="Path 34875" d="M304.392,260.068a.072.072,0,0,1-.061-.035.075.075,0,0,1,.026-.1l3.241-1.871a.069.069,0,1,1,.07.119l-3.241,1.882Z" transform="translate(-302.645 -257.09)" fill="#455a64"/>
              <path id="Path_34876" data-name="Path 34876" d="M306.321,261.183a.072.072,0,0,1-.061-.035.069.069,0,0,1,.026-.093l3.241-1.871a.069.069,0,1,1,.069.119l-3.241,1.871A.079.079,0,0,1,306.321,261.183Z" transform="translate(-304.014 -257.883)" fill="#455a64"/>
              <path id="Path_34877" data-name="Path 34877" d="M308.251,262.3a.073.073,0,0,1-.061-.035.069.069,0,0,1,.026-.093l3.241-1.874a.07.07,0,1,1,.069.122l-3.241,1.871A.079.079,0,0,1,308.251,262.3Z" transform="translate(-305.385 -258.674)" fill="#455a64"/>
            </g>
          </g>
          <g id="freepik--Folder--inject-62" transform="translate(35.136 44.675)">
            <path id="Path_34878" data-name="Path 34878" d="M200,280.49l-14.885,8.6,11.879,6.858,14.848-8.572Z" transform="translate(-184.907 -279.76)" opacity="0.2"/>
            <path id="Path_34879" data-name="Path 34879" d="M210.735,285.1a.249.249,0,0,0,0-.469L199.3,277.97l-14.888,8.61,11.465,6.626a.9.9,0,0,0,.808,0l8.5-4.909,1.425.266a.379.379,0,0,0,.264-.043l3.53-2.027a.391.391,0,0,0,.13-.55l-.374-.513Z" transform="translate(-184.41 -277.97)" fill="#00a99d"/>
            <path id="Path_34880" data-name="Path 34880" d="M210.735,285.1a.249.249,0,0,0,0-.469L199.3,277.97l-14.888,8.61,11.465,6.626a.9.9,0,0,0,.808,0l8.5-4.909,1.425.266a.379.379,0,0,0,.264-.043l3.53-2.027a.391.391,0,0,0,.13-.55l-.374-.513Z" transform="translate(-184.41 -277.97)" opacity="0.15"/>
            <path id="Path_34881" data-name="Path 34881" d="M200.534,278.02l-14.384,8.306,11.378,6.571,14.848-8.572Z" transform="translate(-185.646 -278.005)" fill="#f0f0f0"/>
            <path id="Path_34882" data-name="Path 34882" d="M184.41,286.6l11.465,5.32a1.008,1.008,0,0,0,.828-.035l14.04-8.109c.223-.13.214-.322-.017-.432L199.3,278Z" transform="translate(-184.41 -277.991)" fill="#00a99d"/>
          </g>
          <g id="freepik--Laptop--inject-62" transform="translate(20.154 29.72)">
            <path id="freepik--shadow--inject-62-3" data-name="freepik--shadow--inject-62" d="M162.063,258.3l-10.5-6.064a.605.605,0,0,0-.6,0l-18.219,10.521a.136.136,0,0,0,0,.232l10.6,6.119Z" transform="translate(-132.677 -244.675)" opacity="0.1"/>
            <path id="Path_34883" data-name="Path 34883" d="M162.371,269v.235a.967.967,0,0,1-.487.84l-16.968,9.786a.968.968,0,0,1-.484.127.988.988,0,0,1-.489-.127l-9.25-5.323a.979.979,0,0,1-.484-.84v-.327h0a.124.124,0,0,0,.061.107l10.159,5.864Z" transform="translate(-133.766 -256.643)" fill="#37474f"/>
            <path id="Path_34884" data-name="Path 34884" d="M169.51,279.344V280a.97.97,0,0,0,.484-.13l16.968-9.8a.967.967,0,0,0,.487-.84V269Z" transform="translate(-158.843 -256.643)" fill="#263238"/>
            <path id="Path_34885" data-name="Path 34885" d="M162.373,254.6l-10.061-5.792a.579.579,0,0,0-.579,0l-17.454,10.078a.127.127,0,0,0,0,.223l10.156,5.864Z" transform="translate(-133.768 -242.244)" fill="#455a64"/>
            <path id="Path_34886" data-name="Path 34886" d="M155.877,271.621l-5.427-3.131,15.867-9.16,5.456,3.113Z" transform="translate(-145.303 -249.773)" fill="#37474f"/>
            <path id="Path_34887" data-name="Path 34887" d="M171.773,262.443l-.209.119-5.247-2.994-15.662,9.044-.206-.122,15.867-9.16Z" transform="translate(-145.303 -249.773)" fill="#263238"/>
            <path id="Path_34888" data-name="Path 34888" d="M159.97,264.866l.1.058,2.659,1.538,4.732-2.734.1-.055-2.76-1.593Z" transform="translate(-152.066 -251.727)" fill="#263238"/>
            <path id="Path_34889" data-name="Path 34889" d="M160.32,265.2l2.658,1.538L167.711,264l-2.661-1.535Z" transform="translate(-152.315 -252.004)" fill="#37474f"/>
            <path id="Path_34892" data-name="Path 34892" d="M170.45,249.6a1.158,1.158,0,0,0,.99-.075l16.9-9.754a1.158,1.158,0,0,0,.559-.805l1.848-11.028a1.066,1.066,0,0,0,.017-.191,1.159,1.159,0,0,0-.342-.817l-17.556,10.136a.869.869,0,0,0-.414.594Z" transform="translate(-159.511 -226.756)" fill="#37474f"/>
            <path id="Path_34893" data-name="Path 34893" d="M169.51,249.032l.113.067a1.14,1.14,0,0,0,.159.075l2-11.937a.868.868,0,0,1,.414-.594l17.555-10.136a1.107,1.107,0,0,0-.235-.177l-17.59,10.156a.869.869,0,0,0-.414.594Z" transform="translate(-158.843 -226.33)" fill="#455a64"/>
            <path id="Path_34894" data-name="Path 34894" d="M171.945,262.336l-.272-.156a.833.833,0,0,0-.162.365l-2,11.955.113.067a1.142,1.142,0,0,0,.159.075l2-11.937A.817.817,0,0,1,171.945,262.336Z" transform="translate(-158.843 -251.798)" fill="#263238"/>
            <path id="Path_34895" data-name="Path 34895" d="M203.268,264.067a3.723,3.723,0,0,1,1.7-2.189c.817-.472,1.378-.255,1.254.484a3.726,3.726,0,0,1-1.7,2.189C203.7,265.02,203.143,264.805,203.268,264.067Z" transform="translate(-182.812 -251.406)" fill="#00a99d"/>
          </g>
          <g id="Group_69764" data-name="Group 69764" transform="translate(2.605 17.685)">
            <path id="Path_34773-2" data-name="Path 34773" d="M76.745,184.77c.9.18,2.45,3.594,2.386,7.092l.29,11,6.287,2.685c-1.141.663-2.027,3.128-2.1,4.865a37.731,37.731,0,0,1-8.6-2.25c-1.4-.628-2.16-1.115-2.378-5.062-.243-4.367-.736-9.177-.478-12.493C72.433,187.136,73.377,185.72,76.745,184.77Z" transform="translate(-72.079 -184.77)" fill="#53666f"/>
            <path id="Path_34774-2" data-name="Path 34774" d="M88.476,245.473a4.488,4.488,0,0,0-3.666,1.158,3.33,3.33,0,0,1,1.833-1.564c1.326-.466,1.816-.255,1.816-.255Z" transform="translate(-81.123 -227.39)" opacity="0.2"/>
            <path id="Path_34775-2" data-name="Path 34775" d="M111.754,256.06s1.054.353,1.839.7a4.567,4.567,0,0,0-1.839,1.5,5.864,5.864,0,0,0-.779,2.989l-1.7-.29a5.164,5.164,0,0,1,.489-3.186A3.007,3.007,0,0,1,111.754,256.06Z" transform="translate(-98.456 -235.414)" fill="#37474f"/>
            <path id="Path_34890" data-name="Path 34890" d="M131.876,262.253c-.449-.078-1.216,1.387-2.114,1.2a9.742,9.742,0,0,0-3.388-.116,9.8,9.8,0,0,1-3.243.7c-.921-.11-2.317-.29-3.939-.605s-2.774-.521-3.852-.733a5.856,5.856,0,0,1,.779-2.986,4.562,4.562,0,0,1,1.839-1.5l4.393,1.685a6.261,6.261,0,0,0,3.8-1.08c.237-.133.487-.258.733-.374a2.675,2.675,0,0,1,.869-.174c.643-.069,1.216-.061,1.917-.165a.243.243,0,0,1,.145.023c.116.067.09.246.029.365a1.738,1.738,0,0,1-.715.684,7.7,7.7,0,0,1-.927.365,5.052,5.052,0,0,1,.7.087,9.241,9.241,0,0,1,3.2,1.613C133,261.86,132.328,262.332,131.876,262.253Z" transform="translate(-102.812 -236.864)" fill="#ffbf9d"/>
            <path id="Path_34891" data-name="Path 34891" d="M155.017,260.357a3.216,3.216,0,0,0-1.237.437,7.122,7.122,0,0,1,1.714,0,7.52,7.52,0,0,0,.927-.365,1.794,1.794,0,0,0,.654-.579A3.793,3.793,0,0,1,155.017,260.357Z" transform="translate(-130.12 -238.107)" fill="#ff9a6c"/>
          </g>
        </g>
      </g>
    </g>
  </g>
</svg>
