<svg id="Group_70386" data-name="Group 70386" xmlns="http://www.w3.org/2000/svg" width="58.959" height="58.959" viewBox="0 0 58.959 58.959">
  <path id="Path_35716" data-name="Path 35716" d="M340.853,218.626a1.727,1.727,0,1,1-1.727-1.727A1.727,1.727,0,0,1,340.853,218.626Zm0,0" transform="translate(-298.546 -191.922)" fill="#00a99d"/>
  <path id="Path_35717" data-name="Path 35717" d="M303.585,72.3a6.347,6.347,0,0,0-6.351,6.351v0a1.727,1.727,0,1,0,3.455,0,2.9,2.9,0,1,1,2.9,2.9,1.727,1.727,0,0,0-1.727,1.727v1.85a1.727,1.727,0,1,0,3.455,0v-.361a6.353,6.353,0,0,0-1.73-12.467Zm0,0" transform="translate(-263.007 -63.975)" fill="#00a99d"/>
  <path id="Path_35718" data-name="Path 35718" d="M16.575,257.33a9.128,9.128,0,1,0-11.194,0A10.966,10.966,0,0,0,0,266.779v3.7a1.727,1.727,0,0,0,1.727,1.727h18.5a1.727,1.727,0,0,0,1.727-1.727v-3.7A10.966,10.966,0,0,0,16.575,257.33Zm-11.27-7.2a5.673,5.673,0,1,1,5.674,5.674A5.68,5.68,0,0,1,5.3,250.128Zm13.2,18.624H3.455v-1.973a7.523,7.523,0,0,1,15.047,0v1.973Zm0,0" transform="translate(0 -213.248)" fill="#00a99d"/>
  <path id="Path_35719" data-name="Path 35719" d="M222.28,0h-22.2A7.274,7.274,0,0,0,192.8,7.278v33.3a1.729,1.729,0,0,0,2.764,1.382l6.94-5.2H222.28a7.274,7.274,0,0,0,7.278-7.278V7.278A7.274,7.274,0,0,0,222.28,0ZM226.1,29.479A3.82,3.82,0,0,1,222.28,33.3H201.929a1.729,1.729,0,0,0-1.036.345l-4.637,3.478V7.278a3.82,3.82,0,0,1,3.823-3.823h22.2A3.82,3.82,0,0,1,226.1,7.278Zm0,0" transform="translate(-170.599)" fill="#00a99d"/>
</svg>
