<svg id="Group_70225" data-name="Group 70225" xmlns="http://www.w3.org/2000/svg" width="78.886" height="57.85" viewBox="0 0 78.886 57.85">
  <g id="_35-idea" data-name="35-idea" transform="translate(0 0)">
    <path id="Path_35702" data-name="Path 35702" d="M4175.935,169.053l50.432,1.547,8.811-8.617,13.626-.578v23.066l-74.073,1.354Z" transform="translate(-4171.95 -159.147)" fill="#00a99d"/>
    <path id="Path_35701" data-name="Path 35701" d="M77.256,5H64.109a2.63,2.63,0,0,0-1.867.763l-7.1,7.126H3.63A2.63,2.63,0,0,0,1,15.518V31.3a2.63,2.63,0,0,0,2.63,2.63h7.889v26.3a2.63,2.63,0,1,0,5.259,0V47.072H64.109V60.22a2.63,2.63,0,1,0,5.259,0v-26.3h7.889a2.63,2.63,0,0,0,2.63-2.63V7.63A2.63,2.63,0,0,0,77.256,5ZM64.109,41.813H16.777V33.925H64.109ZM74.627,28.666H6.259V18.148H56.22a2.63,2.63,0,0,0,1.867-.763l7.1-7.126h9.44Z" transform="translate(-1 -5)" fill="#003451"/>
  </g>
</svg>
