<svg id="Group_69762" data-name="Group 69762" xmlns="http://www.w3.org/2000/svg" width="123.998" height="101.71" viewBox="0 0 123.998 101.71">
  <ellipse id="Ellipse_784" data-name="Ellipse 784" cx="61.999" cy="19.518" rx="61.999" ry="19.518" transform="translate(0 62.674)" fill="#f2f2f2"/>
  <g id="freepik--Character--inject-82" transform="translate(20.811)">
    <rect id="Rectangle_18058" data-name="Rectangle 18058" width="44.428" height="31.576" rx="3" transform="translate(0 65.722)" fill="#455a64"/>
    <path id="Path_34479" data-name="Path 34479" d="M546.417,405.786h-11.5a3.592,3.592,0,0,1-3.587-3.587v-.565a3.59,3.59,0,0,1,3.587-3.584h11.5A3.59,3.59,0,0,1,550,401.634v.565A3.592,3.592,0,0,1,546.417,405.786Zm-11.5-7.477a3.33,3.33,0,0,0-3.328,3.325v.565a3.33,3.33,0,0,0,3.328,3.328h11.5a3.33,3.33,0,0,0,3.325-3.328v-.565a3.33,3.33,0,0,0-3.325-3.325Z" transform="translate(-502.642 -319.569)" fill="#263238"/>
    <circle id="Ellipse_778" data-name="Ellipse 778" cx="2.657" cy="2.657" r="2.657" transform="matrix(0.575, -0.818, 0.818, 0.575, 29.243, 82.982)" fill="#263238"/>
    <path id="Path_34480" data-name="Path 34480" d="M535.263,128.32a9.67,9.67,0,0,0,3.089,7.309q.687-2,1.381-4" transform="translate(-505.553 -119.747)" fill="#263238"/>
    <path id="Path_34481" data-name="Path 34481" d="M543.268,95.855a5.856,5.856,0,0,0-3.942-.474,12.38,12.38,0,0,0-3.729,1.54,6.126,6.126,0,0,0-1.783,1.392,8.614,8.614,0,0,0-1.793,4.243,15.247,15.247,0,0,0,.832,4.924c.433.93,2.46,1.638,3.46,1.869l9.175-10.676A4.649,4.649,0,0,0,543.268,95.855Z" transform="translate(-503.147 -95.241)" fill="#263238"/>
    <path id="Path_34482" data-name="Path 34482" d="M575.25,102.044l-2.2-.394c1.2,2.851,1.529,9.416,2.219,12.44.811-1.179,2.7-4.764,2.592-6.189S577.865,101.8,575.25,102.044Z" transform="translate(-533.549 -99.989)" fill="#263238"/>
    <path id="Path_34483" data-name="Path 34483" d="M552.974,107.816c-.142-2.2-1.607-4.893-3.8-4.665l-5.067,1.3a3.761,3.761,0,0,0-2.83,3.463v.044l1.133,13.125,3.8,7.55h0l3.369-6.368v-3.468c0,.005,2.809-.472,3.369-4.147A35.888,35.888,0,0,0,552.974,107.816Z" transform="translate(-510.013 -101.091)" fill="#ffbf9d"/>
    <path id="Path_34484" data-name="Path 34484" d="M577.658,131.579a.469.469,0,0,1-.451.477.454.454,0,0,1-.487-.422.474.474,0,0,1,.453-.477.454.454,0,0,1,.485.422Z" transform="translate(-536.268 -121.847)" fill="#263238"/>
    <path id="Path_34485" data-name="Path 34485" d="M578.937,125.308c-.06.062-.415-.2-.923-.2s-.876.259-.93.194.034-.137.194-.259a1.281,1.281,0,0,1,.744-.233,1.244,1.244,0,0,1,.733.236C578.911,125.17,578.966,125.279,578.937,125.308Z" transform="translate(-536.525 -117.146)" fill="#263238"/>
    <path id="Path_34486" data-name="Path 34486" d="M561.318,131.578a.469.469,0,0,1-.451.477.453.453,0,0,1-.487-.422.474.474,0,0,1,.453-.477.449.449,0,0,1,.485.422Z" transform="translate(-524.163 -121.846)" fill="#263238"/>
    <path id="Path_34487" data-name="Path 34487" d="M560.4,125.308c-.057.062-.415-.2-.92-.2s-.876.259-.93.194.031-.137.194-.259a1.272,1.272,0,0,1,.744-.233,1.244,1.244,0,0,1,.733.236C560.38,125.17,560.432,125.279,560.4,125.308Z" transform="translate(-522.797 -117.146)" fill="#263238"/>
    <path id="Path_34488" data-name="Path 34488" d="M571.105,130.013a3.287,3.287,0,0,1,.822-.15c.13,0,.259-.039.259-.127a.655.655,0,0,0-.086-.384c-.122-.311-.259-.64-.383-.982a16.755,16.755,0,0,1-.863-2.571,14.75,14.75,0,0,1,1.07,2.5c.127.345.259.674.368.987a.753.753,0,0,1,.067.518.326.326,0,0,1-.213.189.913.913,0,0,1-.218.031A3.323,3.323,0,0,1,571.105,130.013Z" transform="translate(-531.918 -117.879)" fill="#263238"/>
    <path id="Path_34489" data-name="Path 34489" d="M554.49,158.53s1.192,2.517,4.86,2.167v-.863A9.206,9.206,0,0,1,554.49,158.53Z" transform="translate(-519.799 -142.127)" fill="#ff9a6c"/>
    <path id="Path_34490" data-name="Path 34490" d="M558.535,118.6c-.049.137-.555.073-1.148.145s-1.073.236-1.151.114c-.036-.06.047-.189.241-.321a1.922,1.922,0,0,1,.853-.3,1.967,1.967,0,0,1,.9.1C558.447,118.42,558.556,118.532,558.535,118.6Z" transform="translate(-521.087 -112.263)" fill="#263238"/>
    <path id="Path_34491" data-name="Path 34491" d="M578.716,119.292c-.088.117-.438,0-.855,0s-.778.078-.858-.042c-.034-.057.021-.174.176-.282a1.244,1.244,0,0,1,1.379.039C578.705,119.118,578.755,119.235,578.716,119.292Z" transform="translate(-536.47 -112.678)" fill="#263238"/>
    <path id="Path_34492" data-name="Path 34492" d="M549.356,100.439a1.617,1.617,0,0,0-1.425-.915,3.147,3.147,0,0,0-1.69.5c-2.182,1.26-3.3,4.308-5.461,5.614-.531.321-1.221.026-1.672.451a1.561,1.561,0,0,0-.495,1.674,5.185,5.185,0,0,1-.749-1.267,1.734,1.734,0,0,1,.062-1.428c.187-.324.518-.57.607-.933a4.789,4.789,0,0,0-.034-.98,2.148,2.148,0,0,1,.337-.936,9.475,9.475,0,0,1,3.5-3.685,6.22,6.22,0,0,1,3.216-.832,4.743,4.743,0,0,1,3.058,1.216c.485.451.99.915.741,1.527" transform="translate(-507.39 -97.06)" fill="#263238"/>
    <path id="Path_34493" data-name="Path 34493" d="M537.574,131.255a1.277,1.277,0,0,0-1.975,1.236,1.484,1.484,0,0,0,1.972,1.529C537.577,133.963,537.574,131.255,537.574,131.255Z" transform="translate(-505.804 -121.774)" fill="#ffbf9d"/>
    <path id="Path_34494" data-name="Path 34494" d="M538.368,135.078a.6.6,0,0,1-.093.049.332.332,0,0,1-.259,0,.853.853,0,0,1-.386-.778,1.14,1.14,0,0,1,.1-.49.4.4,0,0,1,.259-.259.174.174,0,0,1,.2.1c.026.054,0,.093.023.1s.041-.034.026-.114a.2.2,0,0,0-.075-.124.259.259,0,0,0-.189-.052.479.479,0,0,0-.363.3,1.145,1.145,0,0,0-.125.549.877.877,0,0,0,.492.858.371.371,0,0,0,.316-.049C538.365,135.124,538.375,135.08,538.368,135.078Z" transform="translate(-507.204 -123.586)" fill="#ff9a6c"/>
    <path id="Path_34495" data-name="Path 34495" d="M540.19,108.826a.677.677,0,0,0,.119-.067c.075-.047.192-.111.332-.21a6.87,6.87,0,0,0,1.065-.969,18.874,18.874,0,0,0,1.3-1.692,15.529,15.529,0,0,1,1.63-2.029,6.175,6.175,0,0,1,1.037-.832,5.185,5.185,0,0,1,1.135-.518,5.587,5.587,0,0,1,2.091-.259,5.467,5.467,0,0,1,1.4.259c.161.049.283.106.365.137a.8.8,0,0,0,.13.044l-.122-.062a3.6,3.6,0,0,0-.363-.15,5.138,5.138,0,0,0-1.407-.306,5.6,5.6,0,0,0-2.12.241,5.069,5.069,0,0,0-1.156.518,6.4,6.4,0,0,0-1.07.842,14.954,14.954,0,0,0-1.633,2.045,20.922,20.922,0,0,1-1.283,1.7,7.442,7.442,0,0,1-1.037.982c-.135.1-.259.171-.321.223A1,1,0,0,0,540.19,108.826Z" transform="translate(-509.205 -100.362)" fill="#455a64"/>
    <path id="Path_34496" data-name="Path 34496" d="M542.054,122.044a3.04,3.04,0,0,0,.192,1.586,1.047,1.047,0,0,0,1.348.536,1.491,1.491,0,0,0,.56-1.143c.189-1.257.275-2.53.472-3.784Z" transform="translate(-510.572 -113.02)" fill="#263238"/>
    <path id="Path_34497" data-name="Path 34497" d="M552.24,104.392a3.79,3.79,0,0,0-.49-.041,3.306,3.306,0,0,0-1.3.238,4.3,4.3,0,0,0-.819.42,8.857,8.857,0,0,0-.845.645,10.2,10.2,0,0,0-1.651,1.783c-.259.352-.472.713-.713,1.037a5.048,5.048,0,0,1-.79.889,9,9,0,0,1-1.669,1.117c-.518.259-.928.454-1.218.583l-.337.143a.712.712,0,0,1-.122.044,1.007,1.007,0,0,1,.111-.065l.329-.163c.285-.14.7-.337,1.2-.612a9.162,9.162,0,0,0,1.638-1.125,4.885,4.885,0,0,0,.777-.876c.236-.332.459-.695.713-1.037a9.844,9.844,0,0,1,1.677-1.8,8.242,8.242,0,0,1,.86-.643,4.3,4.3,0,0,1,.84-.42,3.3,3.3,0,0,1,1.337-.207,2.138,2.138,0,0,1,.365.052A.566.566,0,0,1,552.24,104.392Z" transform="translate(-510.761 -101.954)" fill="#455a64"/>
    <path id="Path_34498" data-name="Path 34498" d="M535.606,118.112a1.063,1.063,0,0,1-.176.119l-.5.293-.168.1a.557.557,0,0,1-.215.073.207.207,0,0,1-.132-.031.176.176,0,0,1-.078-.122.434.434,0,0,1,.093-.259l.581-.93.078.075a2.025,2.025,0,0,1-.635.316,2.074,2.074,0,0,1-.7.083.615.615,0,0,1-.179-.031.23.23,0,0,1-.153-.135.215.215,0,0,1,.031-.2.883.883,0,0,1,.114-.122,4.2,4.2,0,0,0,.671-.847,7.2,7.2,0,0,0,.428-.91,1.114,1.114,0,0,1-.062.259,3.717,3.717,0,0,1-.3.684,3.96,3.96,0,0,1-.669.881c-.072.07-.145.15-.116.213s.135.093.238.093a1.983,1.983,0,0,0,1.27-.378l.236-.174-.158.259-.591.923a.356.356,0,0,0-.083.192c0,.057.049.088.111.083a.991.991,0,0,0,.355-.145l.518-.259A.8.8,0,0,1,535.606,118.112Z" transform="translate(-504.178 -110.309)" fill="#455a64"/>
    <path id="Path_34499" data-name="Path 34499" d="M566.028,144.89a.889.889,0,0,0-.8-.3.806.806,0,0,0-.544.308.5.5,0,0,0-.021.573.606.606,0,0,0,.645.14,1.867,1.867,0,0,0,.609-.386.515.515,0,0,0,.135-.145.16.16,0,0,0,0-.179" transform="translate(-527.279 -131.796)" fill="#ff9a6c"/>
    <path id="Path_34500" data-name="Path 34500" d="M565.132,142.74c.08,0,.1.518.56.866s1.037.283,1.037.355c0,.031-.122.1-.36.117a1.317,1.317,0,0,1-.858-.259,1.121,1.121,0,0,1-.438-.728C565.049,142.867,565.1,142.737,565.132,142.74Z" transform="translate(-527.634 -130.429)" fill="#263238"/>
    <path id="Path_34501" data-name="Path 34501" d="M563.764,278.09l2.123,4.795-10.3,3.854-2.3-5.155Z" transform="translate(-518.903 -230.7)" fill="#263238"/>
    <path id="Path_34502" data-name="Path 34502" d="M657.47,390.66l2.817,6.083s7.037-.933,7.667.143l-11.5,5.995-4.782-9.3Z" transform="translate(-591.792 -314.094)" fill="#455a64"/>
    <path id="Path_34503" data-name="Path 34503" d="M669.973,418.792a.536.536,0,0,0-.052.713.518.518,0,0,0,.7.06.565.565,0,0,0,.052-.754.536.536,0,0,0-.741.018" transform="translate(-605.231 -334.845)" fill="#e0e0e0"/>
    <path id="Path_34504" data-name="Path 34504" d="M669.028,419.734l-.378-.728,11.282-5.6a.99.99,0,0,1,.692.373Z" transform="translate(-604.371 -330.948)" fill="#263238"/>
    <path id="Path_34505" data-name="Path 34505" d="M683.176,414.027c.026.057-.246.228-.433.552s-.215.643-.28.648-.148-.371.088-.759S683.161,413.967,683.176,414.027Z" transform="translate(-614.554 -331.394)" fill="#263238"/>
    <path id="Path_34506" data-name="Path 34506" d="M689.777,413.595c.042.049-.155.272-.225.612s0,.622-.057.648-.259-.277-.161-.7S689.746,413.54,689.777,413.595Z" transform="translate(-619.675 -331.078)" fill="#263238"/>
    <path id="Path_34507" data-name="Path 34507" d="M695.867,414.466c-.044.036-.259-.207-.283-.594s.192-.648.241-.612-.031.285-.018.6S695.922,414.429,695.867,414.466Z" transform="translate(-624.324 -330.834)" fill="#263238"/>
    <path id="Path_34508" data-name="Path 34508" d="M678.919,408.85c0,.062-.3.117-.609.3s-.518.415-.568.381.086-.36.454-.573S678.924,408.78,678.919,408.85Z" transform="translate(-611.1 -327.531)" fill="#263238"/>
    <path id="Path_34509" data-name="Path 34509" d="M674.414,402.662a1.319,1.319,0,0,1-.586.3,2.9,2.9,0,0,1-.708.122,2.949,2.949,0,0,1-.425,0,.866.866,0,0,1-.259-.047.277.277,0,0,1-.181-.29.353.353,0,0,1,.184-.259.834.834,0,0,1,.233-.08,2.57,2.57,0,0,1,.428-.06,2.333,2.333,0,0,1,.72.08c.4.114.6.28.583.3s-.239-.08-.619-.148a2.643,2.643,0,0,0-.672-.029,2.362,2.362,0,0,0-.386.067c-.143.029-.259.083-.259.153,0,.028,0,.036.047.06a.647.647,0,0,0,.181.034,3.518,3.518,0,0,0,.4.021,3.793,3.793,0,0,0,.674-.07A4.618,4.618,0,0,1,674.414,402.662Z" transform="translate(-607.041 -322.747)" fill="#263238"/>
    <path id="Path_34510" data-name="Path 34510" d="M612.892,428l-.358,6.695s6.653,2.47,6.708,3.714l-12.972-.085.127-10.453Z" transform="translate(-558.159 -341.66)" fill="#455a64"/>
    <path id="Path_34511" data-name="Path 34511" d="M614.188,451.831a.531.531,0,0,0-.381.6.518.518,0,0,0,.6.381.565.565,0,0,0,.4-.643.531.531,0,0,0-.663-.327" transform="translate(-563.736 -359.403)" fill="#e0e0e0"/>
    <path id="Path_34512" data-name="Path 34512" d="M606.27,465.822v-.832l12.588.334a.993.993,0,0,1,.438.653Z" transform="translate(-558.159 -369.159)" fill="#263238"/>
    <path id="Path_34513" data-name="Path 34513" d="M627.445,454.2c0,.065-.321.088-.64.288s-.49.467-.549.441.044-.394.433-.63S627.473,454.139,627.445,454.2Z" transform="translate(-572.953 -361.118)" fill="#263238"/>
    <path id="Path_34514" data-name="Path 34514" d="M633.626,456.576c.013.065-.259.168-.487.435s-.29.549-.355.547-.1-.365.184-.692S633.626,456.517,633.626,456.576Z" transform="translate(-577.768 -362.907)" fill="#263238"/>
    <path id="Path_34515" data-name="Path 34515" d="M638.85,459.92c-.06.013-.143-.308.029-.656s.472-.482.5-.428-.163.239-.3.518S638.912,459.907,638.85,459.92Z" transform="translate(-582.241 -364.592)" fill="#263238"/>
    <path id="Path_34516" data-name="Path 34516" d="M626.661,447.719c-.029.057-.319-.036-.682-.018s-.645.127-.676.073.241-.28.669-.3S626.695,447.669,626.661,447.719Z" transform="translate(-572.257 -356.185)" fill="#263238"/>
    <path id="Path_34517" data-name="Path 34517" d="M625.9,439.756a1.26,1.26,0,0,1-.656-.016,2.976,2.976,0,0,1-.684-.223,3.165,3.165,0,0,1-.373-.207.779.779,0,0,1-.194-.158.277.277,0,0,1-.023-.339.358.358,0,0,1,.283-.143.957.957,0,0,1,.246.039,2.347,2.347,0,0,1,1,.565c.3.288.4.518.376.539s-.174-.181-.479-.42a2.662,2.662,0,0,0-.578-.339,2.281,2.281,0,0,0-.376-.122c-.137-.039-.259-.041-.293.018s-.015.034.013.075a.721.721,0,0,0,.145.114,3.7,3.7,0,0,0,.342.2,3.857,3.857,0,0,0,.63.259A4.338,4.338,0,0,1,625.9,439.756Z" transform="translate(-571.233 -349.661)" fill="#263238"/>
    <path id="Path_34518" data-name="Path 34518" d="M517.35,295.065s25.993-3.255,27.525-3.255a6.678,6.678,0,0,1,6.389,4.854c.4,1.555,8.4,24.168,8.4,24.168l-5.9,3.058-8.68-15.424-4.424-7.695-22.808,3.522Z" transform="translate(-492.285 -240.864)" fill="#263238"/>
    <path id="Path_34519" data-name="Path 34519" d="M559.969,321.879a7.114,7.114,0,0,1,5.487,2.851c1.13,1.677.733,4.665.757,6.928.031,3.076-.713,21.82-.713,21.82l-7.285.122-1.527-19.534.088-3.61-14.537-1.187a8.61,8.61,0,0,1,1.933-7.889C544.571,320.933,559.969,321.879,559.969,321.879Z" transform="translate(-510.526 -262.68)" fill="#263238"/>
    <path id="Path_34520" data-name="Path 34520" d="M516.3,280.12s-5.746,8.843-2.221,15.488c1.68,3.165,6.7,3.162,6.7,3.162l5.155-6.454V281.644Z" transform="translate(-489.015 -232.203)" fill="#263238"/>
    <path id="Path_34521" data-name="Path 34521" d="M543.22,330.33a.65.65,0,0,1,.1-.052l.29-.135,1.12-.518,4.147-1.843,6.14-2.714,3.628-1.6c.319-.132.625-.29.962-.4a6.136,6.136,0,0,1,1.037-.259,7.813,7.813,0,0,1,2.172-.018,6.941,6.941,0,0,1,2.092.591,3.832,3.832,0,0,1,.9.588,3.375,3.375,0,0,1,.661.827,4.7,4.7,0,0,1,.609,1.946c.029.337,0,.661,0,.985v.959c-.031,2.527-.057,4.8-.078,6.713s-.049,3.45-.065,4.525c0,.518-.018.941-.023,1.231v.319a.706.706,0,0,1,0,.109.877.877,0,0,1,0-.109v-1.55c0-1.076,0-2.62.018-4.525s.029-4.188.047-6.713v-.959c0-.324.016-.653-.013-.975a4.517,4.517,0,0,0-.593-1.884,3.216,3.216,0,0,0-.632-.793,3.6,3.6,0,0,0-.866-.562,6.822,6.822,0,0,0-2.045-.581,7.713,7.713,0,0,0-2.131.018,6.016,6.016,0,0,0-1.011.259c-.324.111-.638.259-.954.4L555.1,325.2l-6.15,2.685-4.147,1.8-1.133.482-.3.122A.49.49,0,0,1,543.22,330.33Z" transform="translate(-511.45 -263.763)" fill="#455a64"/>
    <line id="Line_3" data-name="Line 3" y1="2.61" x2="24.404" transform="translate(27.672 50.946)" fill="#455a64"/>
    <path id="Path_34522" data-name="Path 34522" d="M551.814,291.805c0,.036-5.456.651-12.194,1.371s-12.2,1.275-12.21,1.239,5.456-.651,12.194-1.371S551.809,291.769,551.814,291.805Z" transform="translate(-499.738 -240.859)" fill="#455a64"/>
    <path id="Path_34523" data-name="Path 34523" d="M539.562,189.539c.422-1.345,1.9-6.3,1.568-8.905-.259-2.073-2.133-4.753-2.69-6.179-.259-.671-2.361-1.363-3.613-1.734l-1.244-1.47-.1.718a3.587,3.587,0,0,1-2.97,1.216,6.582,6.582,0,0,1-4.372-2.035,27.2,27.2,0,0,0-5.7,2.156c-1.187.472,2.364,11.847,2.364,11.847s1.273,7.146.075,9.553c-.674,1.356-1.454,2.9-2.027,4.162,0,0-1.6,3.043-1.254,2.965.718-.166,5.7,1.037,10.385,1.3,8.659.456,10.315-.827,10.315-.827-.453-2.216-1.213-9.983-1.21-11.492A7.245,7.245,0,0,1,539.562,189.539Z" transform="translate(-493.911 -151.476)" fill="#00a99d"/>
    <path id="Path_34524" data-name="Path 34524" d="M574.3,172.91s5.642,1.454,6.194,2.206c1.5,2.04,10.541,16,6.1,20.159-2.908,2.727-7-3.027-7-3.027Z" transform="translate(-534.475 -152.78)" fill="#00a99d"/>
    <path id="Path_34525" data-name="Path 34525" d="M600.48,233.181a2.5,2.5,0,0,1-.4-.067L599,232.891c-.92-.187-2.208-.451-3.686-.663l.078-.044-.443,1.094-1.052,2.568v-.065l1.633,1.959.453.56a1.381,1.381,0,0,1,.15.207s.417.192-.182-.181l-.485-.536-1.674-1.926-.026-.031.016-.034,1.037-2.576c.153-.373.3-.739.446-1.091l.021-.052h.06c1.485.22,2.771.5,3.686.713.459.106.822.2,1.073.259a2.7,2.7,0,0,1,.373.13Z" transform="translate(-548.898 -196.614)" fill="#263238"/>
    <path id="Path_34526" data-name="Path 34526" d="M593.986,201.708a2.682,2.682,0,0,1,.042-.459c.041-.316.093-.736.158-1.241a19,19,0,0,0,.137-4.1,11.022,11.022,0,0,0-1.166-3.921c-.236-.472-.451-.845-.6-1.1a3.252,3.252,0,0,1-.225-.4.953.953,0,0,1,.078.093c.047.062.114.158.2.283.166.259.394.614.645,1.086a10.512,10.512,0,0,1,1.218,3.952,17.361,17.361,0,0,1-.181,4.126c-.075.518-.15.946-.2,1.236A2.906,2.906,0,0,1,593.986,201.708Z" transform="translate(-547.832 -165.796)" fill="#263238"/>
    <g id="Group_69726" data-name="Group 69726" transform="translate(27.672 32.122)" opacity="0.3">
      <path id="Path_34527" data-name="Path 34527" d="M527.41,233.388l10.681-4.924-.723-2.112,1.643-.627,2.677.35a4.349,4.349,0,0,0,3.647-1.239h0l-6.653-1.682-7.589,1.617-1.928-5.59-.477,1.638.4,3.517.259,3.8Z" transform="translate(-527.41 -219.18)"/>
    </g>
    <path id="Path_34528" data-name="Path 34528" d="M504.93,179.25a4.873,4.873,0,0,0-2.732,3.131,12.548,12.548,0,0,0-.829,2.55c-.9,3.965-2.851,11.4-2.924,13.389-.14,3.571,2.7,4.585,4.235,4.9s12.181-5.2,12.181-5.2L512.649,192l-6.508,2.693s1.485-4.587,1.915-6.464S504.93,179.25,504.93,179.25Z" transform="translate(-478.276 -157.477)" fill="#00a99d"/>
    <path id="Path_34529" data-name="Path 34529" d="M596.1,219.67a4.921,4.921,0,0,1-.06-1.794,3.207,3.207,0,0,0,.039-1.089.832.832,0,0,0-.759-.7l-.544,2.615Z" transform="translate(-549.647 -184.764)" fill="#ffbf9d"/>
    <path id="Path_34530" data-name="Path 34530" d="M580.459,204.543l-1.915,9.242L574,213.511l1.345-9.144a.49.49,0,0,1,.487-.417h4.147a.49.49,0,0,1,.479.594Z" transform="translate(-534.253 -175.775)" fill="#263238"/>
    <path id="Path_34531" data-name="Path 34531" d="M579.21,208.252a1.476,1.476,0,0,0,.07-.259c.039-.194.091-.446.153-.749l.215-1.109a.534.534,0,0,1,.031-.15.3.3,0,0,1,.08-.117.259.259,0,0,1,.13-.067,1.036,1.036,0,0,1,.161,0h.718c.982,0,1.874-.016,2.517-.026l.778-.021a1.3,1.3,0,0,0,.28-.021,2.042,2.042,0,0,0-.28-.016H580.05a.9.9,0,0,0-.181,0,.373.373,0,0,0-.169.085.391.391,0,0,0-.1.156,1.573,1.573,0,0,0-.036.166c-.073.415-.137.791-.194,1.114l-.122.752A1.636,1.636,0,0,0,579.21,208.252Z" transform="translate(-538.112 -177.081)" fill="#455a64"/>
    <path id="Path_34532" data-name="Path 34532" d="M588.5,207.327a.223.223,0,0,1,.259-.135.22.22,0,0,1,.16.179.259.259,0,0,1-.124.231.231.231,0,0,1-.259-.023A.21.21,0,0,1,588.5,207.327Z" transform="translate(-544.978 -178.173)" fill="#fafafa"/>
    <path id="Path_34533" data-name="Path 34533" d="M580.123,218.25c.106.026,2.509,1.267,2.509,1.267l1.254,1.322a2.568,2.568,0,0,1,.086,1.959c-.368,1.182-.967,1.615-2.348,1.957l-2.61-.412-1.322-1.083a.824.824,0,0,1-.259-.884l.018-.054-.15-.259a.456.456,0,0,1,.023-.5h0a.456.456,0,0,1,.635-.1l1.488,1.089,1.024.135.153-.334-1.5-.778-1.907-1.477a.56.56,0,0,1-.086-.806h0a.56.56,0,0,1,.713-.119l1.773,1.037,1.851.816-.293-.736L579,218.678S578.812,217.918,580.123,218.25Z" transform="translate(-536.473 -186.307)" fill="#ffbf9d"/>
    <path id="Path_34534" data-name="Path 34534" d="M562.869,212.518a1.575,1.575,0,0,0-1.332.057c-.832.345-1.895.866-1.895.866l-1.594.454.189-.394s1.573.161,1.5-.985l-.949.041-.814-.417-1.6,1.555-.6,2.206-1.765.918,1.387,3.774,2.491-1.381,3.11-.06,1.143-.925.127-1.174,1.12-1.14s.14-.57-.376-.625-1.757,1.179-1.757,1.179l-1.247.029s-.212-.194-.039-.306,3.846-1.915,4.009-2.32.332-.669-.034-.778a2.016,2.016,0,0,0-.972.093S563.146,212.607,562.869,212.518Z" transform="translate(-519.436 -181.842)" fill="#ffbf9d"/>
    <path id="Path_34535" data-name="Path 34535" d="M576.47,217.655a17.4,17.4,0,0,0,1.635-.778,17.075,17.075,0,0,0,1.594-.847,17.067,17.067,0,0,0-1.635.765A16.711,16.711,0,0,0,576.47,217.655Z" transform="translate(-536.082 -184.724)" fill="#ff9a6c"/>
    <path id="Path_34536" data-name="Path 34536" d="M573.61,228.476a.749.749,0,0,0,.187.06c.122.031.3.078.518.117a3.542,3.542,0,0,0,.8.054,2.3,2.3,0,0,0,.943-.259,4.148,4.148,0,0,0,1.322-1.169c.137-.179.244-.327.314-.43a.832.832,0,0,0,.1-.168,6.516,6.516,0,0,0-.472.557,4.441,4.441,0,0,1-1.309,1.127,2.312,2.312,0,0,1-.907.259,3.693,3.693,0,0,1-.778-.034C573.887,228.52,573.613,228.461,573.61,228.476Z" transform="translate(-533.964 -192.614)" fill="#ff9a6c"/>
    <path id="Path_34537" data-name="Path 34537" d="M554,216.722l.111-.065.337-.184,1.3-.689-.015.018.591-2.211h0l1.6-1.555.026-.026.031.018.816.415h-.026l.949-.044h.057v.054a.968.968,0,0,1-.1.518.912.912,0,0,1-.381.332,2.136,2.136,0,0,1-1.068.166l.059-.034-.187.4-.073-.086,1.594-.459h0l1.555-.708a2.019,2.019,0,0,1,1.747-.218h0a.283.283,0,0,1,.163.155.5.5,0,0,1,.039.2,1.333,1.333,0,0,1-.055.389l-.086-.083a2.947,2.947,0,0,1,.568-.122.892.892,0,0,1,.609.109.26.26,0,0,1,.1.163.483.483,0,0,1,0,.174,2.347,2.347,0,0,1-.1.288l-.057.137a.579.579,0,0,1-.041.078.744.744,0,0,1-.057.065,2.342,2.342,0,0,1-.241.194,23.226,23.226,0,0,1-2.037,1.172l-1.013.518c-.166.088-.332.171-.5.259-.075.041-.187.088-.2.122a.236.236,0,0,0,.083.168l-.047-.018,1.247-.029-.044.018a7.714,7.714,0,0,1,1.2-.975,1.921,1.921,0,0,1,.342-.174.6.6,0,0,1,.4-.018.433.433,0,0,1,.288.285.789.789,0,0,1,0,.389v.016h0l-1.179,1.148.016-.034c-.044.4-.088.8-.13,1.177v.021l-.016.013-1.148.92H561l-3.123.049h.018l-1.853,1.008-.487.259-.124.065c-.028.016-.044.021-.044.018l.039-.026.122-.073.477-.275,1.838-1.037h.016l3.11-.073h-.029l1.14-.928-.021.036q.062-.568.124-1.174v-.01l.013-.013,1.117-1.143-.016.028c.047-.21,0-.474-.218-.518a.822.822,0,0,0-.64.181,7.5,7.5,0,0,0-1.172.959l-.018.018h-.01l-1.244.034h-.029l-.018-.018a.52.52,0,0,1-.1-.127.225.225,0,0,1-.016-.189.277.277,0,0,1,.132-.122l.124-.065.5-.259,1.011-.518a22.977,22.977,0,0,0,2.021-1.166,1.916,1.916,0,0,0,.21-.192.337.337,0,0,0,.041-.047.189.189,0,0,0,.026-.052l.06-.137c.067-.171.171-.389.054-.467a.778.778,0,0,0-.518-.08,2.661,2.661,0,0,0-.539.114l-.119.039.034-.122a1.243,1.243,0,0,0,.049-.347c0-.114-.039-.212-.111-.233h0a1.4,1.4,0,0,0-.827-.073,3.178,3.178,0,0,0-.8.3l-1.537.7h0l-1.6.454-.13.036.06-.122.189-.394.016-.036h.044a2.037,2.037,0,0,0,1-.15.805.805,0,0,0,.345-.319.871.871,0,0,0,.088-.451l.06.052-.949.039h-.016l-.814-.422h.06l-1.607,1.555v-.018c-.241.86-.448,1.6-.617,2.2v.013h0l-1.317.666-.342.168Z" transform="translate(-519.436 -181.746)" fill="#ff9a6c"/>
    <path id="Path_34538" data-name="Path 34538" d="M519.979,238.359a1.193,1.193,0,0,1,.163-.088l.48-.238,1.814-.866,6.249-2.955-.034.08c-.4-1.1-.84-2.3-1.3-3.535-.316-.876-.627-1.729-.925-2.553l.088.039-6.368,2.675h-.013a5.845,5.845,0,0,0-1.527.342,2.851,2.851,0,0,0-.99.619,1.859,1.859,0,0,0-.42.609c-.031.078-.049.14-.062.181a.268.268,0,0,1-.018.065.165.165,0,0,1,0-.067,1.309,1.309,0,0,1,.052-.189,1.842,1.842,0,0,1,.4-.635,2.924,2.924,0,0,1,1-.653,5.776,5.776,0,0,1,1.555-.365h-.016l6.35-2.708.065-.026.023.065c.3.824.612,1.677.928,2.55.451,1.236.884,2.434,1.3,3.538l.021.057-.054.026-6.267,2.908-1.814.835-.49.218A1.717,1.717,0,0,1,519.979,238.359Z" transform="translate(-492.112 -193.659)" fill="#263238"/>
    <path id="Path_34539" data-name="Path 34539" d="M527.05,189.984a8.33,8.33,0,0,1-.422-.762c-.259-.474-.627-1.114-1.086-1.794s-.917-1.26-1.262-1.674a7.961,7.961,0,0,1-.549-.674,1.413,1.413,0,0,1,.179.153c.109.106.259.259.443.459a15.3,15.3,0,0,1,2.361,3.486c.117.241.207.441.259.583A.781.781,0,0,1,527.05,189.984Z" transform="translate(-497.011 -161.796)" fill="#263238"/>
    <path id="Path_34540" data-name="Path 34540" d="M530.011,208.9a1.379,1.379,0,0,1-.073.329c-.057.207-.143.518-.259.873-.22.739-.534,1.755-.892,2.872s-.7,2.125-.956,2.851c-.13.36-.236.653-.316.855a1.464,1.464,0,0,1-.135.306,1.833,1.833,0,0,1,.085-.324c.073-.231.166-.518.275-.868.244-.759.562-1.757.918-2.851s.684-2.1.93-2.851l.293-.86A1.713,1.713,0,0,1,530.011,208.9Z" transform="translate(-499.715 -179.442)" fill="#263238"/>
  </g>
</svg>
