<svg xmlns="http://www.w3.org/2000/svg" width="66.964" height="20.302" viewBox="0 0 66.964 20.302">
  <g id="Group_69215" data-name="Group 69215" transform="translate(0 -175.6)">
    <path id="Path_34349" data-name="Path 34349" d="M184.8,199.532l3.4-19.132h5.315l-3.3,19.132Z" transform="translate(-160.247 -4.162)" fill="#3c58bf"/>
    <path id="Path_34350" data-name="Path 34350" d="M184.8,199.532l4.358-19.132h4.358l-3.3,19.132Z" transform="translate(-160.247 -4.162)" fill="#293688"/>
    <path id="Path_34351" data-name="Path 34351" d="M264.263,176.45a13.482,13.482,0,0,0-4.889-.85c-5.315,0-9.141,2.657-9.141,6.484,0,2.87,2.657,4.358,4.783,5.315s2.764,1.594,2.764,2.445c0,1.275-1.7,1.913-3.189,1.913a11.553,11.553,0,0,1-5.1-1.063l-.744-.319L248,194.732a17.235,17.235,0,0,0,6.059,1.063c5.633,0,9.354-2.657,9.354-6.7,0-2.232-1.382-3.933-4.571-5.315-1.913-.957-3.082-1.488-3.082-2.445,0-.85.957-1.7,3.082-1.7a9.749,9.749,0,0,1,4.039.744l.531.213.85-4.145Z" transform="translate(-215.05 0)" fill="#3c58bf"/>
    <path id="Path_34352" data-name="Path 34352" d="M264.263,176.45a13.482,13.482,0,0,0-4.889-.85c-5.315,0-8.184,2.657-8.184,6.484,0,2.87,1.7,4.358,3.826,5.315s2.764,1.594,2.764,2.445c0,1.275-1.7,1.913-3.189,1.913a11.553,11.553,0,0,1-5.1-1.063l-.744-.319L248,194.732a17.235,17.235,0,0,0,6.059,1.063c5.633,0,9.354-2.657,9.354-6.7,0-2.232-1.382-3.933-4.571-5.315-1.913-.957-3.082-1.488-3.082-2.445,0-.85.957-1.7,3.082-1.7a9.749,9.749,0,0,1,4.039.744l.531.213.85-4.145Z" transform="translate(-215.05 0)" fill="#293688"/>
    <path id="Path_34353" data-name="Path 34353" d="M369.135,180.4c-1.275,0-2.232.106-2.763,1.382L358.4,199.532h5.74l1.063-3.189h6.8l.638,3.189h5.1L373.281,180.4Zm-2.445,12.755c.319-.957,2.126-5.633,2.126-5.633s.425-1.169.744-1.913l.319,1.807s1.063,4.783,1.275,5.846h-4.464Z" transform="translate(-310.782 -4.162)" fill="#3c58bf"/>
    <path id="Path_34354" data-name="Path 34354" d="M370.411,180.4c-1.276,0-2.232.106-2.764,1.382L358.4,199.532h5.74l1.063-3.189h6.8l.638,3.189h5.1L373.281,180.4Zm-3.72,12.755c.425-1.063,2.126-5.633,2.126-5.633s.425-1.169.744-1.913l.319,1.807s1.063,4.783,1.276,5.846h-4.464Z" transform="translate(-310.782 -4.162)" fill="#293688"/>
    <path id="Path_34355" data-name="Path 34355" d="M59.172,194.486l-.531-2.764a15.408,15.408,0,0,0-7.44-8.4l4.783,17.007h5.74l8.61-19.132h-5.74Z" transform="translate(-44.397 -4.856)" fill="#3c58bf"/>
    <path id="Path_34356" data-name="Path 34356" d="M59.172,194.486l-.531-2.764a15.408,15.408,0,0,0-7.44-8.4l4.783,17.007h5.74l8.61-19.132H65.656Z" transform="translate(-44.397 -4.856)" fill="#293688"/>
    <path id="Path_34357" data-name="Path 34357" d="M0,180.4l.957.213c6.8,1.594,11.479,5.633,13.286,10.417l-1.913-9.035c-.319-1.275-1.275-1.594-2.445-1.594Z" transform="translate(0 -4.162)" fill="#ffbc00"/>
    <path id="Path_34358" data-name="Path 34358" d="M0,180.4H0c6.8,1.594,12.436,5.74,14.243,10.523l-1.807-7.547a2.6,2.6,0,0,0-2.551-2.02Z" transform="translate(0 -4.162)" fill="#f7981d"/>
    <path id="Path_34359" data-name="Path 34359" d="M0,180.4H0c6.8,1.594,12.436,5.74,14.243,10.523l-1.275-4.145c-.319-1.275-.744-2.551-2.232-3.082Z" transform="translate(0 -4.162)" fill="#ed7c00"/>
    <g id="Group_69214" data-name="Group 69214" transform="translate(6.909 178.364)">
      <path id="Path_34360" data-name="Path 34360" d="M65.18,207.029l-3.614-3.614-1.7,4.039L59.44,204.8A15.408,15.408,0,0,0,52,196.4l4.783,17.007h5.74Z" transform="translate(-52 -196.4)" fill="#051244"/>
      <path id="Path_34361" data-name="Path 34361" d="M190.221,293.877,185.65,289.2l-.85,4.677Z" transform="translate(-167.156 -276.87)" fill="#051244"/>
      <path id="Path_34362" data-name="Path 34362" d="M257.247,274.8h0c.425.425.638.744.531,1.169,0,1.275-1.7,1.913-3.189,1.913a11.553,11.553,0,0,1-5.1-1.063l-.744-.319L248,280.859a17.235,17.235,0,0,0,6.059,1.063c3.4,0,6.165-.957,7.759-2.657Z" transform="translate(-221.959 -264.383)" fill="#051244"/>
      <path id="Path_34363" data-name="Path 34363" d="M364,233.524h5l1.063-3.189h6.8l.638,3.189h5.1l-1.807-7.759-6.378-6.165.319,1.7s1.063,4.783,1.275,5.846h-4.464c.425-1.063,2.126-5.633,2.126-5.633s.425-1.169.744-1.913" transform="translate(-322.546 -216.518)" fill="#051244"/>
    </g>
  </g>
</svg>
