<svg id="Group_69914" data-name="Group 69914" xmlns="http://www.w3.org/2000/svg" width="51.956" height="51.956" viewBox="0 0 51.956 51.956">
  <g id="Group_69913" data-name="Group 69913">
    <path id="Path_35704" data-name="Path 35704" d="M61.522,80A1.522,1.522,0,0,0,60,81.522v4.059a1.522,1.522,0,1,0,3.044,0V81.522A1.522,1.522,0,0,0,61.522,80Z" transform="translate(-53.911 -71.882)" fill="#fff"/>
    <path id="Path_35705" data-name="Path 35705" d="M61.522,240A1.522,1.522,0,0,0,60,241.522v8.118a1.522,1.522,0,1,0,3.044,0v-8.118A1.522,1.522,0,0,0,61.522,240Z" transform="translate(-53.911 -215.646)" fill="#fff"/>
    <path id="Path_35706" data-name="Path 35706" d="M47.39,10.351H31.458V4.566A4.572,4.572,0,0,0,26.891,0H4.566A4.572,4.572,0,0,0,0,4.566V47.39a4.572,4.572,0,0,0,4.566,4.566H47.39a4.572,4.572,0,0,0,4.566-4.566V14.917A4.572,4.572,0,0,0,47.39,10.351Zm1.522,4.566V20.5h-27.4V14.917a1.524,1.524,0,0,1,1.522-1.522H47.39A1.524,1.524,0,0,1,48.912,14.917ZM3.044,4.566A1.524,1.524,0,0,1,4.566,3.044H26.891a1.524,1.524,0,0,1,1.522,1.522v5.784H23.035a4.572,4.572,0,0,0-4.566,4.566v3.349H3.044Zm0,42.823V21.31H18.469V47.39a4.545,4.545,0,0,0,.262,1.522H4.566A1.524,1.524,0,0,1,3.044,47.39Zm45.867,0a1.524,1.524,0,0,1-1.522,1.522H23.035a1.524,1.524,0,0,1-1.522-1.522V23.543h27.4Z" fill="#fff"/>
    <circle id="Ellipse_800" data-name="Ellipse 800" cx="1.291" cy="1.291" r="1.291" transform="translate(42.756 15.653)" fill="#fff"/>
    <circle id="Ellipse_801" data-name="Ellipse 801" cx="1.291" cy="1.291" r="1.291" transform="translate(36.303 15.653)" fill="#fff"/>
    <path id="Path_35707" data-name="Path 35707" d="M261.64,281.281a9.64,9.64,0,1,0-9.64-9.64A9.651,9.651,0,0,0,261.64,281.281Zm0-16.236a6.6,6.6,0,1,1-6.6,6.6A6.6,6.6,0,0,1,261.64,265.044Z" transform="translate(-226.428 -235.413)" fill="#fff"/>
  </g>
</svg>
