<svg xmlns="http://www.w3.org/2000/svg" width="50.463" height="66.249" viewBox="0 0 50.463 66.249">
  <g id="Group_70121" data-name="Group 70121" transform="translate(0)">
    <g id="Group_69915" data-name="Group 69915" transform="translate(0)">
      <path id="Path_35709" data-name="Path 35709" d="M109.522,24.585h-5.176a1.941,1.941,0,1,0,0,3.882h.647v7.117a3.238,3.238,0,0,1-3.235,3.235h-9.7V34.936h2.9a5.823,5.823,0,0,0,5.8-6.306L98.814,5.339A5.857,5.857,0,0,0,93.011,0H79.452a5.857,5.857,0,0,0-5.8,5.339L71.708,28.63a5.823,5.823,0,0,0,5.8,6.306h2.9v3.882H70.7a3.238,3.238,0,0,1-3.235-3.235V28.466h.647a1.941,1.941,0,1,0,0-3.882H62.941a1.941,1.941,0,0,0,0,3.882h.647v7.117A7.125,7.125,0,0,0,70.7,42.7h1.941v1.941a5.829,5.829,0,0,0,5.823,5.823h5.823v4.682L73.973,58.585a1.941,1.941,0,0,0-1.327,1.841v3.882a1.941,1.941,0,1,0,3.882,0V61.825l7.764-2.588v3.777a1.941,1.941,0,1,0,3.882,0V59.238l7.764,2.588v2.483a1.941,1.941,0,1,0,3.882,0V60.426a1.941,1.941,0,0,0-1.327-1.841l-10.318-3.44V50.463H94a5.829,5.829,0,0,0,5.823-5.823V42.7h1.941a7.125,7.125,0,0,0,7.117-7.117V28.466h.647a1.941,1.941,0,1,0,0-3.882Zm-32.011,6.47a1.941,1.941,0,0,1-1.934-2.1L77.518,5.662a1.953,1.953,0,0,1,1.934-1.78H93.011a1.952,1.952,0,0,1,1.934,1.78l1.941,23.291a1.941,1.941,0,0,1-1.934,2.1H77.511Zm10.661,3.882v3.882H84.291V34.936Zm7.764,9.7A1.943,1.943,0,0,1,94,46.581H78.468a1.943,1.943,0,0,1-1.941-1.941V42.7H95.936Z" transform="translate(-61 0)" fill="#fff"/>
    </g>
  </g>
</svg>
