<svg xmlns="http://www.w3.org/2000/svg" width="66.016" height="70.253" viewBox="0 0 66.016 70.253">
  <g id="Group_70224" data-name="Group 70224" transform="translate(0.257 0.258)">
    <g id="Line" transform="translate(0 0)">
      <path id="Path_35521" data-name="Path 35521" d="M53.862,22.113a1.489,1.489,0,0,0-1.623.323l-2.2,2.2a48.026,48.026,0,0,1-18.672,11.54c-5.256,1.751-3.985,9.639,1.565,9.643H36L31.12,55.573A1.489,1.489,0,0,0,33.784,56.9l5.544-11.086h4.115L48.985,56.9a1.489,1.489,0,1,0,2.663-1.332l-4.88-9.753a7.5,7.5,0,0,0,8.012-7.443V23.489a1.489,1.489,0,0,0-.918-1.375ZM51.8,38.375a4.471,4.471,0,0,1-4.466,4.466h-14.4A1.977,1.977,0,0,1,32.311,39,51.025,51.025,0,0,0,51.8,27.079Z" transform="translate(10.719 11.965)" fill="#003451" stroke="#003451" stroke-width="0.5"/>
      <path id="Path_35522" data-name="Path 35522" d="M2,23.489V38.375a7.5,7.5,0,0,0,8.012,7.443L5.135,55.573A1.489,1.489,0,1,0,7.8,56.905L13.34,45.818h4.115L23,56.9a1.489,1.489,0,0,0,2.663-1.331l-4.878-9.755h3.064c5.55,0,6.821-7.894,1.565-9.643A48.027,48.027,0,0,1,6.74,24.635l-2.2-2.2A1.488,1.488,0,0,0,2,23.489Zm2.977,3.591A51.043,51.043,0,0,0,24.469,39a1.977,1.977,0,0,1-.622,3.842H9.443a4.471,4.471,0,0,1-4.466-4.466Z" transform="translate(-2 11.965)" fill="#003451" stroke="#003451" stroke-width="0.5"/>
      <path id="Path_35525" data-name="Path 35525" d="M3059.3,453.224l5.732-7.477,16.681-7.37h11.76l11.987,3.294,10.55,6.292,3.74,5.26-5.6,2.089h-8.693l-5.657-2.089-6.33,2.089h-11.76l-3.2-2.089-5.113,2.089h-8.369Z" transform="translate(-3056.593 -437.579)" fill="#00a99d"/>
      <path id="Path_35523" data-name="Path 35523" d="M45.169,19.956a39.378,39.378,0,0,0,21.249-.115,1.5,1.5,0,0,0,.811-2.285C58.906,5.737,46.18,1.156,32.079,2.034A36.413,36.413,0,0,0,2.268,17.556a1.5,1.5,0,0,0,.811,2.285,39.392,39.392,0,0,0,21.249.115,39.392,39.392,0,0,0,8.932,1.353V33.3h-13.4c-5.879.147-5.9,8.778,0,8.932h13.4V70.133a1.489,1.489,0,1,0,2.977,0V42.227h13.4a4.466,4.466,0,1,0,0-8.932h-13.4V21.309A39.475,39.475,0,0,0,45.169,19.956Zm5.954,17.805a1.49,1.49,0,0,1-1.489,1.489H19.862a1.489,1.489,0,1,1,0-2.977H49.635A1.49,1.49,0,0,1,51.123,37.761ZM32.316,5.217l.268-.205h4.327l.266.205a16.727,16.727,0,0,1,6.434,12.046,36.386,36.386,0,0,1-17.729,0A16.743,16.743,0,0,1,32.316,5.217Zm31.164,12.3a36.417,36.417,0,0,1-16.891-.283A19.719,19.719,0,0,0,41.565,5.28,33.434,33.434,0,0,1,63.48,17.516Zm-57.464,0A33.434,33.434,0,0,1,27.932,5.28a19.729,19.729,0,0,0-5.024,11.955A36.4,36.4,0,0,1,6.017,17.516Z" transform="translate(-1.999 -1.929)" fill="#003451" stroke="#003451" stroke-width="0.5"/>
    </g>
  </g>
</svg>
